<svg width="28" height="562" viewBox="0 0 28 562" fill="none" xmlns="http://www.w3.org/2000/svg">
<path d="M14.2969 530.272V6.04785" stroke="black" stroke-linecap="round" stroke-linejoin="round"/>
<path d="M14.4422 523.407C16.8362 528.322 28.1341 551.553 28 552C26.5 557 20.3817 561.645 16 561.652C6.83257 562.793 0.852934 557.401 0.0148205 551.607C0.0046598 551.536 0.00659201 551.479 0.0350538 551.414C0.731952 549.822 11.2606 528.139 13.559 523.408C13.7412 523.033 14.2596 523.032 14.4422 523.407Z" fill="#F26722"/>
<path d="M14.2975 11.595C17.3613 11.595 19.845 9.1113 19.845 6.0475C19.845 2.9837 17.3613 0.5 14.2975 0.5C11.2337 0.5 8.75 2.9837 8.75 6.0475C8.75 9.1113 11.2337 11.595 14.2975 11.595Z" stroke="black" stroke-linecap="round" stroke-linejoin="round"/>
</svg>
