<svg width="28" height="408" viewBox="0 0 28 408" fill="none" xmlns="http://www.w3.org/2000/svg">
<path d="M14.0156 376.154V6.04785" stroke="black" stroke-linecap="round" stroke-linejoin="round"/>
<path d="M14.4422 369.083C16.8362 373.998 28.1341 397.229 28 397.676C26.5 402.676 20.3817 407.32 16 407.328C6.83257 408.469 0.852934 403.077 0.0148205 397.282C0.0046598 397.212 0.00659201 397.155 0.0350538 397.09C0.731952 395.498 11.2606 373.815 13.559 369.083C13.7412 368.708 14.2596 368.708 14.4422 369.083Z" fill="#F26722"/>
<path d="M14.0162 11.595C17.08 11.595 19.5638 9.1113 19.5638 6.0475C19.5638 2.9837 17.08 0.5 14.0162 0.5C10.9524 0.5 8.46875 2.9837 8.46875 6.0475C8.46875 9.1113 10.9524 11.595 14.0162 11.595Z" stroke="black" stroke-linecap="round" stroke-linejoin="round"/>
</svg>
