<svg width="235" height="191" viewBox="0 0 235 191" fill="none" xmlns="http://www.w3.org/2000/svg">
<path d="M134.16 20.8928H233.637" stroke="black" stroke-linecap="round" stroke-linejoin="round"/>
<path d="M134.504 169.716V20.5" stroke="black" stroke-linecap="round" stroke-linejoin="round"/>
<path d="M156.754 169.716V20.5" stroke="black" stroke-linecap="round" stroke-linejoin="round"/>
<path d="M179.004 169.716V20.5" stroke="black" stroke-linecap="round" stroke-linejoin="round"/>
<path d="M201.254 169.716V20.5" stroke="black" stroke-linecap="round" stroke-linejoin="round"/>
<path d="M223.504 169.716V20.5" stroke="black" stroke-linecap="round" stroke-linejoin="round"/>
<path d="M233.637 170.108H134.16" stroke="black" stroke-linecap="round" stroke-linejoin="round"/>
<path d="M183.9 16.4163C188.295 16.4163 191.858 12.8533 191.858 8.45817C191.858 4.06299 188.295 0.5 183.9 0.5C179.504 0.5 175.941 4.06299 175.941 8.45817C175.941 12.8533 179.504 16.4163 183.9 16.4163Z" stroke="black" stroke-linecap="round" stroke-linejoin="round"/>
<path d="M183.9 190.502C188.295 190.502 191.858 186.939 191.858 182.543C191.858 178.148 188.295 174.585 183.9 174.585C179.504 174.585 175.941 178.148 175.941 182.543C175.941 186.939 179.504 190.502 183.9 190.502Z" stroke="black" stroke-linecap="round" stroke-linejoin="round"/>
<path d="M173.949 3.48438V20.8929" stroke="black" stroke-linecap="round" stroke-linejoin="round"/>
<path d="M193.848 3.48438V20.8929" stroke="black" stroke-linecap="round" stroke-linejoin="round"/>
<path d="M173.949 187.517V170.108" stroke="black" stroke-linecap="round" stroke-linejoin="round"/>
<path d="M193.848 187.517V170.108" stroke="black" stroke-linecap="round" stroke-linejoin="round"/>
<path d="M68.7467 135.291H0.5" stroke="black" stroke-linecap="round" stroke-linejoin="round"/>
<path d="M0.5 135.291V55.7092" stroke="black" stroke-linecap="round" stroke-linejoin="round"/>
<path d="M0.5 55.7092H68.7467" stroke="black" stroke-linecap="round" stroke-linejoin="round"/>
<path d="M68.75 55.7094V24.4612" stroke="black" stroke-linecap="round" stroke-linejoin="round"/>
<path d="M68.75 24.4612H104.162" stroke="black" stroke-linecap="round" stroke-linejoin="round"/>
<path d="M68.75 135.291V166.54" stroke="black" stroke-linecap="round" stroke-linejoin="round"/>
<path d="M68.75 166.54H104.162" stroke="black" stroke-linecap="round" stroke-linejoin="round"/>
<path d="M68.75 55.7092V135.291" stroke="black" stroke-linecap="round" stroke-linejoin="round"/>
<path d="M104.156 24.4612H123.685" stroke="black" stroke-linecap="round" stroke-linejoin="round"/>
<path d="M123.688 24.4612V166.54" stroke="black" stroke-linecap="round" stroke-linejoin="round"/>
<path d="M123.685 166.54H104.156" stroke="black" stroke-linecap="round" stroke-linejoin="round"/>
<path d="M234.156 20.8928V170.108" stroke="black" stroke-linecap="round" stroke-linejoin="round"/>
</svg>
