<svg width="797" height="567" viewBox="0 0 797 567" fill="none" xmlns="http://www.w3.org/2000/svg">
<path d="M273.289 31.3301V54.6081" stroke="black" stroke-width="0.5" stroke-linecap="round" stroke-linejoin="round"/>
<path d="M273.289 54.6079H284.928" stroke="black" stroke-width="0.5" stroke-linecap="round" stroke-linejoin="round"/>
<path d="M284.926 54.6079H261.648" stroke="black" stroke-width="0.5" stroke-linecap="round" stroke-linejoin="round"/>
<path d="M272.812 126.014V122.523" stroke="black" stroke-width="0.5" stroke-linecap="round" stroke-linejoin="round"/>
<path d="M290.061 126.015H272.812" stroke="black" stroke-width="0.5" stroke-linecap="round" stroke-linejoin="round"/>
<path d="M272.812 122.523H290.061" stroke="black" stroke-width="0.5" stroke-linecap="round" stroke-linejoin="round"/>
<path d="M290.061 82.9507H278.398" stroke="black" stroke-width="0.5" stroke-linecap="round" stroke-linejoin="round"/>
<path d="M290.061 79.4585H278.398" stroke="black" stroke-width="0.5" stroke-linecap="round" stroke-linejoin="round"/>
<path d="M272.812 122.523V82.9507" stroke="black" stroke-width="0.5" stroke-linecap="round" stroke-linejoin="round"/>
<path d="M272.812 82.9503V79.4585" stroke="black" stroke-width="0.5" stroke-linecap="round" stroke-linejoin="round"/>
<path d="M275.602 70.1475V82.9503" stroke="black" stroke-width="0.5" stroke-linecap="round" stroke-linejoin="round"/>
<path d="M272.812 79.4585H275.606" stroke="black" stroke-width="0.5" stroke-linecap="round" stroke-linejoin="round"/>
<path d="M275.606 82.9507H272.812" stroke="black" stroke-width="0.5" stroke-linecap="round" stroke-linejoin="round"/>
<path d="M278.398 82.9503V70.1475" stroke="black" stroke-width="0.5" stroke-linecap="round" stroke-linejoin="round"/>
<path d="M275.602 70.1475H278.395" stroke="black" stroke-width="0.5" stroke-linecap="round" stroke-linejoin="round"/>
<path d="M278.395 82.9507H275.602" stroke="black" stroke-width="0.5" stroke-linecap="round" stroke-linejoin="round"/>
<path d="M290.062 82.9503V79.4585" stroke="black" stroke-width="0.5" stroke-linecap="round" stroke-linejoin="round"/>
<path d="M290.062 122.523V82.9507" stroke="black" stroke-width="0.5" stroke-linecap="round" stroke-linejoin="round"/>
<path d="M290.062 126.014V122.523" stroke="black" stroke-width="0.5" stroke-linecap="round" stroke-linejoin="round"/>
<path d="M326.609 122.523H290.062" stroke="black" stroke-width="0.5" stroke-linecap="round" stroke-linejoin="round"/>
<path d="M290.062 82.9507H326.609" stroke="black" stroke-width="0.5" stroke-linecap="round" stroke-linejoin="round"/>
<path d="M290.062 122.523V126.014" stroke="black" stroke-width="0.5" stroke-linecap="round" stroke-linejoin="round"/>
<path d="M290.062 79.4585V82.9503" stroke="black" stroke-width="0.5" stroke-linecap="round" stroke-linejoin="round"/>
<path d="M326.609 126.014V122.523" stroke="black" stroke-width="0.5" stroke-linecap="round" stroke-linejoin="round"/>
<path d="M326.609 82.9503V79.4585" stroke="black" stroke-width="0.5" stroke-linecap="round" stroke-linejoin="round"/>
<path d="M290.062 126.015H326.609" stroke="black" stroke-width="0.5" stroke-linecap="round" stroke-linejoin="round"/>
<path d="M326.609 79.4585H290.062" stroke="black" stroke-width="0.5" stroke-linecap="round" stroke-linejoin="round"/>
<path d="M326.609 122.523V82.9507" stroke="black" stroke-width="0.5" stroke-linecap="round" stroke-linejoin="round"/>
<path d="M290.062 122.523V82.9507" stroke="black" stroke-width="0.5" stroke-linecap="round" stroke-linejoin="round"/>
<path d="M326.609 122.523V126.014" stroke="black" stroke-width="0.5" stroke-linecap="round" stroke-linejoin="round"/>
<path d="M326.609 79.4585V82.9503" stroke="black" stroke-width="0.5" stroke-linecap="round" stroke-linejoin="round"/>
<path d="M326.609 126.015H332.661" stroke="black" stroke-width="0.5" stroke-linecap="round" stroke-linejoin="round"/>
<path d="M332.661 79.4585H326.609" stroke="black" stroke-width="0.5" stroke-linecap="round" stroke-linejoin="round"/>
<path d="M332.661 122.523H326.609" stroke="black" stroke-width="0.5" stroke-linecap="round" stroke-linejoin="round"/>
<path d="M326.609 82.9507H332.661" stroke="black" stroke-width="0.5" stroke-linecap="round" stroke-linejoin="round"/>
<path d="M326.609 82.9507V122.523" stroke="black" stroke-width="0.5" stroke-linecap="round" stroke-linejoin="round"/>
<path fill-rule="evenodd" clip-rule="evenodd" d="M330.913 111.349C330.913 110.385 330.131 109.604 329.168 109.604C328.204 109.604 327.422 110.385 327.422 111.349C327.422 112.313 328.204 113.095 329.168 113.095C330.131 113.095 330.913 112.313 330.913 111.349Z" stroke="black" stroke-width="0.5" stroke-linecap="round" stroke-linejoin="round"/>
<path d="M334.758 83.818V81.5537" stroke="black" stroke-width="0.5" stroke-linecap="round" stroke-linejoin="round"/>
<path d="M334.758 121.655V83.8184" stroke="black" stroke-width="0.5" stroke-linecap="round" stroke-linejoin="round"/>
<path d="M334.758 123.919V121.655" stroke="black" stroke-width="0.5" stroke-linecap="round" stroke-linejoin="round"/>
<path d="M332.656 79.4585L334.752 81.5537" stroke="black" stroke-width="0.5" stroke-linecap="round" stroke-linejoin="round"/>
<path d="M334.752 123.919L332.656 126.014" stroke="black" stroke-width="0.5" stroke-linecap="round" stroke-linejoin="round"/>
<path d="M332.656 79.4585V82.9503" stroke="black" stroke-width="0.5" stroke-linecap="round" stroke-linejoin="round"/>
<path d="M332.656 82.9507L334.752 83.8184" stroke="black" stroke-width="0.5" stroke-linecap="round" stroke-linejoin="round"/>
<path d="M332.656 82.9507V122.523" stroke="black" stroke-width="0.5" stroke-linecap="round" stroke-linejoin="round"/>
<path d="M332.656 122.523L334.752 121.655" stroke="black" stroke-width="0.5" stroke-linecap="round" stroke-linejoin="round"/>
<path d="M332.656 122.523V126.014" stroke="black" stroke-width="0.5" stroke-linecap="round" stroke-linejoin="round"/>
<path d="M334.984 80.1572V83.4163" stroke="black" stroke-width="0.5" stroke-linecap="round" stroke-linejoin="round"/>
<path d="M334.991 80.1571C334.991 80.0287 334.886 79.9243 334.758 79.9243" stroke="black" stroke-width="0.5" stroke-linecap="round" stroke-linejoin="round"/>
<path d="M334.758 83.6488C334.886 83.6488 334.991 83.5445 334.991 83.416" stroke="black" stroke-width="0.5" stroke-linecap="round" stroke-linejoin="round"/>
<path d="M334.755 79.9243H333.125" stroke="black" stroke-width="0.5" stroke-linecap="round" stroke-linejoin="round"/>
<path d="M334.984 122.058V125.316" stroke="black" stroke-width="0.5" stroke-linecap="round" stroke-linejoin="round"/>
<path d="M334.991 122.057C334.991 121.929 334.886 121.825 334.758 121.825" stroke="black" stroke-width="0.5" stroke-linecap="round" stroke-linejoin="round"/>
<path d="M334.758 125.549C334.886 125.549 334.991 125.444 334.991 125.316" stroke="black" stroke-width="0.5" stroke-linecap="round" stroke-linejoin="round"/>
<path d="M334.755 125.549H333.125" stroke="black" stroke-width="0.5" stroke-linecap="round" stroke-linejoin="round"/>
<path d="M279.141 126.48V127.098" stroke="black" stroke-width="0.5" stroke-linecap="round" stroke-linejoin="round"/>
<path d="M267.734 126.48V127.098" stroke="black" stroke-width="0.5" stroke-linecap="round" stroke-linejoin="round"/>
<path d="M273.438 126.48H279.141" stroke="black" stroke-width="0.5" stroke-linecap="round" stroke-linejoin="round"/>
<path d="M273.438 126.015V126.48" stroke="black" stroke-width="0.5" stroke-linecap="round" stroke-linejoin="round"/>
<path d="M279.141 126.48V126.015" stroke="black" stroke-width="0.5" stroke-linecap="round" stroke-linejoin="round"/>
<path d="M267.734 126.48H273.437" stroke="black" stroke-width="0.5" stroke-linecap="round" stroke-linejoin="round"/>
<path d="M273.438 126.48V126.015" stroke="black" stroke-width="0.5" stroke-linecap="round" stroke-linejoin="round"/>
<path d="M267.734 126.015V126.48" stroke="black" stroke-width="0.5" stroke-linecap="round" stroke-linejoin="round"/>
<path d="M302.398 75.9673H304.726" stroke="black" stroke-width="0.5" stroke-linecap="round" stroke-linejoin="round"/>
<path d="M302.398 78.1786V75.9673" stroke="black" stroke-width="0.5" stroke-linecap="round" stroke-linejoin="round"/>
<path d="M304.727 78.1786V75.9673" stroke="black" stroke-width="0.5" stroke-linecap="round" stroke-linejoin="round"/>
<path d="M305.007 78.1782H303.438" stroke="black" stroke-width="0.5" stroke-linecap="round" stroke-linejoin="round"/>
<path d="M303.438 79.4584V78.1782" stroke="black" stroke-width="0.5" stroke-linecap="round" stroke-linejoin="round"/>
<path d="M305.008 79.4584V78.1782" stroke="black" stroke-width="0.5" stroke-linecap="round" stroke-linejoin="round"/>
<path d="M303.439 78.1782H301.992" stroke="black" stroke-width="0.5" stroke-linecap="round" stroke-linejoin="round"/>
<path d="M301.992 79.4584V78.1782" stroke="black" stroke-width="0.5" stroke-linecap="round" stroke-linejoin="round"/>
<path d="M305.133 79.4584V78.1782" stroke="black" stroke-width="0.5" stroke-linecap="round" stroke-linejoin="round"/>
<path d="M305.13 78.1782H305.008" stroke="black" stroke-width="0.5" stroke-linecap="round" stroke-linejoin="round"/>
<path d="M328.828 111.932L328.492 111.35" stroke="black" stroke-width="0.5" stroke-linecap="round" stroke-linejoin="round"/>
<path d="M328.492 111.349L328.828 110.768" stroke="black" stroke-width="0.5" stroke-linecap="round" stroke-linejoin="round"/>
<path d="M328.828 110.768H329.5" stroke="black" stroke-width="0.5" stroke-linecap="round" stroke-linejoin="round"/>
<path d="M329.5 110.768L329.836 111.349" stroke="black" stroke-width="0.5" stroke-linecap="round" stroke-linejoin="round"/>
<path d="M329.5 111.931H328.828" stroke="black" stroke-width="0.5" stroke-linecap="round" stroke-linejoin="round"/>
<path d="M329.836 111.35L329.5 111.932" stroke="black" stroke-width="0.5" stroke-linecap="round" stroke-linejoin="round"/>
<path fill-rule="evenodd" clip-rule="evenodd" d="M330.798 111.35C330.798 110.45 330.068 109.72 329.168 109.72C328.269 109.72 327.539 110.45 327.539 111.35C327.539 112.249 328.269 112.979 329.168 112.979C330.068 112.979 330.798 112.249 330.798 111.35Z" stroke="black" stroke-width="0.5" stroke-linecap="round" stroke-linejoin="round"/>
<path d="M273.383 59.1919V59.5328" stroke="black" stroke-width="0.5" stroke-linecap="round" stroke-linejoin="round"/>
<path d="M275.312 46.5288V47.3521" stroke="black" stroke-width="0.5" stroke-linecap="round" stroke-linejoin="round"/>
<path d="M275.312 74.3208V75.1441" stroke="black" stroke-width="0.5" stroke-linecap="round" stroke-linejoin="round"/>
<path d="M275.312 79.1177V79.4586" stroke="black" stroke-width="0.5" stroke-linecap="round" stroke-linejoin="round"/>
<path d="M271.82 79.4586V79.1177" stroke="black" stroke-width="0.5" stroke-linecap="round" stroke-linejoin="round"/>
<path d="M271.82 75.1441V74.3208" stroke="black" stroke-width="0.5" stroke-linecap="round" stroke-linejoin="round"/>
<path d="M271.82 47.3521V46.5288" stroke="black" stroke-width="0.5" stroke-linecap="round" stroke-linejoin="round"/>
<path d="M269.898 59.5328V59.1919" stroke="black" stroke-width="0.5" stroke-linecap="round" stroke-linejoin="round"/>
<path d="M273.39 59.1919H269.898" stroke="black" stroke-width="0.5" stroke-linecap="round" stroke-linejoin="round"/>
<path d="M275.312 46.5287V42.5552" stroke="black" stroke-width="0.5" stroke-linecap="round" stroke-linejoin="round"/>
<path d="M271.82 42.5552V46.5287" stroke="black" stroke-width="0.5" stroke-linecap="round" stroke-linejoin="round"/>
<path d="M275.312 74.321V47.3521" stroke="black" stroke-width="0.5" stroke-linecap="round" stroke-linejoin="round"/>
<path d="M271.82 47.3521V74.321" stroke="black" stroke-width="0.5" stroke-linecap="round" stroke-linejoin="round"/>
<path d="M275.312 79.1181V75.1445" stroke="black" stroke-width="0.5" stroke-linecap="round" stroke-linejoin="round"/>
<path d="M271.82 75.1445V79.1181" stroke="black" stroke-width="0.5" stroke-linecap="round" stroke-linejoin="round"/>
<path d="M283.836 76.6655V72.9409" stroke="black" stroke-width="0.5" stroke-linecap="round" stroke-linejoin="round"/>
<path d="M284.125 73.2266V76.3796" stroke="black" stroke-width="0.5" stroke-linecap="round" stroke-linejoin="round"/>
<path d="M284.121 76.3799L283.836 76.6657" stroke="black" stroke-width="0.5" stroke-linecap="round" stroke-linejoin="round"/>
<path d="M284.121 73.2267L283.836 72.9409" stroke="black" stroke-width="0.5" stroke-linecap="round" stroke-linejoin="round"/>
<path d="M265.039 77.2239V72.3823" stroke="black" stroke-width="0.5" stroke-linecap="round" stroke-linejoin="round"/>
<path d="M265.039 77.2241C265.039 77.4297 265.206 77.5967 265.412 77.5967" stroke="black" stroke-width="0.5" stroke-linecap="round" stroke-linejoin="round"/>
<path d="M265.412 72.0098C265.206 72.0098 265.039 72.1768 265.039 72.3823" stroke="black" stroke-width="0.5" stroke-linecap="round" stroke-linejoin="round"/>
<path d="M268.766 77.5965V72.0098" stroke="black" stroke-width="0.5" stroke-linecap="round" stroke-linejoin="round"/>
<path d="M268.766 72.9409H268.789" stroke="black" stroke-width="0.5" stroke-linecap="round" stroke-linejoin="round"/>
<path d="M271.578 72.9409H271.823" stroke="black" stroke-width="0.5" stroke-linecap="round" stroke-linejoin="round"/>
<path d="M275.312 72.9409H275.603" stroke="black" stroke-width="0.5" stroke-linecap="round" stroke-linejoin="round"/>
<path d="M282.125 72.9409H283.841" stroke="black" stroke-width="0.5" stroke-linecap="round" stroke-linejoin="round"/>
<path d="M268.766 76.6655H268.789" stroke="black" stroke-width="0.5" stroke-linecap="round" stroke-linejoin="round"/>
<path d="M271.578 76.6655H271.823" stroke="black" stroke-width="0.5" stroke-linecap="round" stroke-linejoin="round"/>
<path d="M275.312 76.6655H275.603" stroke="black" stroke-width="0.5" stroke-linecap="round" stroke-linejoin="round"/>
<path d="M282.125 76.6655H283.841" stroke="black" stroke-width="0.5" stroke-linecap="round" stroke-linejoin="round"/>
<path d="M265.406 72.0098H268.758" stroke="black" stroke-width="0.5" stroke-linecap="round" stroke-linejoin="round"/>
<path d="M265.406 77.5967H268.758" stroke="black" stroke-width="0.5" stroke-linecap="round" stroke-linejoin="round"/>
<path d="M282.125 72.1846V77.4222" stroke="black" stroke-width="0.5" stroke-linecap="round" stroke-linejoin="round"/>
<path d="M280.844 72.1846V77.4222" stroke="black" stroke-width="0.5" stroke-linecap="round" stroke-linejoin="round"/>
<path d="M280.844 72.1846H282.124" stroke="black" stroke-width="0.5" stroke-linecap="round" stroke-linejoin="round"/>
<path d="M280.844 77.4219H282.124" stroke="black" stroke-width="0.5" stroke-linecap="round" stroke-linejoin="round"/>
<path d="M280.741 77.5967C280.741 77.5967 280.7 77.5967 280.617 77.5967H280.492M280.741 77.5967H280.492M280.741 77.5967C280.741 77.5967 280.741 77.5967 280.492 77.5967" stroke="black" stroke-width="0.5" stroke-linecap="round" stroke-linejoin="round"/>
<path d="M280.492 72.0098H280.617C280.7 72.0098 280.741 72.0098 280.741 72.0098M280.492 72.0098H280.741M280.492 72.0098C280.741 72.0098 280.741 72.0098 280.741 72.0098" stroke="black" stroke-width="0.5" stroke-linecap="round" stroke-linejoin="round"/>
<path d="M280.492 74.8033L280.725 74.105C280.88 73.6391 280.88 73.1736 280.725 72.7081L280.492 72.0098M280.492 74.8033V72.0098M280.492 74.8033C280.958 73.4064 280.958 73.4064 280.492 72.0098" stroke="black" stroke-width="0.5" stroke-linecap="round" stroke-linejoin="round"/>
<path d="M280.492 77.5964L280.725 76.8981C280.88 76.4326 280.88 75.967 280.725 75.5015L280.492 74.8032M280.492 77.5964V74.8032M280.492 77.5964C280.958 76.1998 280.958 76.1998 280.492 74.8032" stroke="black" stroke-width="0.5" stroke-linecap="round" stroke-linejoin="round"/>
<path d="M278.75 77.5967H278.625C278.542 77.5967 278.5 77.5967 278.5 77.5967M278.75 77.5967H278.5M278.75 77.5967C278.5 77.5967 278.5 77.5967 278.5 77.5967" stroke="black" stroke-width="0.5" stroke-linecap="round" stroke-linejoin="round"/>
<path d="M278.748 74.8032L278.515 75.5015C278.36 75.967 278.36 76.4326 278.515 76.8981L278.748 77.5964M278.748 74.8032V77.5964M278.748 74.8032C278.282 76.1998 278.282 76.1998 278.748 77.5964" stroke="black" stroke-width="0.5" stroke-linecap="round" stroke-linejoin="round"/>
<path d="M278.748 72.0098L278.515 72.7081C278.36 73.1736 278.36 73.6391 278.515 74.105L278.748 74.8033M278.748 72.0098V74.8033M278.748 72.0098C278.282 73.4064 278.282 73.4064 278.748 74.8033" stroke="black" stroke-width="0.5" stroke-linecap="round" stroke-linejoin="round"/>
<path d="M278.5 72.0098C278.5 72.0098 278.542 72.0098 278.625 72.0098H278.75M278.5 72.0098H278.75M278.5 72.0098C278.5 72.0098 278.5 72.0098 278.75 72.0098" stroke="black" stroke-width="0.5" stroke-linecap="round" stroke-linejoin="round"/>
<path d="M280.843 77.4219L280.742 77.5965" stroke="black" stroke-width="0.5" stroke-linecap="round" stroke-linejoin="round"/>
<path d="M280.843 72.1843L280.742 72.0098" stroke="black" stroke-width="0.5" stroke-linecap="round" stroke-linejoin="round"/>
<path d="M278.398 72.1843L278.499 72.0098" stroke="black" stroke-width="0.5" stroke-linecap="round" stroke-linejoin="round"/>
<path d="M278.398 77.4219L278.499 77.5965" stroke="black" stroke-width="0.5" stroke-linecap="round" stroke-linejoin="round"/>
<path d="M278.75 72.0098H280.494" stroke="black" stroke-width="0.5" stroke-linecap="round" stroke-linejoin="round"/>
<path d="M278.75 74.8032H280.494" stroke="black" stroke-width="0.5" stroke-linecap="round" stroke-linejoin="round"/>
<path d="M278.75 77.5967H280.494" stroke="black" stroke-width="0.5" stroke-linecap="round" stroke-linejoin="round"/>
<path d="M272.405 157.323H271.07" stroke="black" stroke-width="0.5" stroke-linecap="round" stroke-linejoin="round"/>
<path d="M276.069 157.323H274.734" stroke="black" stroke-width="0.5" stroke-linecap="round" stroke-linejoin="round"/>
<path d="M271.008 157.323H271.069" stroke="black" stroke-width="0.5" stroke-linecap="round" stroke-linejoin="round"/>
<path d="M276.07 157.323H276.132" stroke="black" stroke-width="0.5" stroke-linecap="round" stroke-linejoin="round"/>
<path d="M274.734 157.323H272.406" stroke="black" stroke-width="0.5" stroke-linecap="round" stroke-linejoin="round"/>
<path d="M271.006 157.323H270.773" stroke="black" stroke-width="0.5" stroke-linecap="round" stroke-linejoin="round"/>
<path d="M270.773 155.345V157.323" stroke="black" stroke-width="0.5" stroke-linecap="round" stroke-linejoin="round"/>
<path d="M276.358 157.323H276.125" stroke="black" stroke-width="0.5" stroke-linecap="round" stroke-linejoin="round"/>
<path d="M276.359 157.323V155.345" stroke="black" stroke-width="0.5" stroke-linecap="round" stroke-linejoin="round"/>
<path d="M276.125 168.031V167.322" stroke="black" stroke-width="0.5" stroke-linecap="round" stroke-linejoin="round"/>
<path d="M276.125 157.672V157.323" stroke="black" stroke-width="0.5" stroke-linecap="round" stroke-linejoin="round"/>
<path d="M276.125 168.031V169.423" stroke="black" stroke-width="0.5" stroke-linecap="round" stroke-linejoin="round"/>
<path d="M276.125 176.22V169.423" stroke="black" stroke-width="0.5" stroke-linecap="round" stroke-linejoin="round"/>
<path d="M276.125 176.22V181.532" stroke="black" stroke-width="0.5" stroke-linecap="round" stroke-linejoin="round"/>
<path d="M271.008 181.532V176.22" stroke="black" stroke-width="0.5" stroke-linecap="round" stroke-linejoin="round"/>
<path d="M271.008 169.423V176.22" stroke="black" stroke-width="0.5" stroke-linecap="round" stroke-linejoin="round"/>
<path d="M271.008 169.423V168.031" stroke="black" stroke-width="0.5" stroke-linecap="round" stroke-linejoin="round"/>
<path d="M271.008 157.323V157.672" stroke="black" stroke-width="0.5" stroke-linecap="round" stroke-linejoin="round"/>
<path d="M271.008 167.322V168.031" stroke="black" stroke-width="0.5" stroke-linecap="round" stroke-linejoin="round"/>
<path d="M272.406 160.356V160.505" stroke="black" stroke-width="0.5" stroke-linecap="round" stroke-linejoin="round"/>
<path d="M272.406 160.057V160.356" stroke="black" stroke-width="0.5" stroke-linecap="round" stroke-linejoin="round"/>
<path d="M272.406 157.696V160.057" stroke="black" stroke-width="0.5" stroke-linecap="round" stroke-linejoin="round"/>
<path d="M272.406 157.323V157.696" stroke="black" stroke-width="0.5" stroke-linecap="round" stroke-linejoin="round"/>
<path d="M274.734 160.505V160.356" stroke="black" stroke-width="0.5" stroke-linecap="round" stroke-linejoin="round"/>
<path d="M274.734 160.356V160.057" stroke="black" stroke-width="0.5" stroke-linecap="round" stroke-linejoin="round"/>
<path d="M274.734 160.057H272.406" stroke="black" stroke-width="0.5" stroke-linecap="round" stroke-linejoin="round"/>
<path d="M274.734 160.057V157.696" stroke="black" stroke-width="0.5" stroke-linecap="round" stroke-linejoin="round"/>
<path d="M274.734 157.696V157.323" stroke="black" stroke-width="0.5" stroke-linecap="round" stroke-linejoin="round"/>
<path d="M271.008 181.532H276.129" stroke="black" stroke-width="0.5" stroke-linecap="round" stroke-linejoin="round"/>
<path d="M271.008 168.031H276.129" stroke="black" stroke-width="0.5" stroke-linecap="round" stroke-linejoin="round"/>
<path d="M272.32 158.177C272.322 158.189 272.321 158.195 272.319 158.203C272.317 158.21 272.314 158.218 272.311 158.224C272.308 158.23 272.305 158.234 272.3 158.24C272.295 158.245 272.287 158.252 272.281 158.257C272.275 158.263 272.271 158.266 272.265 158.268C272.261 158.271 272.256 158.274 272.253 158.275C272.25 158.276 272.25 158.276 272.25 158.276" stroke="black" stroke-width="0.5" stroke-linecap="round" stroke-linejoin="round"/>
<path d="M271.587 158.915C271.579 158.916 271.57 158.916 271.562 158.917" stroke="black" stroke-width="0.5" stroke-linecap="round" stroke-linejoin="round"/>
<path d="M271.693 158.907C271.668 158.908 271.629 158.911 271.587 158.915H271.586" stroke="black" stroke-width="0.5" stroke-linecap="round" stroke-linejoin="round"/>
<path d="M272.32 158.183C272.326 158.265 272.35 158.349 272.391 158.429" stroke="black" stroke-width="0.5" stroke-linecap="round" stroke-linejoin="round"/>
<path d="M272.305 158.089L272.318 158.177" stroke="black" stroke-width="0.5" stroke-linecap="round" stroke-linejoin="round"/>
<path d="M272.234 158.104C272.239 158.187 272.242 158.235 272.245 158.294C272.249 158.354 272.253 158.424 272.257 158.478C272.26 158.533 272.263 158.572 272.266 158.632C272.27 158.691 272.275 158.77 272.279 158.831C272.283 158.891 272.286 158.932 272.29 158.992C272.294 159.052 272.299 159.132 272.303 159.191C272.306 159.25 272.309 159.289 272.312 159.344C272.315 159.4 272.319 159.47 272.322 159.522C272.325 159.574 272.327 159.608 272.329 159.652C272.331 159.696 272.334 159.752 272.335 159.792C272.337 159.832 272.337 159.856 272.338 159.881C272.338 159.906 272.338 159.934 272.338 159.952C272.338 159.969 272.338 159.977 272.338 159.987C272.337 159.996 272.337 160.008 272.336 160.016C272.336 160.023 272.335 160.027 272.334 160.033C272.334 160.039 272.332 160.047 272.331 160.053C272.33 160.06 272.329 160.065 272.324 160.079" stroke="black" stroke-width="0.5" stroke-linecap="round" stroke-linejoin="round"/>
<path d="M272.055 160.086C272.053 160.094 272.051 160.098 272.05 160.103C272.048 160.108 272.046 160.113 272.044 160.117C272.043 160.12 272.042 160.123 272.039 160.127" stroke="black" stroke-width="0.5" stroke-linecap="round" stroke-linejoin="round"/>
<path d="M271.4 158.151C271.398 158.095 271.397 158.07 271.395 158.039C271.394 158.008 271.392 157.97 271.392 157.943C271.391 157.916 271.39 157.898 271.391 157.882C271.391 157.864 271.391 157.848 271.392 157.838C271.392 157.828 271.392 157.824 271.393 157.819C271.394 157.814 271.394 157.808 271.395 157.803C271.396 157.798 271.396 157.795 271.397 157.791C271.398 157.786 271.4 157.78 271.401 157.776C271.402 157.772 271.402 157.77 271.404 157.767C271.405 157.764 271.407 157.76 271.408 157.757C271.409 157.754 271.41 157.752 271.412 157.749C271.414 157.745 271.417 157.74 271.419 157.736C271.422 157.731 271.424 157.728 271.428 157.724C271.432 157.719 271.438 157.713 271.443 157.708C271.448 157.704 271.451 157.701 271.457 157.697C271.462 157.694 271.47 157.689 271.476 157.686C271.483 157.683 271.488 157.68 271.495 157.678C271.502 157.677 271.512 157.674 271.52 157.673C271.527 157.672 271.532 157.672 271.538 157.672C271.544 157.672 271.551 157.673 271.556 157.674C271.56 157.674 271.563 157.675 271.567 157.676" stroke="black" stroke-width="0.5" stroke-linecap="round" stroke-linejoin="round"/>
<path d="M271.703 157.704C271.707 157.698 271.709 157.696 271.712 157.692C271.716 157.688 271.72 157.683 271.724 157.68C271.728 157.676 271.731 157.673 271.737 157.669C271.742 157.666 271.75 157.661 271.756 157.658C271.763 157.654 271.768 157.652 271.775 157.65C271.782 157.648 271.792 157.646 271.8 157.645C271.807 157.643 271.812 157.643 271.819 157.643C271.826 157.643 271.835 157.644 271.843 157.645C271.85 157.646 271.855 157.648 271.866 157.651" stroke="black" stroke-width="0.5" stroke-linecap="round" stroke-linejoin="round"/>
<path d="M271.977 157.679C271.981 157.672 271.984 157.669 271.988 157.664C271.992 157.66 271.997 157.655 272.001 157.651C272.005 157.647 272.009 157.644 272.014 157.64C272.02 157.636 272.028 157.632 272.034 157.628C272.04 157.625 272.045 157.623 272.052 157.621C272.06 157.619 272.069 157.617 272.077 157.615C272.084 157.614 272.09 157.614 272.097 157.614C272.105 157.615 272.115 157.616 272.123 157.617C272.13 157.619 272.135 157.62 272.14 157.622C272.145 157.623 272.15 157.625 272.152 157.627C272.155 157.628 272.155 157.628 272.155 157.628" stroke="black" stroke-width="0.5" stroke-linecap="round" stroke-linejoin="round"/>
<path d="M272.273 157.889C272.274 157.89 272.274 157.891 272.276 157.901C272.277 157.911 272.281 157.929 272.285 157.955C272.289 157.981 272.294 158.014 272.306 158.089" stroke="black" stroke-width="0.5" stroke-linecap="round" stroke-linejoin="round"/>
<path d="M271.789 159.497L271.872 160.29" stroke="black" stroke-width="0.5" stroke-linecap="round" stroke-linejoin="round"/>
<path d="M271.508 159.475L271.576 160.127" stroke="black" stroke-width="0.5" stroke-linecap="round" stroke-linejoin="round"/>
<path d="M274.821 158.177C274.82 158.189 274.82 158.195 274.822 158.203C274.824 158.21 274.828 158.218 274.831 158.224C274.834 158.23 274.837 158.234 274.842 158.24C274.847 158.245 274.854 158.252 274.86 158.257C274.866 158.263 274.871 158.266 274.876 158.268C274.881 158.271 274.886 158.274 274.889 158.275C274.892 158.276 274.892 158.276 274.892 158.276" stroke="black" stroke-width="0.5" stroke-linecap="round" stroke-linejoin="round"/>
<path d="M274.75 158.429C274.755 158.419 274.758 158.414 274.765 158.398C274.772 158.383 274.784 158.355 274.795 158.324C274.806 158.292 274.815 158.256 274.821 158.183" stroke="black" stroke-width="0.5" stroke-linecap="round" stroke-linejoin="round"/>
<path d="M275.545 158.915H275.544C275.501 158.911 275.463 158.908 275.438 158.907" stroke="black" stroke-width="0.5" stroke-linecap="round" stroke-linejoin="round"/>
<path d="M275.572 158.917C275.564 158.916 275.555 158.916 275.547 158.915" stroke="black" stroke-width="0.5" stroke-linecap="round" stroke-linejoin="round"/>
<path d="M274.836 158.089C274.848 158.012 274.859 157.944 274.869 157.889" stroke="black" stroke-width="0.5" stroke-linecap="round" stroke-linejoin="round"/>
<path d="M274.977 157.628C274.981 157.626 274.983 157.625 274.988 157.623C274.992 157.622 274.998 157.619 275.004 157.618C275.009 157.616 275.014 157.615 275.022 157.615C275.03 157.614 275.04 157.614 275.047 157.614C275.055 157.615 275.06 157.615 275.067 157.617C275.075 157.619 275.085 157.622 275.092 157.625C275.099 157.628 275.104 157.63 275.11 157.635C275.116 157.639 275.124 157.645 275.13 157.65C275.136 157.654 275.139 157.658 275.143 157.662C275.146 157.666 275.149 157.67 275.151 157.673C275.153 157.676 275.154 157.677 275.155 157.679" stroke="black" stroke-width="0.5" stroke-linecap="round" stroke-linejoin="round"/>
<path d="M275.273 157.651C275.275 157.651 275.275 157.651 275.278 157.65C275.281 157.649 275.286 157.647 275.291 157.646C275.296 157.645 275.301 157.644 275.309 157.643C275.316 157.643 275.326 157.643 275.334 157.644C275.342 157.644 275.347 157.645 275.354 157.647C275.362 157.649 275.371 157.652 275.378 157.655C275.386 157.658 275.39 157.661 275.396 157.665C275.403 157.669 275.41 157.675 275.416 157.68C275.421 157.685 275.425 157.688 275.428 157.692C275.431 157.696 275.434 157.699 275.435 157.701C275.436 157.703 275.436 157.704 275.436 157.704" stroke="black" stroke-width="0.5" stroke-linecap="round" stroke-linejoin="round"/>
<path d="M275.453 158.123C275.453 158.124 275.453 158.125 275.453 158.126" stroke="black" stroke-width="0.5" stroke-linecap="round" stroke-linejoin="round"/>
<path d="M275.562 157.675C275.571 157.673 275.576 157.672 275.583 157.672C275.589 157.672 275.598 157.672 275.604 157.672C275.611 157.672 275.616 157.673 275.624 157.675C275.631 157.677 275.641 157.68 275.648 157.683C275.655 157.686 275.66 157.688 275.666 157.692C275.672 157.697 275.68 157.702 275.686 157.707C275.692 157.712 275.695 157.716 275.7 157.721C275.704 157.726 275.709 157.733 275.712 157.738C275.716 157.743 275.717 157.747 275.72 157.752C275.722 157.756 275.724 157.762 275.726 157.766C275.727 157.77 275.728 157.772 275.729 157.776C275.73 157.779 275.731 157.784 275.732 157.787C275.733 157.791 275.733 157.793 275.734 157.797C275.734 157.802 275.735 157.808 275.736 157.813C275.737 157.818 275.737 157.821 275.737 157.831C275.738 157.841 275.738 157.857 275.739 157.873C275.739 157.888 275.739 157.904 275.738 157.93C275.737 157.956 275.736 157.993 275.735 158.025C275.734 158.058 275.732 158.086 275.729 158.15" stroke="black" stroke-width="0.5" stroke-linecap="round" stroke-linejoin="round"/>
<path d="M275.093 160.127C275.093 160.127 275.093 160.127 275.092 160.126C275.091 160.124 275.09 160.121 275.088 160.118C275.087 160.115 275.086 160.112 275.085 160.109C275.083 160.105 275.082 160.101 275.081 160.097C275.08 160.094 275.079 160.091 275.078 160.086" stroke="black" stroke-width="0.5" stroke-linecap="round" stroke-linejoin="round"/>
<path d="M274.811 160.079C274.811 160.079 274.811 160.079 274.81 160.077C274.81 160.076 274.809 160.073 274.808 160.07C274.807 160.068 274.807 160.066 274.806 160.062C274.805 160.057 274.804 160.052 274.803 160.047C274.802 160.043 274.802 160.04 274.801 160.032C274.8 160.025 274.799 160.013 274.798 160.002C274.797 159.991 274.797 159.981 274.797 159.963C274.797 159.945 274.797 159.919 274.797 159.897C274.797 159.875 274.798 159.858 274.799 159.825C274.8 159.793 274.802 159.745 274.804 159.704C274.805 159.663 274.807 159.629 274.81 159.575C274.813 159.522 274.817 159.449 274.82 159.393C274.824 159.337 274.826 159.298 274.83 159.239C274.833 159.179 274.838 159.099 274.842 159.039C274.846 158.978 274.849 158.936 274.853 158.875C274.857 158.814 274.862 158.733 274.866 158.673C274.87 158.612 274.872 158.572 274.876 158.515C274.88 158.459 274.884 158.385 274.888 158.331C274.891 158.277 274.893 158.242 274.895 158.209C274.897 158.176 274.898 158.145 274.899 158.128C274.9 158.111 274.9 158.109 274.901 158.104" stroke="black" stroke-width="0.5" stroke-linecap="round" stroke-linejoin="round"/>
<path d="M275.266 160.29L275.348 159.497" stroke="black" stroke-width="0.5" stroke-linecap="round" stroke-linejoin="round"/>
<path d="M275.562 160.127L275.631 159.475" stroke="black" stroke-width="0.5" stroke-linecap="round" stroke-linejoin="round"/>
<path d="M275.773 168.031L275.835 167.904" stroke="black" stroke-width="0.5" stroke-linecap="round" stroke-linejoin="round"/>
<path d="M271.297 159.941C271.932 160.409 272.717 160.686 273.566 160.686C274.415 160.686 275.201 160.409 275.836 159.941" stroke="black" stroke-width="0.5" stroke-linecap="round" stroke-linejoin="round"/>
<path d="M271.297 167.904L271.358 168.031" stroke="black" stroke-width="0.5" stroke-linecap="round" stroke-linejoin="round"/>
<path d="M271.351 168.031L270.602 166.477" stroke="black" stroke-width="0.5" stroke-linecap="round" stroke-linejoin="round"/>
<path d="M276.531 166.477L275.781 168.031" stroke="black" stroke-width="0.5" stroke-linecap="round" stroke-linejoin="round"/>
<path d="M271.3 167.904C270.918 167.113 270.606 166.475 270.602 166.477" stroke="black" stroke-width="0.5" stroke-linecap="round" stroke-linejoin="round"/>
<path d="M276.534 166.477C276.53 166.475 276.218 167.113 275.836 167.904" stroke="black" stroke-width="0.5" stroke-linecap="round" stroke-linejoin="round"/>
<path d="M276.539 166.477V158.694" stroke="black" stroke-width="0.5" stroke-linecap="round" stroke-linejoin="round"/>
<path d="M276.43 159.719C276.497 159.422 276.535 159.07 276.535 158.694" stroke="black" stroke-width="0.5" stroke-linecap="round" stroke-linejoin="round"/>
<path d="M276.429 159.719C276.426 159.732 276.424 159.737 276.42 159.75C276.416 159.763 276.41 159.782 276.403 159.798C276.395 159.814 276.388 159.827 276.373 159.842C276.359 159.858 276.338 159.877 276.319 159.889C276.3 159.902 276.284 159.908 276.259 159.915C276.235 159.922 276.202 159.929 276.174 159.933C276.147 159.938 276.126 159.939 276.094 159.94C276.06 159.941 276.016 159.941 275.976 159.942C275.936 159.942 275.901 159.941 275.836 159.941" stroke="black" stroke-width="0.5" stroke-linecap="round" stroke-linejoin="round"/>
<path d="M271.296 159.941C271.231 159.941 271.196 159.942 271.156 159.942C271.116 159.941 271.071 159.941 271.038 159.94C271.005 159.939 270.984 159.938 270.957 159.933C270.93 159.929 270.897 159.922 270.872 159.915C270.847 159.908 270.831 159.902 270.813 159.889C270.794 159.877 270.773 159.858 270.759 159.842C270.744 159.827 270.736 159.814 270.729 159.798C270.722 159.782 270.716 159.763 270.711 159.75C270.707 159.737 270.706 159.732 270.703 159.719" stroke="black" stroke-width="0.5" stroke-linecap="round" stroke-linejoin="round"/>
<path d="M270.602 158.694C270.602 159.07 270.64 159.422 270.707 159.719" stroke="black" stroke-width="0.5" stroke-linecap="round" stroke-linejoin="round"/>
<path d="M270.602 158.694V166.477" stroke="black" stroke-width="0.5" stroke-linecap="round" stroke-linejoin="round"/>
<path d="M275.836 159.941V159.719" stroke="black" stroke-width="0.5" stroke-linecap="round" stroke-linejoin="round"/>
<path d="M270.602 158.694V158.487" stroke="black" stroke-width="0.5" stroke-linecap="round" stroke-linejoin="round"/>
<path d="M270.602 157.672V158.487" stroke="black" stroke-width="0.5" stroke-linecap="round" stroke-linejoin="round"/>
<path d="M271.297 158.487V159.719" stroke="black" stroke-width="0.5" stroke-linecap="round" stroke-linejoin="round"/>
<path d="M271.297 159.719V159.941" stroke="black" stroke-width="0.5" stroke-linecap="round" stroke-linejoin="round"/>
<path d="M276.539 158.487V158.694" stroke="black" stroke-width="0.5" stroke-linecap="round" stroke-linejoin="round"/>
<path d="M275.836 159.719V158.487" stroke="black" stroke-width="0.5" stroke-linecap="round" stroke-linejoin="round"/>
<path d="M276.539 158.487V157.672" stroke="black" stroke-width="0.5" stroke-linecap="round" stroke-linejoin="round"/>
<path d="M275.836 157.672V158.487" stroke="black" stroke-width="0.5" stroke-linecap="round" stroke-linejoin="round"/>
<path d="M271.297 158.487V157.672" stroke="black" stroke-width="0.5" stroke-linecap="round" stroke-linejoin="round"/>
<path d="M275.836 157.672H276.534" stroke="black" stroke-width="0.5" stroke-linecap="round" stroke-linejoin="round"/>
<path d="M270.602 157.672H271.3" stroke="black" stroke-width="0.5" stroke-linecap="round" stroke-linejoin="round"/>
<path d="M274.834 158.089L274.82 158.177" stroke="black" stroke-width="0.5" stroke-linecap="round" stroke-linejoin="round"/>
<path d="M276.75 158.138C276.685 158.091 276.614 158.052 276.539 158.021" stroke="black" stroke-width="0.5" stroke-linecap="round" stroke-linejoin="round"/>
<path d="M276.539 159.884C276.614 159.854 276.685 159.814 276.75 159.768" stroke="black" stroke-width="0.5" stroke-linecap="round" stroke-linejoin="round"/>
<path d="M271.297 158.429H271.393" stroke="black" stroke-width="0.5" stroke-linecap="round" stroke-linejoin="round"/>
<path d="M272.258 158.429H272.406" stroke="black" stroke-width="0.5" stroke-linecap="round" stroke-linejoin="round"/>
<path d="M274.734 158.429H274.882" stroke="black" stroke-width="0.5" stroke-linecap="round" stroke-linejoin="round"/>
<path d="M275.742 158.429H275.838" stroke="black" stroke-width="0.5" stroke-linecap="round" stroke-linejoin="round"/>
<path d="M271.297 159.476H271.424" stroke="black" stroke-width="0.5" stroke-linecap="round" stroke-linejoin="round"/>
<path d="M272.32 159.476H272.402" stroke="black" stroke-width="0.5" stroke-linecap="round" stroke-linejoin="round"/>
<path d="M274.734 159.476H274.816" stroke="black" stroke-width="0.5" stroke-linecap="round" stroke-linejoin="round"/>
<path d="M275.711 159.476H275.838" stroke="black" stroke-width="0.5" stroke-linecap="round" stroke-linejoin="round"/>
<path d="M270.422 159.789C270.478 159.826 270.539 159.858 270.602 159.884" stroke="black" stroke-width="0.5" stroke-linecap="round" stroke-linejoin="round"/>
<path d="M270.602 158.021C270.562 158.038 270.522 158.057 270.484 158.078" stroke="black" stroke-width="0.5" stroke-linecap="round" stroke-linejoin="round"/>
<path d="M272.156 157.628C272.16 157.627 272.162 157.627 272.165 157.627C272.167 157.626 272.17 157.626 272.172 157.626C272.175 157.625 272.177 157.625 272.181 157.625" stroke="black" stroke-width="0.5" stroke-linecap="round" stroke-linejoin="round"/>
<path d="M272.18 157.625C272.193 157.625 272.2 157.627 272.209 157.629C272.217 157.631 272.227 157.634 272.235 157.637C272.243 157.64 272.248 157.643 272.255 157.648C272.262 157.653 272.272 157.661 272.278 157.667C272.285 157.673 272.289 157.678 272.293 157.686C272.298 157.693 272.304 157.704 272.307 157.712C272.311 157.721 272.313 157.726 272.315 157.735C272.316 157.744 272.317 157.756 272.318 157.765C272.318 157.774 272.317 157.78 272.316 157.789C272.314 157.798 272.31 157.809 272.307 157.818C272.304 157.826 272.302 157.831 272.297 157.838C272.293 157.844 272.286 157.852 272.282 157.858C272.276 157.863 272.273 157.867 272.264 157.874" stroke="black" stroke-width="0.5" stroke-linecap="round" stroke-linejoin="round"/>
<path d="M271.453 159.802C271.453 159.803 271.453 159.804 271.453 159.804C271.459 159.847 271.499 159.879 271.552 159.887" stroke="black" stroke-width="0.5" stroke-linecap="round" stroke-linejoin="round"/>
<path d="M272.401 157.879C272.392 157.879 272.388 157.88 272.376 157.88C272.365 157.881 272.345 157.882 272.325 157.883C272.306 157.885 272.285 157.886 272.258 157.89" stroke="black" stroke-width="0.5" stroke-linecap="round" stroke-linejoin="round"/>
<path d="M272.156 157.627C272.157 157.627 272.158 157.626 272.161 157.626C272.165 157.625 272.171 157.623 272.176 157.622C272.181 157.621 272.186 157.62 272.199 157.618C272.212 157.617 272.234 157.614 272.261 157.611C272.288 157.608 272.32 157.606 272.407 157.602" stroke="black" stroke-width="0.5" stroke-linecap="round" stroke-linejoin="round"/>
<path d="M271.449 159.802C271.441 159.715 271.436 159.663 271.432 159.6C271.427 159.537 271.422 159.463 271.419 159.406C271.415 159.349 271.413 159.309 271.41 159.248C271.407 159.187 271.404 159.106 271.401 159.044C271.398 158.983 271.397 158.941 271.396 158.879C271.394 158.817 271.392 158.736 271.392 158.675C271.391 158.614 271.39 158.574 271.391 158.519C271.391 158.464 271.392 158.393 271.393 158.334C271.395 158.275 271.396 158.228 271.401 158.146" stroke="black" stroke-width="0.5" stroke-linecap="round" stroke-linejoin="round"/>
<path d="M271.57 157.676C271.584 157.672 271.591 157.671 271.6 157.67C271.61 157.669 271.621 157.668 271.631 157.669C271.64 157.669 271.647 157.67 271.655 157.673C271.664 157.675 271.675 157.679 271.683 157.683C271.692 157.687 271.698 157.69 271.709 157.698" stroke="black" stroke-width="0.5" stroke-linecap="round" stroke-linejoin="round"/>
<path d="M272.053 160.089C272.051 160.099 272.049 160.104 272.047 160.111C272.045 160.118 272.041 160.126 272.039 160.132C272.036 160.137 272.034 160.14 272.032 160.145C272.028 160.149 272.024 160.155 272.021 160.16C272.017 160.164 272.014 160.168 272.009 160.172C272.005 160.176 271.998 160.182 271.993 160.186C271.987 160.19 271.983 160.192 271.977 160.195C271.97 160.198 271.961 160.202 271.954 160.205C271.948 160.207 271.942 160.208 271.935 160.209C271.927 160.21 271.917 160.211 271.909 160.211C271.902 160.211 271.896 160.211 271.89 160.21C271.884 160.209 271.877 160.207 271.872 160.206C271.868 160.204 271.865 160.203 271.859 160.201" stroke="black" stroke-width="0.5" stroke-linecap="round" stroke-linejoin="round"/>
<path d="M271.68 158.177C271.681 158.154 271.682 158.132 271.683 158.111" stroke="black" stroke-width="0.5" stroke-linecap="round" stroke-linejoin="round"/>
<path d="M271.859 157.652C271.872 157.65 271.879 157.649 271.887 157.649C271.896 157.649 271.907 157.649 271.916 157.651C271.925 157.652 271.931 157.653 271.939 157.656C271.946 157.659 271.955 157.663 271.961 157.665C271.967 157.669 271.97 157.671 271.977 157.675" stroke="black" stroke-width="0.5" stroke-linecap="round" stroke-linejoin="round"/>
<path d="M271.953 158.18C271.954 158.164 271.954 158.156 271.955 158.145C271.955 158.135 271.956 158.123 271.957 158.112C271.957 158.101 271.958 158.091 271.959 158.071" stroke="black" stroke-width="0.5" stroke-linecap="round" stroke-linejoin="round"/>
<path d="M272.268 157.852C272.268 157.852 272.268 157.852 272.268 157.852C272.267 157.853 272.267 157.854 272.266 157.858C272.265 157.862 272.263 157.868 272.262 157.874C272.26 157.88 272.258 157.886 272.256 157.898C272.254 157.91 272.251 157.929 272.249 157.945C272.246 157.962 272.245 157.977 272.243 157.996C272.241 158.015 272.239 158.039 272.238 158.056C272.236 158.073 272.236 158.084 272.234 158.106" stroke="black" stroke-width="0.5" stroke-linecap="round" stroke-linejoin="round"/>
<path d="M271.95 158.243C271.948 158.296 271.948 158.325 271.947 158.366C271.946 158.407 271.946 158.461 271.946 158.507C271.945 158.553 271.945 158.59 271.946 158.647C271.947 158.705 271.948 158.781 271.95 158.84C271.951 158.899 271.952 158.939 271.955 158.998C271.957 159.058 271.96 159.136 271.963 159.194C271.966 159.252 271.968 159.291 271.971 159.346C271.975 159.401 271.979 159.471 271.983 159.523C271.986 159.575 271.989 159.608 271.993 159.652C271.997 159.697 272.002 159.752 272.006 159.792C272.01 159.832 272.012 159.855 272.015 159.88C272.018 159.904 272.022 159.93 272.024 159.946C272.026 159.962 272.027 159.969 272.028 159.977C272.03 159.985 272.032 159.995 272.033 160.002C272.034 160.009 272.035 160.012 272.035 160.014C272.036 160.016 272.036 160.018 272.036 160.018C272.036 160.019 272.036 160.019 272.036 160.019" stroke="black" stroke-width="0.5" stroke-linecap="round" stroke-linejoin="round"/>
<path d="M271.453 159.806L271.494 160.075" stroke="black" stroke-width="0.5" stroke-linecap="round" stroke-linejoin="round"/>
<path d="M274.958 157.625C274.945 157.625 274.938 157.627 274.93 157.629C274.921 157.631 274.911 157.634 274.903 157.637C274.895 157.64 274.89 157.643 274.883 157.648C274.876 157.653 274.867 157.661 274.86 157.667C274.853 157.673 274.85 157.678 274.845 157.686C274.84 157.693 274.835 157.704 274.831 157.712C274.827 157.721 274.825 157.726 274.823 157.735C274.822 157.744 274.821 157.756 274.82 157.765C274.82 157.774 274.821 157.78 274.822 157.789C274.825 157.798 274.828 157.809 274.831 157.818C274.834 157.826 274.837 157.831 274.841 157.838C274.846 157.844 274.852 157.852 274.857 157.858C274.862 157.863 274.866 157.867 274.874 157.874" stroke="black" stroke-width="0.5" stroke-linecap="round" stroke-linejoin="round"/>
<path d="M274.978 157.628C274.974 157.627 274.972 157.627 274.969 157.627C274.967 157.626 274.964 157.626 274.962 157.626C274.959 157.625 274.957 157.625 274.953 157.625" stroke="black" stroke-width="0.5" stroke-linecap="round" stroke-linejoin="round"/>
<path d="M274.878 157.89C274.866 157.888 274.859 157.888 274.849 157.886C274.839 157.886 274.826 157.885 274.815 157.884C274.805 157.883 274.797 157.882 274.786 157.882C274.776 157.881 274.764 157.881 274.756 157.88C274.748 157.88 274.743 157.879 274.734 157.879" stroke="black" stroke-width="0.5" stroke-linecap="round" stroke-linejoin="round"/>
<path d="M274.734 157.602C274.816 157.606 274.847 157.608 274.873 157.611C274.9 157.613 274.92 157.616 274.933 157.617C274.946 157.619 274.951 157.619 274.956 157.62C274.962 157.622 274.968 157.623 274.973 157.624C274.977 157.625 274.98 157.626 274.985 157.627" stroke="black" stroke-width="0.5" stroke-linecap="round" stroke-linejoin="round"/>
<path d="M275.586 159.887C275.639 159.879 275.68 159.847 275.685 159.804C275.685 159.804 275.685 159.803 275.685 159.802" stroke="black" stroke-width="0.5" stroke-linecap="round" stroke-linejoin="round"/>
<path d="M275.172 158.072C275.174 158.106 275.176 158.142 275.178 158.18" stroke="black" stroke-width="0.5" stroke-linecap="round" stroke-linejoin="round"/>
<path d="M275.156 157.675C275.165 157.669 275.17 157.667 275.178 157.663C275.186 157.66 275.197 157.656 275.206 157.653C275.216 157.65 275.224 157.649 275.233 157.648C275.243 157.648 275.253 157.649 275.259 157.65C275.265 157.651 275.269 157.651 275.274 157.652" stroke="black" stroke-width="0.5" stroke-linecap="round" stroke-linejoin="round"/>
<path d="M275.453 158.111C275.454 158.13 275.454 158.14 275.455 158.148C275.456 158.157 275.456 158.164 275.456 158.169C275.456 158.173 275.456 158.174 275.457 158.177" stroke="black" stroke-width="0.5" stroke-linecap="round" stroke-linejoin="round"/>
<path d="M275.271 160.201C275.269 160.202 275.267 160.203 275.263 160.204C275.26 160.205 275.254 160.207 275.249 160.208C275.244 160.21 275.239 160.21 275.231 160.211C275.223 160.211 275.213 160.211 275.206 160.211C275.198 160.21 275.192 160.209 275.185 160.207C275.178 160.205 275.168 160.202 275.161 160.199C275.154 160.196 275.149 160.193 275.143 160.189C275.137 160.185 275.129 160.179 275.124 160.174C275.118 160.169 275.115 160.166 275.111 160.16C275.107 160.155 275.102 160.149 275.099 160.144C275.095 160.139 275.094 160.136 275.092 160.131C275.09 160.127 275.087 160.122 275.086 160.118C275.085 160.114 275.084 160.112 275.083 160.108C275.082 160.105 275.081 160.102 275.08 160.099C275.08 160.096 275.079 160.093 275.078 160.089" stroke="black" stroke-width="0.5" stroke-linecap="round" stroke-linejoin="round"/>
<path d="M275.43 157.698C275.44 157.691 275.446 157.688 275.454 157.683C275.463 157.68 275.475 157.675 275.485 157.672C275.495 157.669 275.503 157.668 275.514 157.668C275.524 157.668 275.535 157.669 275.544 157.67C275.553 157.672 275.558 157.673 275.568 157.676" stroke="black" stroke-width="0.5" stroke-linecap="round" stroke-linejoin="round"/>
<path d="M275.736 158.146C275.737 158.162 275.737 158.171 275.738 158.196C275.739 158.22 275.741 158.261 275.743 158.3C275.744 158.34 275.745 158.379 275.745 158.44C275.745 158.5 275.745 158.581 275.745 158.642C275.745 158.704 275.744 158.746 275.743 158.809C275.741 158.872 275.738 158.955 275.736 159.018C275.734 159.081 275.733 159.123 275.73 159.183C275.727 159.244 275.723 159.323 275.719 159.382C275.716 159.44 275.714 159.478 275.71 159.525C275.707 159.572 275.703 159.628 275.699 159.672C275.695 159.715 275.693 159.746 275.688 159.802" stroke="black" stroke-width="0.5" stroke-linecap="round" stroke-linejoin="round"/>
<path d="M274.901 158.106C274.898 158.062 274.897 158.042 274.895 158.021C274.893 158 274.89 157.978 274.889 157.963C274.887 157.948 274.886 157.939 274.884 157.928C274.882 157.917 274.88 157.903 274.878 157.894C274.876 157.884 274.875 157.879 274.874 157.873C274.872 157.868 274.871 157.862 274.869 157.858C274.868 157.854 274.867 157.852 274.867 157.852" stroke="black" stroke-width="0.5" stroke-linecap="round" stroke-linejoin="round"/>
<path d="M275.641 160.075L275.682 159.806" stroke="black" stroke-width="0.5" stroke-linecap="round" stroke-linejoin="round"/>
<path d="M277.469 158.231V159.674" stroke="black" stroke-width="0.5" stroke-linecap="round" stroke-linejoin="round"/>
<path d="M277.468 158.231C277.468 158.179 277.426 158.138 277.375 158.138" stroke="black" stroke-width="0.5" stroke-linecap="round" stroke-linejoin="round"/>
<path d="M277.375 159.767C277.426 159.767 277.468 159.726 277.468 159.674" stroke="black" stroke-width="0.5" stroke-linecap="round" stroke-linejoin="round"/>
<path d="M277.377 159.768H276.75" stroke="black" stroke-width="0.5" stroke-linecap="round" stroke-linejoin="round"/>
<path d="M277.377 158.138H276.75" stroke="black" stroke-width="0.5" stroke-linecap="round" stroke-linejoin="round"/>
<path d="M269.438 159.639V158.266" stroke="black" stroke-width="0.5" stroke-linecap="round" stroke-linejoin="round"/>
<path d="M270.071 159.641L270.003 159.694C269.957 159.729 269.957 159.764 270.003 159.8L270.071 159.853M270.071 159.641V159.853M270.071 159.641C269.935 159.747 269.935 159.747 270.071 159.853" stroke="black" stroke-width="0.5" stroke-linecap="round" stroke-linejoin="round"/>
<path d="M270.071 158.741L270.003 158.966C269.957 159.116 269.957 159.266 270.003 159.416L270.071 159.641M270.071 158.741V159.641M270.071 158.741C269.935 159.191 269.935 159.191 270.071 159.641" stroke="black" stroke-width="0.5" stroke-linecap="round" stroke-linejoin="round"/>
<path d="M270.071 158.053L270.003 158.225C269.957 158.34 269.957 158.455 270.003 158.569L270.071 158.741M270.071 158.053V158.741M270.071 158.053C269.935 158.397 269.935 158.397 270.071 158.741" stroke="black" stroke-width="0.5" stroke-linecap="round" stroke-linejoin="round"/>
<path d="M270.008 158.117L270.016 158.102C270.022 158.092 270.032 158.081 270.046 158.07L270.068 158.053M270.008 158.117L270.068 158.053M270.008 158.117C270.025 158.087 270.025 158.087 270.068 158.053" stroke="black" stroke-width="0.5" stroke-linecap="round" stroke-linejoin="round"/>
<path d="M269.922 159.639V158.266" stroke="black" stroke-width="0.5" stroke-linecap="round" stroke-linejoin="round"/>
<path d="M270.453 159.641L270.463 159.606C270.471 159.582 270.477 159.56 270.482 159.538L270.489 159.505M270.453 159.641L270.489 159.505M270.453 159.641C270.474 159.571 270.474 159.571 270.489 159.505" stroke="black" stroke-width="0.5" stroke-linecap="round" stroke-linejoin="round"/>
<path d="M270.489 158.877L270.482 158.845C270.477 158.822 270.471 158.8 270.463 158.776L270.453 158.741M270.489 158.877L270.453 158.741M270.489 158.877C270.474 158.811 270.474 158.811 270.453 158.741" stroke="black" stroke-width="0.5" stroke-linecap="round" stroke-linejoin="round"/>
<path d="M270.453 159.852L270.461 159.846C270.467 159.841 270.472 159.837 270.476 159.833L270.482 159.827M270.453 159.852L270.482 159.827M270.453 159.852C270.47 159.839 270.47 159.839 270.482 159.827" stroke="black" stroke-width="0.5" stroke-linecap="round" stroke-linejoin="round"/>
<path d="M270.489 159.673L270.482 159.665C270.477 159.66 270.471 159.655 270.463 159.649L270.453 159.641M270.489 159.673L270.453 159.641M270.489 159.673C270.474 159.658 270.474 159.658 270.453 159.641" stroke="black" stroke-width="0.5" stroke-linecap="round" stroke-linejoin="round"/>
<path d="M270.453 158.053L270.463 158.061C270.471 158.067 270.477 158.072 270.482 158.077L270.489 158.085M270.453 158.053L270.489 158.085M270.453 158.053C270.474 158.069 270.474 158.069 270.489 158.085" stroke="black" stroke-width="0.5" stroke-linecap="round" stroke-linejoin="round"/>
<path d="M270.453 158.741L270.463 158.714C270.471 158.697 270.477 158.679 270.482 158.662L270.489 158.638M270.453 158.741L270.489 158.638M270.453 158.741C270.474 158.688 270.474 158.688 270.489 158.638" stroke="black" stroke-width="0.5" stroke-linecap="round" stroke-linejoin="round"/>
<path d="M270.489 158.157L270.482 158.132C270.477 158.115 270.471 158.098 270.463 158.08L270.453 158.053M270.489 158.157L270.453 158.053M270.489 158.157C270.474 158.107 270.474 158.107 270.453 158.053" stroke="black" stroke-width="0.5" stroke-linecap="round" stroke-linejoin="round"/>
<path d="M270.452 158.053H270.07" stroke="black" stroke-width="0.5" stroke-linecap="round" stroke-linejoin="round"/>
<path d="M270.452 158.741H270.07" stroke="black" stroke-width="0.5" stroke-linecap="round" stroke-linejoin="round"/>
<path d="M270.452 159.641H270.07" stroke="black" stroke-width="0.5" stroke-linecap="round" stroke-linejoin="round"/>
<path d="M270.452 159.853H270.07" stroke="black" stroke-width="0.5" stroke-linecap="round" stroke-linejoin="round"/>
<path d="M269.922 158.266L270.008 158.117" stroke="black" stroke-width="0.5" stroke-linecap="round" stroke-linejoin="round"/>
<path d="M269.922 159.639L270.008 159.789" stroke="black" stroke-width="0.5" stroke-linecap="round" stroke-linejoin="round"/>
<path d="M269.926 159.639H269.438" stroke="black" stroke-width="0.5" stroke-linecap="round" stroke-linejoin="round"/>
<path d="M269.926 158.266H269.438" stroke="black" stroke-width="0.5" stroke-linecap="round" stroke-linejoin="round"/>
<path d="M270.602 157.672V158.487" stroke="black" stroke-width="0.5" stroke-linecap="round" stroke-linejoin="round"/>
<path d="M276.539 158.487V157.672" stroke="black" stroke-width="0.5" stroke-linecap="round" stroke-linejoin="round"/>
<path d="M275.836 157.672V158.487" stroke="black" stroke-width="0.5" stroke-linecap="round" stroke-linejoin="round"/>
<path d="M271.297 158.487V157.672" stroke="black" stroke-width="0.5" stroke-linecap="round" stroke-linejoin="round"/>
<path d="M275.836 157.672H276.534" stroke="black" stroke-width="0.5" stroke-linecap="round" stroke-linejoin="round"/>
<path d="M270.602 157.672H271.3" stroke="black" stroke-width="0.5" stroke-linecap="round" stroke-linejoin="round"/>
<path d="M270.836 131.289C270.833 131.315 270.831 131.342 270.828 131.368" stroke="black" stroke-width="0.5" stroke-linecap="round" stroke-linejoin="round"/>
<path d="M276.294 131.287C276.285 131.209 276.273 131.132 276.258 131.056" stroke="black" stroke-width="0.5" stroke-linecap="round" stroke-linejoin="round"/>
<path d="M274.663 131.361C274.646 131.281 274.62 131.204 274.586 131.131" stroke="black" stroke-width="0.5" stroke-linecap="round" stroke-linejoin="round"/>
<path d="M272.522 131.212C272.503 131.263 272.488 131.315 272.477 131.368" stroke="black" stroke-width="0.5" stroke-linecap="round" stroke-linejoin="round"/>
<path d="M274.375 131.368C274.377 131.345 274.378 131.322 274.378 131.298" stroke="black" stroke-width="0.5" stroke-linecap="round" stroke-linejoin="round"/>
<path d="M272.75 131.298C272.75 131.322 272.751 131.345 272.753 131.368" stroke="black" stroke-width="0.5" stroke-linecap="round" stroke-linejoin="round"/>
<path d="M272.75 131.203V131.298" stroke="black" stroke-width="0.5" stroke-linecap="round" stroke-linejoin="round"/>
<path d="M274.383 131.299V131.14" stroke="black" stroke-width="0.5" stroke-linecap="round" stroke-linejoin="round"/>
<path d="M272.75 126.48V126.713" stroke="black" stroke-width="0.5" stroke-linecap="round" stroke-linejoin="round"/>
<path d="M274.383 126.713V126.48" stroke="black" stroke-width="0.5" stroke-linecap="round" stroke-linejoin="round"/>
<path d="M272.75 127.098V126.713" stroke="black" stroke-width="0.5" stroke-linecap="round" stroke-linejoin="round"/>
<path d="M274.383 127.098V126.713" stroke="black" stroke-width="0.5" stroke-linecap="round" stroke-linejoin="round"/>
<path d="M268.719 131.368H278.423" stroke="black" stroke-width="0.5" stroke-linecap="round" stroke-linejoin="round"/>
<path d="M268.713 131.368C268.456 131.368 268.223 131.473 268.055 131.641" stroke="black" stroke-width="0.5" stroke-linecap="round" stroke-linejoin="round"/>
<path d="M279.08 131.641C278.912 131.473 278.679 131.368 278.422 131.368" stroke="black" stroke-width="0.5" stroke-linecap="round" stroke-linejoin="round"/>
<path d="M265.812 133.889C265.643 134.058 265.539 134.29 265.539 134.548" stroke="black" stroke-width="0.5" stroke-linecap="round" stroke-linejoin="round"/>
<path d="M281.601 134.548C281.601 134.29 281.497 134.058 281.328 133.889" stroke="black" stroke-width="0.5" stroke-linecap="round" stroke-linejoin="round"/>
<path d="M281.594 134.548V140.678" stroke="black" stroke-width="0.5" stroke-linecap="round" stroke-linejoin="round"/>
<path d="M281.594 140.677V154.762" stroke="black" stroke-width="0.5" stroke-linecap="round" stroke-linejoin="round"/>
<path d="M265.539 134.548V154.763" stroke="black" stroke-width="0.5" stroke-linecap="round" stroke-linejoin="round"/>
<path d="M279.078 131.641L281.326 133.889" stroke="black" stroke-width="0.5" stroke-linecap="round" stroke-linejoin="round"/>
<path d="M268.06 131.641L265.812 133.889" stroke="black" stroke-width="0.5" stroke-linecap="round" stroke-linejoin="round"/>
<path d="M265.539 154.763C265.539 155.084 265.8 155.345 266.121 155.345" stroke="black" stroke-width="0.5" stroke-linecap="round" stroke-linejoin="round"/>
<path d="M281.016 155.345C281.337 155.345 281.598 155.084 281.598 154.763" stroke="black" stroke-width="0.5" stroke-linecap="round" stroke-linejoin="round"/>
<path d="M266.117 155.345H281.015" stroke="black" stroke-width="0.5" stroke-linecap="round" stroke-linejoin="round"/>
<path d="M268.719 131.368H278.423" stroke="black" stroke-width="0.5" stroke-linecap="round" stroke-linejoin="round"/>
<path d="M268.713 131.368C268.456 131.368 268.223 131.473 268.055 131.641" stroke="black" stroke-width="0.5" stroke-linecap="round" stroke-linejoin="round"/>
<path d="M279.08 131.641C278.912 131.473 278.679 131.368 278.422 131.368" stroke="black" stroke-width="0.5" stroke-linecap="round" stroke-linejoin="round"/>
<path d="M265.812 133.889C265.643 134.058 265.539 134.29 265.539 134.548" stroke="black" stroke-width="0.5" stroke-linecap="round" stroke-linejoin="round"/>
<path d="M281.601 134.548C281.601 134.29 281.497 134.058 281.328 133.889" stroke="black" stroke-width="0.5" stroke-linecap="round" stroke-linejoin="round"/>
<path d="M281.594 134.548V140.678" stroke="black" stroke-width="0.5" stroke-linecap="round" stroke-linejoin="round"/>
<path d="M281.594 140.677V154.762" stroke="black" stroke-width="0.5" stroke-linecap="round" stroke-linejoin="round"/>
<path d="M265.539 134.548V154.763" stroke="black" stroke-width="0.5" stroke-linecap="round" stroke-linejoin="round"/>
<path d="M279.078 131.641L281.326 133.889" stroke="black" stroke-width="0.5" stroke-linecap="round" stroke-linejoin="round"/>
<path d="M268.06 131.641L265.812 133.889" stroke="black" stroke-width="0.5" stroke-linecap="round" stroke-linejoin="round"/>
<path d="M265.539 154.763C265.539 155.084 265.8 155.345 266.121 155.345" stroke="black" stroke-width="0.5" stroke-linecap="round" stroke-linejoin="round"/>
<path d="M281.016 155.345C281.337 155.345 281.598 155.084 281.598 154.763" stroke="black" stroke-width="0.5" stroke-linecap="round" stroke-linejoin="round"/>
<path d="M266.117 155.345H281.015" stroke="black" stroke-width="0.5" stroke-linecap="round" stroke-linejoin="round"/>
<path d="M266.586 127.098H280.553" stroke="black" stroke-width="0.5" stroke-linecap="round" stroke-linejoin="round"/>
<path d="M266.586 130.589H280.553" stroke="black" stroke-width="0.5" stroke-linecap="round" stroke-linejoin="round"/>
<path d="M266.586 130.589V127.098" stroke="black" stroke-width="0.5" stroke-linecap="round" stroke-linejoin="round"/>
<path d="M280.547 130.589V127.098" stroke="black" stroke-width="0.5" stroke-linecap="round" stroke-linejoin="round"/>
<path d="M279.141 126.963C279.613 126.68 279.978 126.36 280.208 126.015" stroke="black" stroke-width="0.5" stroke-linecap="round" stroke-linejoin="round"/>
<path d="M266.797 126.015C267.005 126.328 267.325 126.621 267.736 126.884" stroke="black" stroke-width="0.5" stroke-linecap="round" stroke-linejoin="round"/>
<path d="M277.727 130.734C277.835 130.698 277.942 130.66 278.045 130.621" stroke="black" stroke-width="0.5" stroke-linecap="round" stroke-linejoin="round"/>
<path d="M276.477 131.066C276.524 131.056 276.572 131.046 276.618 131.036" stroke="black" stroke-width="0.5" stroke-linecap="round" stroke-linejoin="round"/>
<path d="M268.961 130.621C269.129 130.684 269.303 130.744 269.484 130.799" stroke="black" stroke-width="0.5" stroke-linecap="round" stroke-linejoin="round"/>
<path d="M266.523 127.877V126.015" stroke="black" stroke-width="0.5" stroke-linecap="round" stroke-linejoin="round"/>
<path d="M280.484 127.098V126.015" stroke="black" stroke-width="0.5" stroke-linecap="round" stroke-linejoin="round"/>
<path d="M274.477 131.368C274.692 131.36 274.798 131.355 274.947 131.349C275.095 131.343 275.286 131.335 275.44 131.328C275.594 131.321 275.711 131.316 275.869 131.308C276.027 131.3 276.227 131.29 276.37 131.282C276.513 131.274 276.598 131.269 276.706 131.261C276.814 131.254 276.943 131.244 277.031 131.236C277.12 131.228 277.167 131.222 277.2 131.217C277.233 131.213 277.251 131.209 277.262 131.207C277.272 131.205 277.274 131.205 277.274 131.205" stroke="black" stroke-width="0.5" stroke-linecap="round" stroke-linejoin="round"/>
<path d="M269.562 131.369C269.546 131.36 269.539 131.355 269.529 131.348C269.52 131.341 269.51 131.333 269.502 131.327C269.495 131.321 269.49 131.317 269.481 131.308C269.473 131.299 269.461 131.286 269.451 131.275C269.442 131.263 269.435 131.253 269.426 131.237C269.417 131.22 269.406 131.198 269.398 131.181C269.391 131.163 269.387 131.151 269.384 131.131C269.38 131.112 269.377 131.086 269.376 131.066C269.374 131.046 269.375 131.032 269.378 131.012C269.381 130.992 269.387 130.966 269.392 130.947C269.398 130.927 269.403 130.915 269.412 130.898C269.421 130.881 269.434 130.86 269.445 130.844C269.456 130.829 269.463 130.819 269.475 130.808C269.487 130.796 269.503 130.782 269.514 130.773C269.526 130.763 269.533 130.758 269.544 130.752C269.554 130.745 269.568 130.738 269.578 130.732C269.588 130.727 269.594 130.724 269.604 130.721C269.614 130.716 269.628 130.711 269.639 130.707C269.649 130.703 269.656 130.701 269.673 130.697C269.689 130.693 269.715 130.686 269.737 130.682C269.759 130.677 269.777 130.674 269.814 130.67C269.851 130.665 269.906 130.658 269.955 130.652C270.003 130.647 270.045 130.643 270.119 130.637C270.193 130.631 270.3 130.623 270.405 130.616C270.51 130.608 270.613 130.602 270.845 130.589" stroke="black" stroke-width="0.5" stroke-linecap="round" stroke-linejoin="round"/>
<path d="M277.759 130.589C277.758 130.615 277.757 130.628 277.754 130.645C277.751 130.662 277.746 130.683 277.741 130.7C277.736 130.717 277.731 130.729 277.722 130.746C277.713 130.763 277.7 130.785 277.689 130.8C277.679 130.816 277.671 130.825 277.659 130.837C277.647 130.848 277.631 130.862 277.62 130.872C277.608 130.881 277.601 130.886 277.59 130.893C277.58 130.899 277.566 130.907 277.556 130.912C277.546 130.917 277.54 130.92 277.53 130.924C277.52 130.928 277.506 130.934 277.495 130.937C277.485 130.941 277.478 130.943 277.461 130.947C277.445 130.952 277.419 130.958 277.397 130.963C277.375 130.967 277.357 130.97 277.321 130.975C277.284 130.98 277.228 130.987 277.179 130.992C277.131 130.998 277.089 131.002 277.003 131.008C276.917 131.015 276.786 131.025 276.667 131.033C276.549 131.041 276.444 131.047 276.275 131.056C276.107 131.065 275.877 131.076 275.699 131.084C275.521 131.093 275.396 131.098 275.204 131.106C275.012 131.114 274.752 131.125 274.553 131.133C274.354 131.141 274.215 131.146 274.01 131.154C273.804 131.162 273.531 131.173 273.325 131.181C273.119 131.189 272.98 131.194 272.781 131.202C272.582 131.21 272.322 131.22 272.129 131.228C271.937 131.236 271.812 131.242 271.639 131.249C271.466 131.257 271.246 131.268 271.086 131.276C270.927 131.284 270.828 131.289 270.7 131.297C270.572 131.304 270.415 131.315 270.305 131.322C270.195 131.33 270.133 131.336 270.077 131.341C270.02 131.347 269.968 131.353 269.934 131.358C269.9 131.363 269.883 131.365 269.867 131.369" stroke="black" stroke-width="0.5" stroke-linecap="round" stroke-linejoin="round"/>
<path d="M276.289 131.055C276.391 131.06 276.44 131.063 276.522 131.068C276.605 131.073 276.723 131.08 276.817 131.087C276.911 131.093 276.981 131.098 277.056 131.105C277.13 131.112 277.208 131.121 277.258 131.127C277.308 131.133 277.33 131.135 277.354 131.14C277.378 131.144 277.405 131.149 277.422 131.153C277.439 131.157 277.446 131.158 277.457 131.161C277.467 131.164 277.481 131.168 277.491 131.171C277.502 131.174 277.508 131.177 277.518 131.18C277.527 131.184 277.54 131.19 277.548 131.194C277.557 131.198 277.562 131.2 277.569 131.205C277.577 131.209 277.587 131.215 277.595 131.22C277.603 131.225 277.609 131.229 277.618 131.237C277.628 131.245 277.642 131.256 277.653 131.267C277.664 131.277 277.673 131.287 277.682 131.299C277.691 131.311 277.701 131.326 277.707 131.337C277.714 131.348 277.718 131.355 277.724 131.368" stroke="black" stroke-width="0.5" stroke-linecap="round" stroke-linejoin="round"/>
<path d="M272.144 126.632H271.445" stroke="black" stroke-width="0.5" stroke-linecap="round" stroke-linejoin="round"/>
<path d="M272.148 126.48V126.632" stroke="black" stroke-width="0.5" stroke-linecap="round" stroke-linejoin="round"/>
<path d="M271.445 126.48V126.632" stroke="black" stroke-width="0.5" stroke-linecap="round" stroke-linejoin="round"/>
<path d="M226.023 79.4585H226.432" stroke="black" stroke-width="0.5" stroke-linecap="round" stroke-linejoin="round"/>
<path d="M226.023 79.1094H227.392" stroke="black" stroke-width="0.5" stroke-linecap="round" stroke-linejoin="round"/>
<path d="M181.002 103.3L180.859 103.157" stroke="black" stroke-width="0.5" stroke-linecap="round" stroke-linejoin="round"/>
<path d="M180.731 103.022L180.039 102.33" stroke="black" stroke-width="0.5" stroke-linecap="round" stroke-linejoin="round"/>
<path d="M179.617 101.912L180.036 102.33" stroke="black" stroke-width="0.5" stroke-linecap="round" stroke-linejoin="round"/>
<path d="M179.71 102.006C179.665 101.96 179.591 101.96 179.546 102.006C179.531 102.021 179.521 102.039 179.516 102.058" stroke="black" stroke-width="0.5" stroke-linecap="round" stroke-linejoin="round"/>
<path d="M179.352 102.677L179.517 102.058" stroke="black" stroke-width="0.5" stroke-linecap="round" stroke-linejoin="round"/>
<path d="M178.977 103.052L179.351 102.677" stroke="black" stroke-width="0.5" stroke-linecap="round" stroke-linejoin="round"/>
<path d="M178.977 103.052C179.09 103.458 179.337 103.809 179.668 104.052" stroke="black" stroke-width="0.5" stroke-linecap="round" stroke-linejoin="round"/>
<path d="M179.712 104.088L179.702 104.079C179.696 104.074 179.689 104.068 179.682 104.063L179.672 104.055M179.712 104.088L179.672 104.055M179.712 104.088C179.693 104.071 179.693 104.071 179.672 104.055" stroke="black" stroke-width="0.5" stroke-linecap="round" stroke-linejoin="round"/>
<path d="M180.237 103.563L179.711 104.089" stroke="black" stroke-width="0.5" stroke-linecap="round" stroke-linejoin="round"/>
<path d="M180.914 103.358C180.921 103.349 180.927 103.339 180.931 103.329" stroke="black" stroke-width="0.5" stroke-linecap="round" stroke-linejoin="round"/>
<path d="M180.296 103.667C180.183 103.777 180.132 103.826 180.071 103.884C180.01 103.942 179.94 104.008 179.886 104.057C179.832 104.107 179.795 104.139 179.789 104.135" stroke="black" stroke-width="0.5" stroke-linecap="round" stroke-linejoin="round"/>
<path d="M180.289 104.351C180.113 104.304 179.944 104.231 179.789 104.135" stroke="black" stroke-width="0.5" stroke-linecap="round" stroke-linejoin="round"/>
<path d="M180.287 104.351L180.275 104.348C180.267 104.346 180.294 104.225 180.355 103.986L180.446 103.627M180.287 104.351L180.446 103.627M180.287 104.351C180.263 104.345 180.263 104.345 180.446 103.627" stroke="black" stroke-width="0.5" stroke-linecap="round" stroke-linejoin="round"/>
<path d="M178.906 102.552C178.906 102.755 178.928 102.886 178.954 102.991C178.981 103.097 178.935 102.929 178.966 103.033C178.997 103.137 179.044 103.259 179.068 103.311" stroke="black" stroke-width="0.5" stroke-linecap="round" stroke-linejoin="round"/>
<path d="M179.227 103.589C179.249 103.622 179.272 103.655 179.292 103.681C179.312 103.707 179.28 103.665 179.3 103.692C179.32 103.718 179.346 103.748 179.372 103.779" stroke="black" stroke-width="0.5" stroke-linecap="round" stroke-linejoin="round"/>
<path d="M179.602 103.999C179.625 104.018 179.65 104.037 179.674 104.055" stroke="black" stroke-width="0.5" stroke-linecap="round" stroke-linejoin="round"/>
<path d="M179.711 104.085C179.718 104.091 179.806 104.15 179.883 104.195C179.959 104.239 179.835 104.17 179.914 104.212C179.992 104.254 180.09 104.299 180.286 104.351" stroke="black" stroke-width="0.5" stroke-linecap="round" stroke-linejoin="round"/>
<path d="M178.906 92.4692C178.906 92.266 178.94 92.0629 179.005 91.8704C179.07 91.6783 179.167 91.4968 179.291 91.3357C179.415 91.1745 179.565 91.0337 179.734 90.9207C179.903 90.8078 180.09 90.7231 180.287 90.6704" stroke="black" stroke-width="0.5" stroke-linecap="round" stroke-linejoin="round"/>
<path d="M178.906 94.5386C178.906 94.6519 178.913 94.7114 178.93 94.8158C178.947 94.9201 178.974 95.0699 179.009 95.208C179.045 95.346 179.089 95.4728 179.157 95.6453C179.225 95.8178 179.317 96.0357 179.38 96.1824C179.443 96.3288 179.477 96.4038 179.531 96.5219C179.584 96.6404 179.657 96.8022 179.711 96.921C179.764 97.0401 179.799 97.1162 179.824 97.1913C179.849 97.2667 179.865 97.3407 179.873 97.3852C179.882 97.4296 179.883 97.4444 179.884 97.4599C179.885 97.4754 179.886 97.4912 179.886 97.4998C179.886 97.5081 179.886 97.5091 179.886 97.5108" stroke="black" stroke-width="0.5" stroke-linecap="round" stroke-linejoin="round"/>
<path d="M178.906 97.5108V94.5386" stroke="black" stroke-width="0.5" stroke-linecap="round" stroke-linejoin="round"/>
<path d="M179.886 97.5107C179.886 97.5486 179.884 97.5672 179.879 97.6023C179.873 97.6375 179.865 97.6888 179.852 97.7359C179.84 97.7828 179.824 97.8255 179.796 97.8923C179.769 97.9591 179.731 98.0507 179.7 98.1212C179.669 98.1922 179.647 98.2428 179.6 98.3457C179.553 98.4487 179.483 98.6043 179.426 98.7314C179.37 98.8581 179.326 98.9562 179.261 99.1219C179.195 99.2871 179.107 99.5196 179.047 99.6941C178.988 99.8691 178.956 99.9854 178.938 100.098C178.919 100.21 178.913 100.317 178.91 100.378C178.907 100.439 178.906 100.454 178.906 100.483" stroke="black" stroke-width="0.5" stroke-linecap="round" stroke-linejoin="round"/>
<path d="M178.906 100.483V97.5107" stroke="black" stroke-width="0.5" stroke-linecap="round" stroke-linejoin="round"/>
<path d="M178.906 94.5386V92.4692" stroke="black" stroke-width="0.5" stroke-linecap="round" stroke-linejoin="round"/>
<path d="M178.906 102.552V100.483" stroke="black" stroke-width="0.5" stroke-linecap="round" stroke-linejoin="round"/>
<path d="M179.25 102.621L179.348 102.677" stroke="black" stroke-width="0.5" stroke-linecap="round" stroke-linejoin="round"/>
<path d="M178.953 102.952C178.951 102.942 179.067 102.814 179.254 102.621" stroke="black" stroke-width="0.5" stroke-linecap="round" stroke-linejoin="round"/>
<path d="M179.25 102.621C179.256 102.598 179.262 102.575 179.268 102.552" stroke="black" stroke-width="0.5" stroke-linecap="round" stroke-linejoin="round"/>
<path d="M178.95 102.952C178.921 102.821 178.906 102.687 178.906 102.552" stroke="black" stroke-width="0.5" stroke-linecap="round" stroke-linejoin="round"/>
<path d="M179.427 101.965C179.372 102.174 179.321 102.37 179.273 102.552" stroke="black" stroke-width="0.5" stroke-linecap="round" stroke-linejoin="round"/>
<path d="M179.422 101.965C179.423 101.961 179.424 101.958 179.426 101.954C179.427 101.95 179.43 101.944 179.432 101.938C179.435 101.933 179.438 101.929 179.442 101.924C179.447 101.918 179.453 101.911 179.459 101.906C179.464 101.901 179.469 101.897 179.476 101.894C179.483 101.89 179.493 101.885 179.5 101.883C179.507 101.88 179.513 101.879 179.52 101.878C179.528 101.878 179.537 101.878 179.545 101.878C179.552 101.879 179.557 101.88 179.565 101.882C179.572 101.884 179.582 101.888 179.589 101.892C179.597 101.896 179.604 101.901 179.614 101.911" stroke="black" stroke-width="0.5" stroke-linecap="round" stroke-linejoin="round"/>
<path d="M181.037 103.356C181.038 103.36 181.038 103.362 181.038 103.366C181.039 103.37 181.04 103.376 181.04 103.382C181.04 103.387 181.04 103.393 181.038 103.4C181.037 103.407 181.034 103.417 181.032 103.424C181.03 103.431 181.027 103.436 181.023 103.442C181.019 103.449 181.012 103.457 181.007 103.462C181.002 103.468 180.998 103.472 180.992 103.476C180.987 103.479 180.98 103.483 180.974 103.486C180.968 103.489 180.963 103.491 180.953 103.494" stroke="black" stroke-width="0.5" stroke-linecap="round" stroke-linejoin="round"/>
<path d="M181.039 103.356C181.034 103.335 181.024 103.315 181.008 103.299" stroke="black" stroke-width="0.5" stroke-linecap="round" stroke-linejoin="round"/>
<path d="M182.729 103.809L181.039 103.356" stroke="black" stroke-width="0.5" stroke-linecap="round" stroke-linejoin="round"/>
<path d="M182.211 104.867C182.379 104.912 182.55 104.958 182.721 105.004" stroke="black" stroke-width="0.5" stroke-linecap="round" stroke-linejoin="round"/>
<path d="M182.216 104.868L180.289 104.351" stroke="black" stroke-width="0.5" stroke-linecap="round" stroke-linejoin="round"/>
<path d="M179.734 104.098C179.782 104.13 179.838 104.165 179.903 104.2C179.968 104.233 180.041 104.265 180.108 104.291C180.176 104.317 180.238 104.337 180.292 104.351" stroke="black" stroke-width="0.5" stroke-linecap="round" stroke-linejoin="round"/>
<path d="M179.732 104.098C179.726 104.094 179.716 104.094 179.711 104.089" stroke="black" stroke-width="0.5" stroke-linecap="round" stroke-linejoin="round"/>
<path d="M179.785 104.135C179.776 104.129 179.766 104.123 179.758 104.118" stroke="black" stroke-width="0.5" stroke-linecap="round" stroke-linejoin="round"/>
<path d="M182.725 107.776L179.227 106.838" stroke="black" stroke-width="0.5" stroke-linecap="round" stroke-linejoin="round"/>
<path d="M179.84 104.548L179.227 106.838" stroke="black" stroke-width="0.5" stroke-linecap="round" stroke-linejoin="round"/>
<path d="M179.841 104.548C179.854 104.5 179.857 104.474 179.857 104.445C179.857 104.415 179.855 104.381 179.852 104.356C179.849 104.331 179.845 104.314 179.837 104.29C179.829 104.266 179.816 104.235 179.805 104.212C179.794 104.189 179.785 104.175 179.773 104.159C179.761 104.144 179.747 104.127 179.737 104.116C179.727 104.105 179.722 104.1 179.711 104.089" stroke="black" stroke-width="0.5" stroke-linecap="round" stroke-linejoin="round"/>
<path d="M180.727 103.022L180.861 103.157" stroke="black" stroke-width="0.5" stroke-linecap="round" stroke-linejoin="round"/>
<path d="M180.237 103.563L179.859 102.153" stroke="black" stroke-width="0.5" stroke-linecap="round" stroke-linejoin="round"/>
<path d="M180.95 103.494L180.859 103.157" stroke="black" stroke-width="0.5" stroke-linecap="round" stroke-linejoin="round"/>
<path d="M180.445 103.627C180.606 103.585 180.775 103.54 180.95 103.494" stroke="black" stroke-width="0.5" stroke-linecap="round" stroke-linejoin="round"/>
<path d="M180.3 103.666L179.906 102.197" stroke="black" stroke-width="0.5" stroke-linecap="round" stroke-linejoin="round"/>
<path d="M180.449 103.627C180.398 103.64 180.347 103.653 180.297 103.667" stroke="black" stroke-width="0.5" stroke-linecap="round" stroke-linejoin="round"/>
<path d="M180.234 103.563L180.294 103.667" stroke="black" stroke-width="0.5" stroke-linecap="round" stroke-linejoin="round"/>
<path d="M180.933 103.329L180.906 103.321" stroke="black" stroke-width="0.5" stroke-linecap="round" stroke-linejoin="round"/>
<path d="M181.036 103.355L180.938 103.329" stroke="black" stroke-width="0.5" stroke-linecap="round" stroke-linejoin="round"/>
<path d="M181.032 103.355C181.028 103.333 181.017 103.312 181 103.294" stroke="black" stroke-width="0.5" stroke-linecap="round" stroke-linejoin="round"/>
<path d="M179.531 111.117L182.677 111.96" stroke="black" stroke-width="0.5" stroke-linecap="round" stroke-linejoin="round"/>
<path d="M180.466 107.411L178.844 106.977" stroke="black" stroke-width="0.5" stroke-linecap="round" stroke-linejoin="round"/>
<path d="M182.727 108.016L180.469 107.411" stroke="black" stroke-width="0.5" stroke-linecap="round" stroke-linejoin="round"/>
<path d="M179.844 107.244L179.904 107.019" stroke="black" stroke-width="0.5" stroke-linecap="round" stroke-linejoin="round"/>
<path d="M179.867 109.66L180.47 107.411" stroke="black" stroke-width="0.5" stroke-linecap="round" stroke-linejoin="round"/>
<path d="M178.242 109.225L178.845 106.977" stroke="black" stroke-width="0.5" stroke-linecap="round" stroke-linejoin="round"/>
<path d="M179.867 109.66L181.49 110.095" stroke="black" stroke-width="0.5" stroke-linecap="round" stroke-linejoin="round"/>
<path d="M181.492 110.095L182.731 110.426" stroke="black" stroke-width="0.5" stroke-linecap="round" stroke-linejoin="round"/>
<path d="M178.242 109.225L179.054 109.443" stroke="black" stroke-width="0.5" stroke-linecap="round" stroke-linejoin="round"/>
<path d="M179.055 109.442L179.866 109.66" stroke="black" stroke-width="0.5" stroke-linecap="round" stroke-linejoin="round"/>
<path d="M178.676 109.341C178.643 109.466 178.625 109.598 178.625 109.733C178.625 110.351 178.996 110.883 179.527 111.118" stroke="black" stroke-width="0.5" stroke-linecap="round" stroke-linejoin="round"/>
<path d="M182.672 111.96C182.689 111.963 182.707 111.964 182.724 111.965" stroke="black" stroke-width="0.5" stroke-linecap="round" stroke-linejoin="round"/>
<path d="M178.789 102.944V102.246" stroke="black" stroke-width="0.5" stroke-linecap="round" stroke-linejoin="round"/>
<path d="M178.789 93.1675V102.246" stroke="black" stroke-width="0.5" stroke-linecap="round" stroke-linejoin="round"/>
<path d="M178.789 93.1675V92.4692" stroke="black" stroke-width="0.5" stroke-linecap="round" stroke-linejoin="round"/>
<path d="M178.905 92.4692H178.789" stroke="black" stroke-width="0.5" stroke-linecap="round" stroke-linejoin="round"/>
<path d="M178.906 102.246V100.483" stroke="black" stroke-width="0.5" stroke-linecap="round" stroke-linejoin="round"/>
<path d="M178.906 94.5386V93.1675" stroke="black" stroke-width="0.5" stroke-linecap="round" stroke-linejoin="round"/>
<path d="M178.905 102.944H178.789" stroke="black" stroke-width="0.5" stroke-linecap="round" stroke-linejoin="round"/>
<path d="M178.906 102.552V102.944" stroke="black" stroke-width="0.5" stroke-linecap="round" stroke-linejoin="round"/>
<path d="M335.219 96.5679V118.216" stroke="black" stroke-width="0.5" stroke-linecap="round" stroke-linejoin="round"/>
<path d="M335.223 118.216H334.758" stroke="black" stroke-width="0.5" stroke-linecap="round" stroke-linejoin="round"/>
<path d="M335.223 96.5679H334.758" stroke="black" stroke-width="0.5" stroke-linecap="round" stroke-linejoin="round"/>
<path d="M257.398 82.9505V79.6914" stroke="black" stroke-width="0.5" stroke-linecap="round" stroke-linejoin="round"/>
<path d="M257.398 82.9507C257.398 83.0791 257.503 83.1835 257.631 83.1835" stroke="black" stroke-width="0.5" stroke-linecap="round" stroke-linejoin="round"/>
<path d="M257.631 79.4585C257.503 79.4585 257.398 79.5628 257.398 79.6913" stroke="black" stroke-width="0.5" stroke-linecap="round" stroke-linejoin="round"/>
<path d="M260.242 80.1572H260.475" stroke="black" stroke-width="0.5" stroke-linecap="round" stroke-linejoin="round"/>
<path d="M260.242 82.4849H260.475" stroke="black" stroke-width="0.5" stroke-linecap="round" stroke-linejoin="round"/>
<path d="M257.633 79.4585H259.728" stroke="black" stroke-width="0.5" stroke-linecap="round" stroke-linejoin="round"/>
<path d="M257.633 83.1836H259.728" stroke="black" stroke-width="0.5" stroke-linecap="round" stroke-linejoin="round"/>
<path d="M257.398 125.316V122.058" stroke="black" stroke-width="0.5" stroke-linecap="round" stroke-linejoin="round"/>
<path d="M257.398 125.316C257.398 125.444 257.503 125.549 257.631 125.549" stroke="black" stroke-width="0.5" stroke-linecap="round" stroke-linejoin="round"/>
<path d="M257.631 121.825C257.503 121.825 257.398 121.929 257.398 122.057" stroke="black" stroke-width="0.5" stroke-linecap="round" stroke-linejoin="round"/>
<path d="M260.242 122.523H260.475" stroke="black" stroke-width="0.5" stroke-linecap="round" stroke-linejoin="round"/>
<path d="M260.242 124.851H260.475" stroke="black" stroke-width="0.5" stroke-linecap="round" stroke-linejoin="round"/>
<path d="M257.633 121.825H259.728" stroke="black" stroke-width="0.5" stroke-linecap="round" stroke-linejoin="round"/>
<path d="M257.633 125.549H259.728" stroke="black" stroke-width="0.5" stroke-linecap="round" stroke-linejoin="round"/>
<path d="M259.727 83.4279V79.2144" stroke="black" stroke-width="0.5" stroke-linecap="round" stroke-linejoin="round"/>
<path d="M260.242 83.4279V79.2144" stroke="black" stroke-width="0.5" stroke-linecap="round" stroke-linejoin="round"/>
<path d="M260.239 83.4277H259.727" stroke="black" stroke-width="0.5" stroke-linecap="round" stroke-linejoin="round"/>
<path d="M260.239 79.2144H259.727" stroke="black" stroke-width="0.5" stroke-linecap="round" stroke-linejoin="round"/>
<path d="M259.727 125.793V121.58" stroke="black" stroke-width="0.5" stroke-linecap="round" stroke-linejoin="round"/>
<path d="M260.242 125.793V121.58" stroke="black" stroke-width="0.5" stroke-linecap="round" stroke-linejoin="round"/>
<path d="M260.239 125.793H259.727" stroke="black" stroke-width="0.5" stroke-linecap="round" stroke-linejoin="round"/>
<path d="M260.239 121.58H259.727" stroke="black" stroke-width="0.5" stroke-linecap="round" stroke-linejoin="round"/>
<path d="M334.891 93.5419V92.6108" stroke="black" stroke-width="0.5" stroke-linecap="round" stroke-linejoin="round"/>
<path d="M334.891 90.0501V89.8779" stroke="black" stroke-width="0.5" stroke-linecap="round" stroke-linejoin="round"/>
<path d="M334.867 91.2144H334.89" stroke="black" stroke-width="0.5" stroke-linecap="round" stroke-linejoin="round"/>
<path d="M334.891 91.2143V90.2832" stroke="black" stroke-width="0.5" stroke-linecap="round" stroke-linejoin="round"/>
<path d="M334.867 90.2832H334.89" stroke="black" stroke-width="0.5" stroke-linecap="round" stroke-linejoin="round"/>
<path d="M334.867 93.5415H334.89" stroke="black" stroke-width="0.5" stroke-linecap="round" stroke-linejoin="round"/>
<path d="M334.867 92.6108H334.89" stroke="black" stroke-width="0.5" stroke-linecap="round" stroke-linejoin="round"/>
<path d="M334.867 92.3779H334.89" stroke="black" stroke-width="0.5" stroke-linecap="round" stroke-linejoin="round"/>
<path d="M334.891 92.3778V91.4468" stroke="black" stroke-width="0.5" stroke-linecap="round" stroke-linejoin="round"/>
<path d="M334.867 91.4468H334.89" stroke="black" stroke-width="0.5" stroke-linecap="round" stroke-linejoin="round"/>
<path d="M334.867 90.0503H334.89" stroke="black" stroke-width="0.5" stroke-linecap="round" stroke-linejoin="round"/>
<path d="M334.867 93.6582V94.5893" stroke="black" stroke-width="0.5" stroke-linecap="round" stroke-linejoin="round"/>
<path d="M334.867 84.1143V85.0453" stroke="black" stroke-width="0.5" stroke-linecap="round" stroke-linejoin="round"/>
<path d="M334.758 94.5894H334.874" stroke="black" stroke-width="0.5" stroke-linecap="round" stroke-linejoin="round"/>
<path d="M334.874 84.1143H334.758" stroke="black" stroke-width="0.5" stroke-linecap="round" stroke-linejoin="round"/>
<path d="M334.867 93.6581V85.0454" stroke="black" stroke-width="0.5" stroke-linecap="round" stroke-linejoin="round"/>
<path d="M334.891 88.826V87.9556" stroke="black" stroke-width="0.5" stroke-linecap="round" stroke-linejoin="round"/>
<path d="M334.867 87.9556H334.89" stroke="black" stroke-width="0.5" stroke-linecap="round" stroke-linejoin="round"/>
<path d="M334.867 87.7227H334.89" stroke="black" stroke-width="0.5" stroke-linecap="round" stroke-linejoin="round"/>
<path d="M334.891 87.7224V86.791" stroke="black" stroke-width="0.5" stroke-linecap="round" stroke-linejoin="round"/>
<path d="M334.867 86.791H334.89" stroke="black" stroke-width="0.5" stroke-linecap="round" stroke-linejoin="round"/>
<path d="M334.891 84.4634V86.791" stroke="black" stroke-width="0.5" stroke-linecap="round" stroke-linejoin="round"/>
<path d="M334.867 84.4634H334.89" stroke="black" stroke-width="0.5" stroke-linecap="round" stroke-linejoin="round"/>
<path d="M334.867 89.8873C335.084 89.8063 335.239 89.597 335.239 89.3518C335.239 89.1063 335.084 88.897 334.867 88.8164" stroke="black" stroke-width="0.5" stroke-linecap="round" stroke-linejoin="round"/>
<path d="M272.812 82.9503V79.4585" stroke="black" stroke-width="0.5" stroke-linecap="round" stroke-linejoin="round"/>
<path d="M272.812 122.523V82.9507" stroke="black" stroke-width="0.5" stroke-linecap="round" stroke-linejoin="round"/>
<path d="M272.812 126.014V122.523" stroke="black" stroke-width="0.5" stroke-linecap="round" stroke-linejoin="round"/>
<path d="M272.814 126.015H260.477" stroke="black" stroke-width="0.5" stroke-linecap="round" stroke-linejoin="round"/>
<path d="M268.787 79.4585H260.477" stroke="black" stroke-width="0.5" stroke-linecap="round" stroke-linejoin="round"/>
<path d="M272.814 122.523H260.477" stroke="black" stroke-width="0.5" stroke-linecap="round" stroke-linejoin="round"/>
<path d="M260.477 122.523V126.014" stroke="black" stroke-width="0.5" stroke-linecap="round" stroke-linejoin="round"/>
<path d="M268.787 82.9507H260.477" stroke="black" stroke-width="0.5" stroke-linecap="round" stroke-linejoin="round"/>
<path d="M260.477 79.4585V82.9503" stroke="black" stroke-width="0.5" stroke-linecap="round" stroke-linejoin="round"/>
<path d="M260.477 82.9507V122.523" stroke="black" stroke-width="0.5" stroke-linecap="round" stroke-linejoin="round"/>
<path d="M271.578 79.4585H272.812" stroke="black" stroke-width="0.5" stroke-linecap="round" stroke-linejoin="round"/>
<path d="M271.578 82.9507H272.812" stroke="black" stroke-width="0.5" stroke-linecap="round" stroke-linejoin="round"/>
<path d="M271.578 82.9503V70.1475" stroke="black" stroke-width="0.5" stroke-linecap="round" stroke-linejoin="round"/>
<path d="M268.781 70.1475H271.574" stroke="black" stroke-width="0.5" stroke-linecap="round" stroke-linejoin="round"/>
<path d="M268.781 70.1475V82.9503" stroke="black" stroke-width="0.5" stroke-linecap="round" stroke-linejoin="round"/>
<path d="M268.781 82.9507H271.574" stroke="black" stroke-width="0.5" stroke-linecap="round" stroke-linejoin="round"/>
<path d="M260.477 78.7603V79.4586" stroke="black" stroke-width="0.5" stroke-linecap="round" stroke-linejoin="round"/>
<path d="M228.352 119.729V78.7603" stroke="black" stroke-width="0.5" stroke-linecap="round" stroke-linejoin="round"/>
<path d="M226.023 79.6076L228.351 78.7603" stroke="black" stroke-width="0.5" stroke-linecap="round" stroke-linejoin="round"/>
<path d="M226.023 118.882L228.351 119.729" stroke="black" stroke-width="0.5" stroke-linecap="round" stroke-linejoin="round"/>
<path d="M228.352 78.7603H260.475" stroke="black" stroke-width="0.5" stroke-linecap="round" stroke-linejoin="round"/>
<path d="M228.352 119.729H260.475" stroke="black" stroke-width="0.5" stroke-linecap="round" stroke-linejoin="round"/>
<path d="M226.023 78.7603V119.729" stroke="black" stroke-width="0.5" stroke-linecap="round" stroke-linejoin="round"/>
<path d="M183.891 80.6226V117.867" stroke="black" stroke-width="0.5" stroke-linecap="round" stroke-linejoin="round"/>
<path d="M182.727 80.6226V117.867" stroke="black" stroke-width="0.5" stroke-linecap="round" stroke-linejoin="round"/>
<path d="M226.021 119.729H190.203" stroke="black" stroke-width="0.5" stroke-linecap="round" stroke-linejoin="round"/>
<path d="M226.021 78.7603H190.203" stroke="black" stroke-width="0.5" stroke-linecap="round" stroke-linejoin="round"/>
<path d="M190.206 78.7603C187.878 78.7603 185.71 79.4444 183.891 80.6227" stroke="black" stroke-width="0.5" stroke-linecap="round" stroke-linejoin="round"/>
<path d="M183.891 117.867C185.71 119.045 187.878 119.729 190.206 119.729" stroke="black" stroke-width="0.5" stroke-linecap="round" stroke-linejoin="round"/>
<path d="M183.89 117.867H182.727" stroke="black" stroke-width="0.5" stroke-linecap="round" stroke-linejoin="round"/>
<path d="M183.89 80.6226H182.727" stroke="black" stroke-width="0.5" stroke-linecap="round" stroke-linejoin="round"/>
<path d="M257.969 127.876V139.515" stroke="black" stroke-width="0.5" stroke-linecap="round" stroke-linejoin="round"/>
<path d="M257.968 139.516H252.148" stroke="black" stroke-width="0.5" stroke-linecap="round" stroke-linejoin="round"/>
<path d="M252.617 133.696V139.516" stroke="black" stroke-width="0.5" stroke-linecap="round" stroke-linejoin="round"/>
<path d="M252.148 139.516V133.696" stroke="black" stroke-width="0.5" stroke-linecap="round" stroke-linejoin="round"/>
<path d="M294.984 139.516H289.164" stroke="black" stroke-width="0.5" stroke-linecap="round" stroke-linejoin="round"/>
<path d="M294.516 139.515V127.876" stroke="black" stroke-width="0.5" stroke-linecap="round" stroke-linejoin="round"/>
<path d="M294.984 127.876V139.515" stroke="black" stroke-width="0.5" stroke-linecap="round" stroke-linejoin="round"/>
<path d="M294.516 127.876H294.981" stroke="black" stroke-width="0.5" stroke-linecap="round" stroke-linejoin="round"/>
<path d="M289.164 139.515V127.876" stroke="black" stroke-width="0.5" stroke-linecap="round" stroke-linejoin="round"/>
<path d="M252.148 178.39V139.516" stroke="black" stroke-width="0.5" stroke-linecap="round" stroke-linejoin="round"/>
<path d="M294.984 178.39V139.516" stroke="black" stroke-width="0.5" stroke-linecap="round" stroke-linejoin="round"/>
<path d="M289.16 127.876H280.547" stroke="black" stroke-width="0.5" stroke-linecap="round" stroke-linejoin="round"/>
<path d="M266.581 127.876H257.969" stroke="black" stroke-width="0.5" stroke-linecap="round" stroke-linejoin="round"/>
<path d="M293.82 179.553C294.463 179.553 294.984 179.032 294.984 178.39" stroke="black" stroke-width="0.5" stroke-linecap="round" stroke-linejoin="round"/>
<path d="M252.148 178.39C252.148 179.032 252.67 179.553 253.312 179.553" stroke="black" stroke-width="0.5" stroke-linecap="round" stroke-linejoin="round"/>
<path d="M253.312 179.554H271.004" stroke="black" stroke-width="0.5" stroke-linecap="round" stroke-linejoin="round"/>
<path d="M276.125 179.554H293.816" stroke="black" stroke-width="0.5" stroke-linecap="round" stroke-linejoin="round"/>
<path d="M262.668 133.696H254.016" stroke="black" stroke-width="0.5" stroke-linecap="round" stroke-linejoin="round"/>
<path d="M254.016 127.876H262.668" stroke="black" stroke-width="0.5" stroke-linecap="round" stroke-linejoin="round"/>
<path d="M254.011 133.696H252.148" stroke="black" stroke-width="0.5" stroke-linecap="round" stroke-linejoin="round"/>
<path d="M254.011 127.876H252.148" stroke="black" stroke-width="0.5" stroke-linecap="round" stroke-linejoin="round"/>
<path d="M252.148 133.696V127.876" stroke="black" stroke-width="0.5" stroke-linecap="round" stroke-linejoin="round"/>
<path d="M292.188 133.696H294.05" stroke="black" stroke-width="0.5" stroke-linecap="round" stroke-linejoin="round"/>
<path d="M292.188 127.876H294.05" stroke="black" stroke-width="0.5" stroke-linecap="round" stroke-linejoin="round"/>
<path d="M294.055 127.876V133.696" stroke="black" stroke-width="0.5" stroke-linecap="round" stroke-linejoin="round"/>
<path d="M292.191 133.696H283.539" stroke="black" stroke-width="0.5" stroke-linecap="round" stroke-linejoin="round"/>
<path d="M283.539 127.876H292.191" stroke="black" stroke-width="0.5" stroke-linecap="round" stroke-linejoin="round"/>
<path d="M283.305 127.877V126.015" stroke="black" stroke-width="0.5" stroke-linecap="round" stroke-linejoin="round"/>
<path d="M282.609 127.877V126.015" stroke="black" stroke-width="0.5" stroke-linecap="round" stroke-linejoin="round"/>
<path d="M263.594 127.877V126.015" stroke="black" stroke-width="0.5" stroke-linecap="round" stroke-linejoin="round"/>
<path d="M262.898 127.877V126.015" stroke="black" stroke-width="0.5" stroke-linecap="round" stroke-linejoin="round"/>
<path d="M273.57 39.8862V183.86" stroke="black" stroke-width="0.5" stroke-linecap="round" stroke-linejoin="round" stroke-dasharray="1.32 0.16 0.33 0.16"/>
<path d="M0.5 566.16V530.81" stroke="black"/>
<path d="M0.5 530.81H177.28" stroke="black"/>
<path d="M389.398 530.81H707.588" stroke="black"/>
<path d="M707.594 530.81H795.984" stroke="black"/>
<path d="M795.984 530.81V566.16" stroke="black"/>
<path d="M88.8906 530.81V0.5" stroke="black"/>
<path d="M88.8906 0.5H707.591" stroke="black"/>
<path d="M707.594 0.5V530.81" stroke="black"/>
<path d="M592.695 530.81V0.5" stroke="black"/>
<path d="M88.8906 0.5H97.7306" stroke="black"/>
<path d="M97.7344 0.5V530.81" stroke="black"/>
<path d="M707.59 0.5H698.75" stroke="black"/>
<path d="M698.75 0.5V530.81" stroke="black"/>
<path d="M592.692 0.5H583.852" stroke="black"/>
<path d="M583.852 0.5V530.81" stroke="black"/>
<path d="M707.594 0.5V9.33" stroke="black"/>
<path d="M707.591 9.33008H88.8906" stroke="black"/>
<path d="M283.344 31.6099H707.594" stroke="black"/>
<path d="M707.594 31.61V22.77" stroke="black"/>
<path d="M707.591 22.77H88.8906" stroke="black"/>
<path d="M88.8906 22.77V31.61" stroke="black"/>
<path d="M88.8906 31.6099H283.341" stroke="black"/>
<path d="M0.5 538.77L8.46 530.81M0.5 554.64L6.61 548.54M14.55 540.6L24.34 530.81M8.59 562.43L28.44 542.59M36.37 534.65L40.21 530.81M20.73 566.16L22.48 564.41M30.42 556.48L50.26 536.63M36.61 566.16L44.31 558.46M52.25 550.52L71.96 530.81M52.48 566.16L66.14 552.51M74.08 544.57L87.84 530.81M68.36 566.16L87.97 546.55M95.9 538.62L103.71 530.81M89.95 560.44L109.79 540.6M117.73 532.66L119.58 530.81M100.1 566.16L103.84 562.43M111.78 554.49L131.62 534.65M115.98 566.16L125.67 556.48M133.61 548.54L151.33 530.81M131.85 566.16L147.5 550.52M155.43 542.59L167.21 530.81M149.48 564.41L169.18 544.72M399.5 536.63L405.33 530.81M397.8 554.21L413.39 538.62M401.72 566.16L407.44 560.44M415.38 552.51L435.22 532.66M417.6 566.16L429.27 554.49M437.21 546.55L452.95 530.81M433.47 566.16L451.1 548.54M459.03 540.6L468.82 530.81M453.08 562.43L472.92 542.59M480.86 534.65L484.7 530.81M465.22 566.16L466.97 564.41M474.91 556.48L494.75 536.63M481.09 566.16L488.8 558.46M496.74 550.52L516.45 530.81M496.97 566.16L510.63 552.51M518.56 544.57L532.32 530.81M512.84 566.16L532.45 546.55M540.39 538.62L548.2 530.81M534.44 560.44L554.28 540.6M562.22 532.66L564.07 530.81M544.59 566.16L548.33 562.43M556.27 554.49L576.11 534.65M560.47 566.16L570.16 556.48M578.09 548.54L595.82 530.81M576.34 566.16L591.98 550.52M599.92 542.59L611.7 530.81M593.97 564.41L613.81 544.57M621.75 536.63L627.57 530.81M615.79 558.46L635.64 538.62M623.96 566.16L629.69 560.44M637.62 552.51L657.47 532.66M639.84 566.16L651.51 554.49M659.45 546.55L675.19 530.81M655.71 566.16L673.34 548.54M681.28 540.6L691.07 530.81M675.32 562.43L695.17 542.59M703.1 534.65L706.94 530.81M687.46 566.16L689.21 564.41M697.15 556.48L717 536.63M703.34 566.16L711.04 558.46M718.98 550.52L738.69 530.81M719.21 566.16L732.87 552.51M740.81 544.57L754.57 530.81M735.09 566.16L754.7 546.55M762.63 538.62L770.44 530.81M756.68 560.44L776.52 540.6M784.46 532.66L786.32 530.81M766.84 566.16L770.57 562.43M778.51 554.49L795.98 537.02M782.71 566.16L792.4 556.48" stroke="black"/>
<path d="M0.5 530.81H169.18ZM169.18 530.81V566.16ZM169.18 566.16H0.5ZM0.5 566.16V530.81Z" stroke="black"/>
<path d="M397.805 530.81H795.985ZM795.985 530.81V566.16ZM795.985 566.16H397.805ZM397.805 566.16V530.81Z" stroke="black"/>
<path d="M0.5 530.81H169.18ZM169.18 530.81V566.16ZM169.18 566.16H0.5ZM0.5 566.16V530.81Z" stroke="black"/>
<path d="M397.805 530.81H795.985ZM795.985 530.81V566.16ZM795.985 566.16H397.805ZM397.805 566.16V530.81Z" stroke="black"/>
</svg>
