<svg xmlns="http://www.w3.org/2000/svg" width="796" height="567" fill="none"><path stroke="#000" stroke-linecap="round" stroke-linejoin="round" stroke-width=".3" d="M273 31v23M273 54h12M285 54h-24"/><path stroke="#000" stroke-linecap="round" stroke-linejoin="round" stroke-width=".5" d="M273 126v-4M290 126h-17M273 122h17M290 83h-12M290 79h-12M273 122V83M273 83v-4M275 70v13M273 79h2M275 83h-2M278 83V70M275 70h3M278 83h-3M290 83v-4M290 122V83M290 126v-4M326 122h-36M290 83h36M290 122v4M290 79v4M326 126v-4M326 83v-4M290 126h36M326 79h-36M326 122V83M290 122V83M326 122v4M326 79v4M326 126h6M332 79h-6M332 122h-6M326 83h6M326 83v39"/><path stroke="#000" stroke-linecap="round" stroke-linejoin="round" stroke-width=".5" d="M331 111a2 2 0 1 0-4 0 2 2 0 0 0 4 0" clip-rule="evenodd"/><path stroke="#000" stroke-linecap="round" stroke-linejoin="round" stroke-width=".5" d="M335 84v-3M335 121V84M335 124v-3M332 79l3 2M335 124l-3 2M332 79v4M332 83l3 1M332 83v39M332 122l3-1M332 122v4M335 80v3M335 80q0 0 0 0M335 83q0 0 0 0M335 80h-2M335 122v3M335 122q0 0 0 0M335 125q0 0 0 0M335 125h-2M279 126zM267 126zM273 126h6M273 126zM279 126zM267 126h6M273 126zM267 126zM302 76h2M302 78v-2M304 78v-2M305 78h-2M303 79v-1M305 79v-1M303 78h-1M302 79v-1M305 79v-1M305 78zM329 112zM328 111zM329 111zM329 111zM329 112zM330 111z"/><path stroke="#000" stroke-linecap="round" stroke-linejoin="round" stroke-width=".5" d="M331 111a2 2 0 1 0-4 0 2 2 0 0 0 4 0" clip-rule="evenodd"/><path stroke="#000" stroke-linecap="round" stroke-linejoin="round" stroke-width=".5" d="M273 59zM275 46v1M275 74zM275 79zM272 79zM272 75zM272 47zM270 59zM273 59h-3M275 46v-4M272 42v4M275 74V47M272 47v27M275 79v-4M272 75v4M284 76v-3M284 73v3M284 76zM284 73zM265 77v-5M265 77q0 0 0 0M265 72q0 0 0 0M269 77v-5M271 73zM275 73zM282 73h2M271 76zM275 76zM282 76h2M265 72h4M265 77h4M282 72v5M281 72v5M281 72zM281 77zM280 77q0 0 0 0zm0 0zm0 0q0 0 0 0M280 72zq0 0 0 0m0 0zm0 0q0 0 0 0M280 75v-3h0m0 3v-3m0 3v-3M280 77zv-2h0m0 2v-2m0 2v-2M279 77zq0 0 0 0m1 0zm1 0zM278 75zv2h0m0-2v2m0-2v2M278 72zv3m0-3v3m0-3v3M278 72q0 0 0 0zm-1 0zm-1 0zM281 77zM281 72zM278 72zM278 77zM279 72h1M279 75h1M279 77h1M272 157h-1M276 157h-2M274 157h-2M271 157zM271 155v2M276 157zM276 157v-2M276 168zM276 157zM276 168v1M276 176v-7M276 176v5M271 181v-5M271 169v7M271 169v-1M271 157zM271 167zM272 160zM272 160zM272 157v3M272 157zM274 160zM274 160zM274 160h-2M274 160v-3M274 157zM271 181h5M271 168h5M272 158q0 0 0 0t0 0 0 0 0 0 0 0M271 159q0 0 0 0M271 159q0 0 0 0M272 158q0 0 0 0M272 158q0 0 0 0t0 0 0 0zq0 0 0 0t0 0 0 0 0 0 0 0v1q0 0 0 0t0 0 0 0 0 0 0 0 0 0 0 0M272 160q0 0 0 0t0 0 0 0M271 158q0 0 0 0t0 0 0 0 0 0 0 0 0 0 0 0 0 0 0 0 0 0 0 0 0 0 0 0 0 0 0 0 0 0 0 0 0 0 0 0 0 0M271 157q0 0 0 0t0 0 0 0 0 0 0 0 0 0 0 0 0 0M272 157q0 0 0 0t0 0 0 0 0 0 0 0 0 0 0 0 0 0 0 0 0 0 0 0M272 158q0 0 0 0t0 0 0 0M272 159v1M271 159zM275 158q0 0 0 0t0 0 0 0 0 0 0 0 0 0 0 0M275 158q0 0 0 0t0 0 0 0M275 159q0 0 0 0M275 159q0 0 0 0M275 158q0 0 0 0M275 157q0 0 0 0t0 0 0 0 0 0 0 0 0 0 0 0 0 0 0 0 0 0 0 0M275 157q0 0 0 0t0 0 0 0 0 0 0 0 0 0 0 0 0 0 0 0M275 158q0 0 0 0M275 157q0 0 0 0t0 0 0 0 0 0 0 0 0 0 0 0 0 0 0 0 0 0 0 0 0 0 0 0 0 0 0 0 0 0 0 0 0 0M275 160q0 0 0 0t0 0 0 0 0 0 0 0M275 160q0 0 0 0t0 0 0 0 0 0 0 0 0 0 0 0 0 0 0 0zq0 0 0 0t0 0 0 0 0 0 0 0v-1q0 0 0 0t0 0 0 0 0 0 0 0M275 160zM275 160zM276 168zM271 160h5M271 168zM271 168l-1-2M276 166v2M271 168l-1-2M276 166v2M276 166v-8M276 159zM276 159q0 0 0 0t0 0 0 0 0 0zq0 0 0 0t0 0M271 160q0 0 0 0t0 0 0 0 0 0 0 0 0 0 0 0M270 158v1M270 158v8M276 160zM270 158zM270 157v1M271 158v1M271 159zM276 158zM276 159zM276 158zM276 157v1M271 158zM276 157zM270 157h1M277 158zM276 160zM272 158zM274 158zM271 159zM275 159zM270 160q0 0 0 0M270 158q0 0 0 0M272 157q0 0 0 0t0 0 0 0M272 157q0 0 0 0t0 0 0 0 0 0 0 0 0 0 0 0 0 0 0 0 0 0 0 0 0 0M271 160q0 0 0 0t0 0M272 158q0 0 0 0t0 0 0 0M272 157q0 0 0 0t0 0 0 0 0 0 0 0M271 160zh0q0 0 0 0v-1q0 0 0 0t0 0 0 0M271 157q0 0 0 0t0 0 0 0M272 160q0 0 0 0t0 0 0 0 0 0 0 0 0 0 0 0 0 0 0 0 0 0 0 0 0 0 0 0M271 158q0 0 0 0M272 157q0 0 0 0t0 0 0 0 0 0 0 0M272 158q0 0 0 0t0 0 0 0M272 158q0 0 0 0t0 0 0 0 0 0 0 0 0 0 0 0 0 0M272 158q0 0 0 0t0 0 0 0zq0 0 0 0t0 0v1q0 0 0 0t0 0 0 0 0 0 0 0 0 0 0 0M271 160zM275 157q0 0 0 0t0 0 0 0 0 0 0 0 0 0 0 0 0 0 0 0 0 0 0 0 0 0M275 157q0 0 0 0t0 0 0 0M275 158q0 0 0 0t0 0 0 0 0 0M274 157zq0 0 0 0t0 0 0 0 0 0M275 160q0 0 0 0t0 0M275 158q0 0 0 0M275 157q0 0 0 0t0 0 0 0M275 158q0 0 0 0t0 0 0 0M275 160q0 0 0 0t0 0 0 0 0 0 0 0 0 0 0 0 0 0 0 0 0 0 0 0 0 0 0 0M275 157q0 0 0 0t0 0 0 0 0 0 0 0M275 158q0 0 0 0t0 0 0 0 0 0zq0 0 0 0t0 0h0v1M275 158q0 0 0 0t0 0 0 0 0 0 0 0 0 0 0 0M275 160zM277 158v1M277 158q0 0 0 0M277 160zM277 158zM269 159zM270 159zm0-1zm0-1zM270 158zq0 0 0 0h0m0-1v1m0-1v1M270 158zq0 0 0 0zm0 0zm0 0q0 0 0 0M270 158q0 0 0 0m0 0q0 0 0 0M270 159zM270 159q0 0 0 0m0 0zm0 0q0 0 0 0M270 159q0 0 0 0m0 1zm0 1zM270 160q0 0 0 0m0 0q0 0 0 0M270 159q0 0 0 0m0 0q0 0 0 0M270 158q0 0 0 0m0 0q0 0 0 0M270 158q0 0 0 0m0 0zm0 0q0 0 0 0M270 158q0 0 0 0m0 0zm0 0q0 0 0 0M270 158zM270 158zM270 159zM270 160zM270 158zM270 159zM270 159zM270 158zM270 157v1M276 158zM276 157v1M271 158zM276 157zM270 157h1M271 131q0 0 0 0M276 131q0 0 0 0M274 131q0 0 0 0M272 131q0 0 0 0M274 131q0 0 0 0M273 131q0 0 0 0M274 131zM273 126zM274 126zM273 127zM274 127zM268 131h10M268 131q0 0 0 0M279 131zM266 134zM281 134q0 0 0 0M281 134v6M281 140v15M265 134v21M279 131l2 3M268 131l-2 3M265 155zM281 155q0 0 0 0M266 155h15M268 131h10M268 131q0 0 0 0M279 131zM266 134zM281 134q0 0 0 0M281 134v6M281 140v15M265 134v21M279 131l2 3M268 131l-2 3M265 155zM281 155q0 0 0 0M266 155h15M266 127h14M266 130h14M266 130v-3M280 130v-3M279 127l1-1M267 126zM277 130zM276 131q0 0 0 0M269 130zM266 128v-2M280 127v-1M274 131zq0 0 0 0h1q0 0 0 0h1q0 0 0 0t0 0M269 131q0 0 0 0t0 0 0 0 0 0 0 0 0 0 0 0zq0 0 0 0t0 0 0 0 0 0 0 0 0 0 0 0 0 0h1M278 130zq0 0 0 0t0 0 0 0zh-2q0 0 0 0h-1q0 0 0 0h-1q0 0 0 0h-3q0 0 0 0t0 0 0 0 0 0M276 131q0 0 0 0zh0q0 0 0 0t0 0 0 0 0 0 0 0 0 0 0 0h0q0 0 0 0t0 0h0M272 126zM272 126zM271 126zM226 79zM226 79h1M181 103zM180 103zM179 102zM179 102q0 0 0 0t0 0M179 102zM179 103zM179 103zM179 104q0 0 0 0m0 0q0 0 0 0M180 103zM181 103q0 0 0 0M180 103zM180 104q0 0 0 0M180 104q0 0 0 0zm0 1zm0 1zM179 102zq0 0 0 0t0 0M179 103q0 0 0 0t0 0M179 104q0 0 0 0M179 104zq0 0 0 0t0 0M179 92l1-2M179 94zv2h1q0 0 0 0M179 97v-3M180 97q0 0 0 0t0 0zq0 0 0 0t0 0v2q0 0 0 0t0 0M179 100v-3M179 94v-2M179 102v-2M179 103zM179 102q0 0 0 0M179 103zM179 102q0 0 0 0M179 102q0 0 0 0t0 0 0 0 0 0 0 0 0 0 0 0 0 0 0 0M181 103q0 0 0 0t0 0 0 0 0 0 0 0 0 0 0 0 0 0 0 0M181 103q0 0 0 0M182 104l-1-1M182 105q0 0 0 0M182 105l-2-1M179 104h1M179 104q0 0 0 0M180 104q0 0 0 0M182 108l-3-1M180 104l-1 3M180 104q0 0 0 0t0 0 0 0zM180 103zM180 103v-1M181 103zM180 103zM180 103v-1M180 103q0 0 0 0M180 103zM181 103q0 0 0 0M179 111l3 1M180 107h-1M182 108l-2-1M180 107zM180 109v-2M178 109l1-2M180 109l1 1M181 110h1M178 109zM179 109zM178 109q0 0 0 0l1 2M182 112q0 0 0 0M179 103v-1M179 93v9M179 93zM179 92zM179 102v-2M179 94v-1M179 103zM179 102zM335 96v22M335 118zM335 96zM257 83v-4M257 83q0 0 0 0M257 79q0 0 0 0M260 80zM260 82zM257 79h2M257 83h2M257 125v-3M257 125q0 0 0 0M257 122q0 0 0 0M260 122zM260 125zM257 122h2M257 125h2M259 83v-4M260 83v-4M260 83zM260 79zM259 126v-5M260 126v-5M260 126zM260 121zM335 93zM335 90zM335 91zM335 92zM335 93v1M335 84zM335 94zM335 84zM335 93v-8M335 89v-1M335 87zM335 84v3M335 90v-1M273 83v-4M273 122V83M273 126v-4M273 126h-13M269 79h-9M273 122h-13M260 122v4M269 83h-9M260 79v4M260 83v39M271 79h2M271 83h2M271 83V70M269 70h2M269 70v13M269 83h2M260 79zM228 119V79M226 79h2M226 119h2M228 79h32M228 119h32M226 79v40M184 80v38M182 80v38M226 119h-36M226 79h-36M190 79l-6 1M184 118l6 1M184 118h-2M184 80h-2M258 128v11M258 139h-6M252 133v6M252 139v-6M295 139h-6M294 139v-11M295 128v11M294 128zM289 139v-11M252 178v-39M295 178v-39M289 128h-9M266 128h-8M294 179zM252 178l1 1M253 179h18M276 179h18M262 133h-8M254 128h8M254 133h-2M254 128h-2M252 133v-5M292 133h2M292 128h2M294 128v5M292 133h-9M283 128h9M283 128v-2M282 128v-2M263 128v-2M263 128v-2"/><path stroke="#000" stroke-dasharray="1.32 0.16 0.33 0.16" stroke-linecap="round" stroke-linejoin="round" stroke-width=".2" d="M273 40v144"/><path stroke="#000" stroke-width=".5" d="M0 566v-35M0 531h177M389 531h318M707 531h89M796 531v35M89 531V0M89 0h618M707 0v531M592 531V0M89 0h8M97 0v531M707 0h-8M699 0v531M592 0h-8M584 0v531M707 0v9M707 9H89M283 31h424M707 31v-8M707 23H89M89 23v8M89 31h194M0 539l8-8m-8 23 6-6m8-8 10-9M8 562l20-20m8-8 4-3m-20 35 2-2m8-8 20-20m-14 30 8-8m8-8 20-19m-20 35 14-14m8-8 14-13m-20 35 20-20m8-8 7-7m-13 29 20-20m7-8 2-1m-19 35 4-4m8-8 19-20m-15 32 9-10m8-8 18-17m-19 35 15-16m8-8 12-11m-18 33 20-20m230-8 6-5m-7 23 15-16m-12 28 6-6m8-8 20-20m-18 34 12-12m8-8 16-15m-20 35 18-18m8-8 10-9m-16 31 20-20m8-8 3-3m-19 35 2-2m8-8 20-20m-14 30 8-8m7-8 20-19m-19 35 13-14m8-8 14-13m-19 35 19-20m8-8 8-7m-14 29 20-20m8-8 2-1m-20 35 4-4m8-8 20-20m-16 32 10-10m8-8 18-17m-20 35 16-16m8-8 11-11m-17 33 20-20m8-8 5-5m-11 27 19-20m-11 28 5-6m8-8 20-20m-17 34 11-12m8-8 16-15m-20 35 18-18m8-8 10-9m-16 31 20-20m8-8 4-3m-20 35 2-2m8-8 20-20m-14 30 8-8m8-8 19-19m-19 35 14-14m8-8 13-13m-19 35 19-20m8-8 8-7m-14 29 20-20m8-8 2-1m-19 35 3-4m8-8 18-17m-14 29 10-10M0 531h169Zm169 0v35Zm0 35H0ZM0 566v-35ZM398 531h398Zm398 0v35Zm0 35H398Zm-398 0v-35ZM0 531h169Zm169 0v35Zm0 35H0ZM0 566v-35ZM398 531h398Zm398 0v35Zm0 35H398Zm-398 0v-35Z"/></svg>