<svg width="462" height="423" viewBox="0 0 462 423" fill="none" xmlns="http://www.w3.org/2000/svg"><path d="M277.711 252.71V242.46" stroke="black" stroke-width="0.5"/><path d="M328.321 252.71H277.711" stroke="black" stroke-width="0.5"/><path d="M277.711 242.46H328.321" stroke="black" stroke-width="0.5"/><path d="M328.322 126.36H294.102" stroke="black" stroke-width="0.5"/><path d="M328.322 116.11H294.102" stroke="black" stroke-width="0.5"/><path d="M277.711 242.46V126.36" stroke="black" stroke-width="0.5"/><path d="M277.711 126.36V116.11" stroke="black" stroke-width="0.5"/><path d="M285.898 88.79V126.36" stroke="black" stroke-width="0.5"/><path d="M277.711 116.11H285.901" stroke="black" stroke-width="0.5"/><path d="M285.901 126.36H277.711" stroke="black" stroke-width="0.5"/><path d="M294.102 126.36V88.79" stroke="black" stroke-width="0.5"/><path d="M285.898 88.79H294.098" stroke="black" stroke-width="0.5"/><path d="M294.098 126.36H285.898" stroke="black" stroke-width="0.5"/><path d="M328.32 126.36V116.11" stroke="black" stroke-width="0.5"/><path d="M328.32 242.46V126.36" stroke="black" stroke-width="0.5"/><path d="M328.32 252.71V242.46" stroke="black" stroke-width="0.5"/><path d="M435.55 242.46H328.32" stroke="black" stroke-width="0.5"/><path d="M328.32 126.36H435.55" stroke="black" stroke-width="0.5"/><path d="M328.32 242.46V252.71" stroke="black" stroke-width="0.5"/><path d="M328.32 116.11V126.36" stroke="black" stroke-width="0.5"/><path d="M435.555 252.71V242.46" stroke="black" stroke-width="0.5"/><path d="M435.555 126.36V116.11" stroke="black" stroke-width="0.5"/><path d="M328.32 252.71H435.55" stroke="black" stroke-width="0.5"/><path d="M435.55 116.11H328.32" stroke="black" stroke-width="0.5"/><path d="M435.555 242.46V126.36" stroke="black" stroke-width="0.5"/><path d="M328.32 242.46V126.36" stroke="black" stroke-width="0.5"/><path d="M435.555 242.46V252.71" stroke="black" stroke-width="0.5"/><path d="M435.555 116.11V126.36" stroke="black" stroke-width="0.5"/><path d="M435.555 252.71H453.305" stroke="black" stroke-width="0.5"/><path d="M453.305 116.11H435.555" stroke="black" stroke-width="0.5"/><path d="M453.305 242.46H435.555" stroke="black" stroke-width="0.5"/><path d="M435.555 126.36H453.305" stroke="black" stroke-width="0.5"/><path d="M435.555 126.36V242.46" stroke="black" stroke-width="0.5"/><path d="M437.945 209.68L438.135 208.3ZM438.135 208.3L438.685 207.02ZM438.685 207.02L439.565 205.94ZM439.565 205.94L440.705 205.13ZM440.705 205.13L442.025 204.67ZM442.025 204.67L443.415 204.57ZM443.415 204.57L444.785 204.85ZM444.785 204.85L446.015 205.5ZM446.015 205.5L447.035 206.45ZM447.035 206.45L447.765 207.64ZM447.765 207.64L448.135 208.98ZM448.135 208.98V210.38ZM448.135 210.38L447.765 211.72ZM447.765 211.72L447.035 212.91ZM447.035 212.91L446.015 213.87ZM446.015 213.87L444.785 214.51ZM444.785 214.51L443.415 214.79ZM443.415 214.79L442.025 214.7ZM442.025 214.7L440.705 214.23ZM440.705 214.23L439.565 213.42ZM439.565 213.42L438.685 212.34ZM438.685 212.34L438.135 211.06ZM438.135 211.06L437.945 209.68Z" stroke="black" stroke-width="0.5"/><path d="M459.453 128.9V122.26" stroke="black" stroke-width="0.5"/><path d="M459.453 239.92V128.9" stroke="black" stroke-width="0.5"/><path d="M459.453 246.56V239.92" stroke="black" stroke-width="0.5"/><path d="M453.305 116.11L459.455 122.26" stroke="black" stroke-width="0.5"/><path d="M459.455 246.56L453.305 252.71" stroke="black" stroke-width="0.5"/><path d="M453.305 116.11V126.36" stroke="black" stroke-width="0.5"/><path d="M453.305 126.36L459.455 128.9" stroke="black" stroke-width="0.5"/><path d="M453.305 126.36V242.46" stroke="black" stroke-width="0.5"/><path d="M453.305 242.46L459.455 239.92" stroke="black" stroke-width="0.5"/><path d="M453.305 242.46V252.71" stroke="black" stroke-width="0.5"/><path d="M460.133 118.16V127.72" stroke="black" stroke-width="0.5"/><path d="M460.133 118.16L460.043 117.82L459.793 117.57L459.453 117.48" stroke="black" stroke-width="0.5"/><path d="M459.453 128.4L459.793 128.31L460.043 128.06L460.133 127.72" stroke="black" stroke-width="0.5"/><path d="M459.452 117.48H454.672" stroke="black" stroke-width="0.5"/><path d="M460.133 241.1V250.66" stroke="black" stroke-width="0.5"/><path d="M460.133 241.1L460.043 240.76L459.793 240.51L459.453 240.42" stroke="black" stroke-width="0.5"/><path d="M459.453 251.34L459.793 251.25L460.043 251L460.133 250.66" stroke="black" stroke-width="0.5"/><path d="M459.452 251.34H454.672" stroke="black" stroke-width="0.5"/><path d="M296.289 254.08V255.89" stroke="black" stroke-width="0.5"/><path d="M262.82 254.08V255.89" stroke="black" stroke-width="0.5"/><path d="M279.555 254.08H296.295" stroke="black" stroke-width="0.5"/><path d="M279.555 252.71V254.08" stroke="black" stroke-width="0.5"/><path d="M296.289 254.08V252.71" stroke="black" stroke-width="0.5"/><path d="M262.82 254.08H279.55" stroke="black" stroke-width="0.5"/><path d="M279.555 254.08V252.71" stroke="black" stroke-width="0.5"/><path d="M262.82 252.71V254.08" stroke="black" stroke-width="0.5"/><path d="M364.523 105.87H371.353" stroke="black" stroke-width="0.5"/><path d="M364.523 112.35V105.87" stroke="black" stroke-width="0.5"/><path d="M371.352 112.35V105.87" stroke="black" stroke-width="0.5"/><path d="M372.18 112.35H367.57" stroke="black" stroke-width="0.5"/><path d="M367.57 116.11V112.35" stroke="black" stroke-width="0.5"/><path d="M372.18 116.11V112.35" stroke="black" stroke-width="0.5"/><path d="M367.576 112.35H363.336" stroke="black" stroke-width="0.5"/><path d="M363.336 116.11V112.35" stroke="black" stroke-width="0.5"/><path d="M372.539 116.11V112.35" stroke="black" stroke-width="0.5"/><path d="M372.54 112.35H372.18" stroke="black" stroke-width="0.5"/><path d="M442.074 211.39L441.094 209.68" stroke="black" stroke-width="0.5"/><path d="M441.094 209.68L442.074 207.97" stroke="black" stroke-width="0.5"/><path d="M442.07 207.97H444.05" stroke="black" stroke-width="0.5"/><path d="M444.055 207.97L445.035 209.68" stroke="black" stroke-width="0.5"/><path d="M444.05 211.39H442.07" stroke="black" stroke-width="0.5"/><path d="M445.035 209.68L444.055 211.39" stroke="black" stroke-width="0.5"/><path d="M438.289 209.68L438.479 208.33ZM438.479 208.33L439.049 207.1ZM439.049 207.1L439.939 206.07ZM439.939 206.07L441.079 205.33ZM441.079 205.33L442.389 204.95ZM442.389 204.95H443.749ZM443.749 204.95L445.059 205.33ZM445.059 205.33L446.199 206.07ZM446.199 206.07L447.089 207.1ZM447.089 207.1L447.659 208.33ZM447.659 208.33L447.849 209.68ZM447.849 209.68L447.659 211.03ZM447.659 211.03L447.089 212.27ZM447.089 212.27L446.199 213.29ZM446.199 213.29L445.059 214.03ZM445.059 214.03L443.749 214.41ZM443.749 214.41H442.389ZM442.389 214.41L441.079 214.03ZM441.079 214.03L439.939 213.29ZM439.939 213.29L439.049 212.27ZM439.049 212.27L438.479 211.03ZM438.479 211.03L438.289 209.68Z" stroke="black" stroke-width="0.5"/><path d="M285.055 19.4897V21.9097" stroke="black" stroke-width="0.5"/><path d="M285.055 101.04V103.45" stroke="black" stroke-width="0.5"/><path d="M285.055 115.11V116.11" stroke="black" stroke-width="0.5"/><path d="M274.812 116.11V115.11" stroke="black" stroke-width="0.5"/><path d="M274.812 103.45V101.04" stroke="black" stroke-width="0.5"/><path d="M274.812 21.9097V19.4897" stroke="black" stroke-width="0.5"/><path d="M285.055 19.4901V7.83008" stroke="black" stroke-width="0.5"/><path d="M274.812 7.83008V19.4901" stroke="black" stroke-width="0.5"/><path d="M285.055 101.04V21.9097" stroke="black" stroke-width="0.5"/><path d="M274.812 21.9097V101.04" stroke="black" stroke-width="0.5"/><path d="M285.055 115.11V103.45" stroke="black" stroke-width="0.5"/><path d="M274.812 103.45V115.11" stroke="black" stroke-width="0.5"/><path d="M310.062 107.92V96.9897" stroke="black" stroke-width="0.5"/><path d="M310.898 97.8301V107.08" stroke="black" stroke-width="0.5"/><path d="M310.902 107.08L310.062 107.92" stroke="black" stroke-width="0.5"/><path d="M310.902 97.8298L310.062 96.9897" stroke="black" stroke-width="0.5"/><path d="M254.898 109.55V95.3501" stroke="black" stroke-width="0.5"/><path d="M254.898 109.55L255.038 110.1L255.438 110.5L255.988 110.65" stroke="black" stroke-width="0.5"/><path d="M255.988 94.2598L255.438 94.3997L255.038 94.7998L254.898 95.3498" stroke="black" stroke-width="0.5"/><path d="M265.82 110.65V94.2598" stroke="black" stroke-width="0.5"/><path d="M265.82 96.9897H265.89" stroke="black" stroke-width="0.5"/><path d="M274.094 96.9897H274.814" stroke="black" stroke-width="0.5"/><path d="M285.055 96.9897H285.905" stroke="black" stroke-width="0.5"/><path d="M305.039 96.9897H310.069" stroke="black" stroke-width="0.5"/><path d="M265.82 107.92H265.89" stroke="black" stroke-width="0.5"/><path d="M274.094 107.92H274.814" stroke="black" stroke-width="0.5"/><path d="M285.055 107.92H285.905" stroke="black" stroke-width="0.5"/><path d="M305.039 107.92H310.069" stroke="black" stroke-width="0.5"/><path d="M255.992 94.2598H265.822" stroke="black" stroke-width="0.5"/><path d="M255.992 110.65H265.822" stroke="black" stroke-width="0.5"/><path d="M305.039 94.77V110.13" stroke="black" stroke-width="0.5"/><path d="M301.273 94.77V110.13" stroke="black" stroke-width="0.5"/><path d="M301.273 94.77H305.033" stroke="black" stroke-width="0.5"/><path d="M301.273 110.13H305.033" stroke="black" stroke-width="0.5"/><path d="M300.982 110.65H300.972H300.962H300.952H300.942H300.932H300.922H300.912H300.892H300.882H300.862H300.842H300.822H300.802H300.782H300.762H300.732H300.702H300.672H300.642H300.612H300.582H300.542H300.502H300.472H300.422H300.382H300.342H300.292H300.242" stroke="black" stroke-width="0.5"/><path d="M300.242 94.2598H300.292H300.342H300.382H300.422H300.472H300.502H300.542H300.582H300.612H300.642H300.672H300.702H300.732H300.762H300.782H300.802H300.822H300.842H300.862H300.882H300.892H300.912H300.922H300.932H300.942H300.952H300.962H300.972H300.982" stroke="black" stroke-width="0.5"/><path d="M300.242 102.45L300.272 102.38L300.292 102.3L300.342 102.16L300.382 102.02L300.422 101.88L300.472 101.74L300.502 101.6L300.542 101.46L300.582 101.33L300.612 101.19L300.642 101.06L300.672 100.93L300.702 100.8L300.732 100.67L300.762 100.54L300.782 100.42L300.802 100.29L300.822 100.16L300.842 100.04L300.862 99.9198L300.882 99.7898L300.892 99.6698L300.912 99.5498L300.922 99.4297L300.932 99.3098L300.942 99.1898L300.952 99.0698L300.962 98.9498V98.8298L300.972 98.7097V98.5898V98.4698L300.982 98.3498L300.972 98.2298V98.1198V97.9998L300.962 97.8798V97.7598L300.952 97.6398L300.942 97.5198L300.932 97.3997L300.922 97.2798L300.912 97.1598L300.892 97.0298L300.882 96.9098L300.862 96.7898L300.842 96.6698L300.822 96.5398L300.802 96.4198L300.782 96.2898L300.762 96.1598L300.732 96.0398L300.702 95.9098L300.672 95.7798L300.642 95.6497L300.612 95.5098L300.582 95.3798L300.542 95.2498L300.502 95.1098L300.472 94.9698L300.422 94.8298L300.382 94.6898L300.342 94.5498L300.292 94.3997L300.272 94.3298L300.242 94.2598" stroke="black" stroke-width="0.5"/><path d="M300.242 110.65L300.272 110.57L300.292 110.5L300.342 110.36L300.382 110.21L300.422 110.07L300.472 109.93L300.502 109.79L300.542 109.66L300.582 109.52L300.612 109.39L300.642 109.26L300.672 109.13L300.702 109L300.732 108.87L300.762 108.74L300.782 108.61L300.802 108.49L300.822 108.36L300.842 108.24L300.862 108.11L300.882 107.99L300.892 107.87L300.912 107.75L300.922 107.63L300.932 107.5L300.942 107.38L300.952 107.26L300.962 107.14V107.03L300.972 106.91V106.79V106.67L300.982 106.55L300.972 106.43V106.31V106.19L300.962 106.07V105.95L300.952 105.83L300.942 105.71L300.932 105.59L300.922 105.47L300.912 105.35L300.892 105.23L300.882 105.11L300.862 104.99L300.842 104.86L300.822 104.74L300.802 104.61L300.782 104.49L300.762 104.36L300.732 104.23L300.702 104.1L300.672 103.97L300.642 103.84L300.612 103.71L300.582 103.58L300.542 103.44L300.502 103.3L300.472 103.17L300.422 103.03L300.382 102.89L300.342 102.74L300.292 102.6L300.272 102.52L300.242 102.45" stroke="black" stroke-width="0.5"/><path d="M295.128 110.65H295.078H295.028H294.988H294.948H294.908H294.868H294.828H294.788H294.758H294.728H294.698H294.668H294.638H294.618H294.588H294.568H294.548H294.528H294.508H294.488H294.478H294.458H294.448H294.438H294.428H294.418H294.408H294.398" stroke="black" stroke-width="0.5"/><path d="M295.128 102.45L295.098 102.52L295.078 102.6L295.028 102.74L294.988 102.89L294.948 103.03L294.908 103.17L294.868 103.3L294.828 103.44L294.788 103.58L294.758 103.71L294.728 103.84L294.698 103.97L294.668 104.1L294.638 104.23L294.618 104.36L294.588 104.49L294.568 104.61L294.548 104.74L294.528 104.86L294.508 104.99L294.488 105.11L294.478 105.23L294.458 105.35L294.448 105.47L294.438 105.59L294.428 105.71L294.418 105.83L294.408 105.95V106.07L294.398 106.19V106.31V106.43V106.55V106.67V106.79V106.91L294.408 107.03V107.14L294.418 107.26L294.428 107.38L294.438 107.5L294.448 107.63L294.458 107.75L294.478 107.87L294.488 107.99L294.508 108.11L294.528 108.24L294.548 108.36L294.568 108.49L294.588 108.61L294.618 108.74L294.638 108.87L294.668 109L294.698 109.13L294.728 109.26L294.758 109.39L294.788 109.52L294.828 109.66L294.868 109.79L294.908 109.93L294.948 110.07L294.988 110.21L295.028 110.36L295.078 110.5L295.098 110.57L295.128 110.65" stroke="black" stroke-width="0.5"/><path d="M295.128 94.2598L295.098 94.3298L295.078 94.3997L295.028 94.5498L294.988 94.6898L294.948 94.8298L294.908 94.9698L294.868 95.1098L294.828 95.2498L294.788 95.3798L294.758 95.5098L294.728 95.6497L294.698 95.7798L294.668 95.9098L294.638 96.0398L294.618 96.1598L294.588 96.2898L294.568 96.4198L294.548 96.5398L294.528 96.6698L294.508 96.7898L294.488 96.9098L294.478 97.0298L294.458 97.1598L294.448 97.2798L294.438 97.3997L294.428 97.5198L294.418 97.6398L294.408 97.7598V97.8798L294.398 97.9998V98.1198V98.2298V98.3498V98.4698V98.5898V98.7097L294.408 98.8298V98.9498L294.418 99.0698L294.428 99.1898L294.438 99.3098L294.448 99.4297L294.458 99.5498L294.478 99.6698L294.488 99.7898L294.508 99.9198L294.528 100.04L294.548 100.16L294.568 100.29L294.588 100.42L294.618 100.54L294.638 100.67L294.668 100.8L294.698 100.93L294.728 101.06L294.758 101.19L294.788 101.33L294.828 101.46L294.868 101.6L294.908 101.74L294.948 101.88L294.988 102.02L295.028 102.16L295.078 102.3L295.098 102.38L295.128 102.45" stroke="black" stroke-width="0.5"/><path d="M294.398 94.2598H294.408H294.418H294.428H294.438H294.448H294.458H294.478H294.488H294.508H294.528H294.548H294.568H294.588H294.618H294.638H294.668H294.698H294.728H294.758H294.788H294.828H294.868H294.908H294.948H294.988H295.028H295.078H295.128" stroke="black" stroke-width="0.5"/><path d="M301.274 110.13L300.984 110.65" stroke="black" stroke-width="0.5"/><path d="M301.274 94.7698L300.984 94.2598" stroke="black" stroke-width="0.5"/><path d="M294.102 94.7698L294.402 94.2598" stroke="black" stroke-width="0.5"/><path d="M294.102 110.13L294.402 110.65" stroke="black" stroke-width="0.5"/><path d="M295.133 94.2598H300.243" stroke="black" stroke-width="0.5"/><path d="M295.133 102.45H300.243" stroke="black" stroke-width="0.5"/><path d="M295.133 110.65H300.243" stroke="black" stroke-width="0.5"/><path d="M276.512 344.57H272.602" stroke="black" stroke-width="0.5"/><path d="M287.264 344.57H283.344" stroke="black" stroke-width="0.5"/><path d="M272.414 344.57H272.604" stroke="black" stroke-width="0.5"/><path d="M287.258 344.57H287.438" stroke="black" stroke-width="0.5"/><path d="M283.338 344.57H276.508" stroke="black" stroke-width="0.5"/><path d="M272.414 344.57H271.734" stroke="black" stroke-width="0.5"/><path d="M271.734 338.77V344.57" stroke="black" stroke-width="0.5"/><path d="M288.125 344.57H287.445" stroke="black" stroke-width="0.5"/><path d="M288.125 344.57V338.77" stroke="black" stroke-width="0.5"/><path d="M287.445 375.99V373.91" stroke="black" stroke-width="0.5"/><path d="M287.445 345.6V344.57" stroke="black" stroke-width="0.5"/><path d="M287.445 375.99V380.07" stroke="black" stroke-width="0.5"/><path d="M287.445 400.02V380.07" stroke="black" stroke-width="0.5"/><path d="M287.445 400.02V415.6" stroke="black" stroke-width="0.5"/><path d="M272.414 415.6V400.02" stroke="black" stroke-width="0.5"/><path d="M272.414 380.07V400.02" stroke="black" stroke-width="0.5"/><path d="M272.414 380.07V375.99" stroke="black" stroke-width="0.5"/><path d="M272.414 344.57V345.6" stroke="black" stroke-width="0.5"/><path d="M272.414 373.91V375.99" stroke="black" stroke-width="0.5"/><path d="M276.508 353.47V353.91" stroke="black" stroke-width="0.5"/><path d="M276.508 352.59V353.47" stroke="black" stroke-width="0.5"/><path d="M276.508 345.66V352.59" stroke="black" stroke-width="0.5"/><path d="M276.508 344.57V345.66" stroke="black" stroke-width="0.5"/><path d="M283.344 353.91V353.47" stroke="black" stroke-width="0.5"/><path d="M283.344 353.47V352.59" stroke="black" stroke-width="0.5"/><path d="M283.338 352.59H276.508" stroke="black" stroke-width="0.5"/><path d="M283.344 352.59V345.66" stroke="black" stroke-width="0.5"/><path d="M283.344 345.66V344.57" stroke="black" stroke-width="0.5"/><path d="M272.414 415.6H287.444" stroke="black" stroke-width="0.5"/><path d="M272.414 375.99H287.444" stroke="black" stroke-width="0.5"/><path d="M276.265 347.08V347.1V347.12V347.14L276.255 347.16V347.18L276.245 347.2L276.235 347.22L276.215 347.24L276.205 347.26L276.185 347.28L276.165 347.29L276.145 347.31L276.125 347.33L276.105 347.34L276.085 347.35L276.055 347.37" stroke="black" stroke-width="0.5"/><path d="M274.125 349.24L274.055 349.25" stroke="black" stroke-width="0.5"/><path d="M274.435 349.22L274.295 349.23L274.125 349.24" stroke="black" stroke-width="0.5"/><path d="M276.258 347.09V347.14L276.268 347.18V347.23L276.278 347.27L276.288 347.32L276.298 347.37L276.308 347.41L276.318 347.46L276.338 347.5L276.348 347.55L276.368 347.59L276.388 347.64L276.398 347.68L276.418 347.73L276.438 347.77L276.468 347.82" stroke="black" stroke-width="0.5"/><path d="M276.227 346.82L276.267 347.08" stroke="black" stroke-width="0.5"/><path d="M276.023 346.86V346.9L276.033 346.95V346.99V347.04L276.043 347.13V347.23L276.053 347.32V347.42L276.063 347.52L276.073 347.63V347.73L276.083 347.84L276.093 347.95V348.06L276.103 348.17L276.113 348.29L276.123 348.4V348.52L276.143 348.75L276.153 348.98L276.183 349.46L276.193 349.57L276.203 349.69L276.213 349.92L276.223 350.04L276.233 350.15V350.26L276.243 350.37L276.253 350.48V350.59L276.263 350.7L276.273 350.8V350.9L276.283 351V351.1L276.293 351.19V351.29L276.303 351.38V351.42V351.46V351.51L276.313 351.55V351.59V351.63V351.67V351.71V351.75L276.323 351.78V351.82V351.86V351.89V351.93V351.96V351.99V352.03V352.06V352.09L276.333 352.12V352.15V352.17V352.2V352.23V352.25V352.28V352.3V352.32L276.323 352.37V352.41V352.45V352.48V352.52L276.313 352.54V352.56V352.58L276.303 352.6V352.62L276.293 352.63V352.64L276.283 352.66" stroke="black" stroke-width="0.5"/><path d="M275.495 352.68V352.69L275.485 352.7V352.72L275.475 352.73V352.75L275.465 352.76L275.455 352.78L275.445 352.8" stroke="black" stroke-width="0.5"/><path d="M273.585 347L273.575 346.93V346.87V346.8L273.565 346.74V346.68V346.62V346.57L273.555 346.52V346.47V346.42V346.37V346.33V346.29V346.25V346.21V346.17V346.14V346.11V346.08V346.05L273.565 346.02V345.99V345.97V345.96L273.575 345.94V345.92V345.91L273.585 345.9V345.89L273.595 345.87V345.86L273.605 345.84V345.83L273.615 345.81L273.625 345.8L273.635 345.78L273.645 345.76L273.665 345.75L273.675 345.73L273.695 345.72L273.705 345.7L273.725 345.69L273.745 345.67L273.755 345.66L273.775 345.65L273.795 345.64L273.825 345.63L273.845 345.62L273.865 345.61H273.885L273.905 345.6H273.935H273.955H273.975H274.005H274.025H274.045L274.075 345.61" stroke="black" stroke-width="0.5"/><path d="M274.453 345.69L274.473 345.66L274.493 345.64L274.523 345.62L274.543 345.6L274.573 345.58L274.583 345.57L274.603 345.56L274.613 345.55L274.633 345.54H274.643L274.663 345.53H274.683L274.693 345.52H274.713H274.733L274.743 345.51H274.763H274.783H274.803H274.813H274.833H274.853L274.863 345.52H274.883H274.903L274.933 345.53" stroke="black" stroke-width="0.5"/><path d="M275.258 345.62L275.268 345.6L275.278 345.59L275.288 345.58L275.298 345.56L275.308 345.55L275.328 345.54L275.338 345.52L275.348 345.51L275.368 345.5L275.378 345.49L275.398 345.48L275.418 345.47L275.428 345.46H275.448L275.468 345.45L275.488 345.44H275.508L275.518 345.43H275.538H275.558H275.578H275.598H275.618H275.638H275.658H275.678L275.688 345.44H275.708H275.728L275.748 345.45L275.768 345.46L275.778 345.47" stroke="black" stroke-width="0.5"/><path d="M276.125 346.23L276.135 346.26V346.29L276.145 346.32V346.36L276.155 346.39V346.43L276.165 346.46L276.175 346.5V346.54L276.185 346.57V346.61L276.195 346.65L276.205 346.73L276.225 346.82" stroke="black" stroke-width="0.5"/><path d="M274.711 350.95L274.951 353.28" stroke="black" stroke-width="0.5"/><path d="M273.883 350.88L274.083 352.8" stroke="black" stroke-width="0.5"/><path d="M283.602 347.08V347.1V347.12V347.14V347.16L283.612 347.18L283.622 347.2L283.632 347.22L283.642 347.24L283.662 347.26L283.672 347.28L283.692 347.29L283.712 347.31L283.732 347.33L283.752 347.34L283.782 347.35L283.802 347.37" stroke="black" stroke-width="0.5"/><path d="M283.398 347.82L283.418 347.77L283.438 347.73L283.458 347.68L283.478 347.64L283.498 347.59L283.508 347.55L283.528 347.5L283.538 347.46L283.548 347.41L283.558 347.37L283.568 347.32L283.578 347.27L283.588 347.23L283.598 347.18V347.14L283.608 347.09" stroke="black" stroke-width="0.5"/><path d="M285.742 349.24L285.562 349.23L285.422 349.22" stroke="black" stroke-width="0.5"/><path d="M285.812 349.25L285.742 349.24" stroke="black" stroke-width="0.5"/><path d="M283.648 346.82L283.658 346.73L283.668 346.65L283.678 346.61L283.688 346.58V346.54L283.698 346.5V346.46L283.708 346.43L283.718 346.39V346.36L283.728 346.33V346.29L283.738 346.26V346.23" stroke="black" stroke-width="0.5"/><path d="M284.07 345.47L284.09 345.46L284.11 345.45L284.12 345.44H284.14H284.16L284.18 345.43H284.2H284.22H284.24H284.26H284.27H284.29H284.31H284.33L284.35 345.44H284.37L284.39 345.45L284.4 345.46H284.42L284.44 345.47L284.46 345.48L284.47 345.49L284.49 345.5L284.5 345.51L284.52 345.52L284.53 345.54L284.54 345.55L284.56 345.56L284.57 345.58L284.58 345.59L284.59 345.6L284.6 345.62" stroke="black" stroke-width="0.5"/><path d="M284.922 345.53H284.942L284.962 345.52H284.972H284.992L285.012 345.51H285.022H285.042H285.062H285.082H285.092H285.112L285.132 345.52H285.142H285.162L285.182 345.53H285.192L285.212 345.54H285.232L285.242 345.55L285.262 345.56L285.292 345.58L285.302 345.59L285.312 345.6L285.342 345.62L285.362 345.64L285.382 345.66L285.402 345.69" stroke="black" stroke-width="0.5"/><path d="M285.461 346.92V346.93" stroke="black" stroke-width="0.5"/><path d="M285.789 345.6H285.809H285.839H285.859H285.879H285.909H285.929H285.949L285.969 345.61H285.999L286.019 345.62L286.039 345.63L286.059 345.64L286.079 345.65L286.099 345.66L286.119 345.67L286.139 345.69L286.149 345.7L286.169 345.72L286.189 345.73L286.199 345.75L286.209 345.76L286.219 345.78L286.229 345.8L286.239 345.81L286.249 345.83L286.259 345.84V345.86L286.269 345.87V345.89L286.279 345.9V345.91V345.92L286.289 345.94V345.96V345.97L286.299 345.99V346.02V346.05V346.08L286.309 346.11V346.14V346.17V346.21V346.25V346.29V346.33L286.299 346.37V346.42V346.46V346.51V346.57V346.62L286.289 346.68V346.74V346.8V346.87L286.279 346.93V347" stroke="black" stroke-width="0.5"/><path d="M284.415 352.8L284.405 352.78L284.395 352.76V352.75L284.385 352.73V352.72L284.375 352.7V352.69V352.68" stroke="black" stroke-width="0.5"/><path d="M283.579 352.66V352.64L283.569 352.63V352.62L283.559 352.6V352.58V352.56L283.549 352.54V352.52V352.48L283.539 352.45V352.41V352.37V352.32V352.3V352.28V352.25V352.23V352.2V352.17V352.15V352.12V352.09V352.06V352.03V351.99V351.96V351.93L283.549 351.89V351.86V351.82V351.79V351.75V351.71V351.67L283.559 351.63V351.59V351.55V351.51V351.46L283.569 351.38V351.29L283.579 351.19V351.1L283.589 351V350.9L283.599 350.8V350.7L283.609 350.59L283.619 350.48V350.37L283.629 350.26L283.639 350.15V350.04L283.649 349.92L283.659 349.81L283.669 349.69L283.679 349.46L283.709 348.98L283.729 348.75L283.739 348.52L283.749 348.4L283.759 348.29V348.17L283.769 348.06L283.779 347.95L283.789 347.84V347.73L283.799 347.63L283.809 347.52V347.42L283.819 347.32V347.23L283.829 347.13V347.04L283.839 346.99V346.95V346.9V346.86" stroke="black" stroke-width="0.5"/><path d="M284.914 353.28L285.154 350.95" stroke="black" stroke-width="0.5"/><path d="M285.773 352.8L285.973 350.88" stroke="black" stroke-width="0.5"/><path d="M286.414 375.99L286.594 375.62" stroke="black" stroke-width="0.5"/><path d="M273.273 352.25L275.013 353.3L276.913 354.03L278.913 354.39H280.943L282.943 354.03L284.853 353.3L286.593 352.25" stroke="black" stroke-width="0.5"/><path d="M273.273 375.62L273.453 375.99" stroke="black" stroke-width="0.5"/><path d="M273.427 375.99L271.227 371.43" stroke="black" stroke-width="0.5"/><path d="M288.645 371.43L286.445 375.99" stroke="black" stroke-width="0.5"/><path d="M273.277 375.62L272.747 374.52L272.247 373.5L271.827 372.63L271.497 371.97L271.297 371.56L271.227 371.43" stroke="black" stroke-width="0.5"/><path d="M288.644 371.43L288.574 371.56L288.364 371.97L288.044 372.63L287.614 373.5L287.124 374.52L286.594 375.62" stroke="black" stroke-width="0.5"/><path d="M288.648 371.43V348.59" stroke="black" stroke-width="0.5"/><path d="M288.336 351.6L288.506 350.66L288.606 349.64L288.646 348.59" stroke="black" stroke-width="0.5"/><path d="M288.334 351.6L288.324 351.63L288.314 351.67L288.304 351.7L288.294 351.73L288.284 351.76L288.274 351.79L288.254 351.81L288.244 351.84L288.234 351.87L288.214 351.89L288.204 351.92L288.184 351.94L288.164 351.96L288.144 351.98L288.124 352L288.114 352.02L288.094 352.04L288.064 352.06L288.044 352.07L288.024 352.09L287.994 352.1L287.974 352.12L287.944 352.13L287.924 352.14L287.894 352.15L287.864 352.16L287.834 352.17L287.804 352.18L287.784 352.19L287.754 352.2H287.724L287.694 352.21L287.664 352.22H287.634L287.574 352.23L287.514 352.24H287.444L287.374 352.25H287.304H287.234H287.164H287.024H286.874H286.734H286.664H286.594" stroke="black" stroke-width="0.5"/><path d="M273.279 352.25H273.209H273.139H272.989H272.849H272.699H272.629H272.559H272.489L272.429 352.24H272.359L272.299 352.23L272.229 352.22H272.199L272.179 352.21L272.149 352.2H272.119L272.089 352.19L272.059 352.18L272.029 352.17L271.999 352.16L271.979 352.15L271.949 352.14L271.919 352.13L271.899 352.12L271.869 352.1L271.849 352.09L271.819 352.07L271.799 352.06L271.779 352.04L271.759 352.02L271.739 352L271.719 351.98L271.699 351.96L271.689 351.94L271.669 351.92L271.649 351.89L271.639 351.87L271.619 351.84L271.609 351.81L271.599 351.79L271.589 351.76L271.579 351.73L271.569 351.7L271.559 351.67L271.549 351.63L271.539 351.6" stroke="black" stroke-width="0.5"/><path d="M271.227 348.59L271.257 349.64L271.367 350.66L271.537 351.6" stroke="black" stroke-width="0.5"/><path d="M271.227 348.59V371.43" stroke="black" stroke-width="0.5"/><path d="M286.594 352.25V351.6" stroke="black" stroke-width="0.5"/><path d="M271.227 348.59V347.99" stroke="black" stroke-width="0.5"/><path d="M271.227 345.6V347.99" stroke="black" stroke-width="0.5"/><path d="M273.273 347.99V351.6" stroke="black" stroke-width="0.5"/><path d="M273.273 351.6V352.25" stroke="black" stroke-width="0.5"/><path d="M288.648 347.99V348.59" stroke="black" stroke-width="0.5"/><path d="M286.594 351.6V347.99" stroke="black" stroke-width="0.5"/><path d="M288.648 347.99V345.6" stroke="black" stroke-width="0.5"/><path d="M286.594 345.6V347.99" stroke="black" stroke-width="0.5"/><path d="M273.273 347.99V345.6" stroke="black" stroke-width="0.5"/><path d="M286.594 345.6H288.644" stroke="black" stroke-width="0.5"/><path d="M271.227 345.6H273.277" stroke="black" stroke-width="0.5"/><path d="M283.642 346.82L283.602 347.08" stroke="black" stroke-width="0.5"/><path d="M289.268 346.96L288.648 346.62" stroke="black" stroke-width="0.5"/><path d="M288.648 352.08L289.268 351.74" stroke="black" stroke-width="0.5"/><path d="M273.273 347.82H273.553" stroke="black" stroke-width="0.5"/><path d="M276.086 347.82H276.516" stroke="black" stroke-width="0.5"/><path d="M283.344 347.82H283.784" stroke="black" stroke-width="0.5"/><path d="M286.305 347.82H286.595" stroke="black" stroke-width="0.5"/><path d="M273.273 350.89H273.643" stroke="black" stroke-width="0.5"/><path d="M276.273 350.89H276.513" stroke="black" stroke-width="0.5"/><path d="M283.344 350.89H283.584" stroke="black" stroke-width="0.5"/><path d="M286.211 350.89H286.591" stroke="black" stroke-width="0.5"/><path d="M270.695 351.81L271.225 352.08" stroke="black" stroke-width="0.5"/><path d="M271.225 346.62L270.875 346.79" stroke="black" stroke-width="0.5"/><path d="M275.789 345.47L275.809 345.46H275.829H275.849H275.869" stroke="black" stroke-width="0.5"/><path d="M275.867 345.46H275.897H275.927L275.957 345.47L275.987 345.48L276.017 345.49L276.047 345.5L276.067 345.52L276.097 345.54L276.127 345.56L276.147 345.58L276.167 345.6L276.187 345.62L276.207 345.65L276.217 345.68L276.237 345.71L276.247 345.74L276.257 345.77V345.8L276.267 345.83V345.86V345.89V345.92L276.257 345.95L276.247 345.98L276.237 346.01L276.227 346.04L276.207 346.07L276.197 346.1L276.177 346.12L276.157 346.15L276.137 346.17L276.107 346.19" stroke="black" stroke-width="0.5"/><path d="M273.727 351.84L273.817 352.01L274.017 352.09" stroke="black" stroke-width="0.5"/><path d="M276.514 346.2H276.484L276.454 346.21H276.414H276.384H276.354H276.324L276.304 346.22H276.274H276.244H276.224H276.194L276.174 346.23H276.154H276.134H276.114H276.094" stroke="black" stroke-width="0.5"/><path d="M275.789 345.46H275.799L275.819 345.45H275.849L275.889 345.44H275.919L275.959 345.43H275.989L276.039 345.42H276.079L276.129 345.41H276.169H276.229L276.279 345.4H276.339L276.399 345.39H276.459H276.519" stroke="black" stroke-width="0.5"/><path d="M273.725 351.84L273.715 351.79V351.73L273.705 351.66V351.6L273.695 351.54V351.47L273.685 351.4L273.675 351.34V351.27L273.665 351.2V351.12L273.655 351.05V350.98L273.645 350.9V350.83L273.635 350.75V350.67L273.625 350.6V350.52V350.44L273.615 350.27L273.605 350.11L273.595 349.95L273.585 349.78V349.61L273.575 349.44V349.27L273.565 349.1V348.94L273.555 348.77V348.6V348.44V348.28V348.2V348.12V348.04V347.96V347.89V347.81V347.74V347.66V347.59L273.565 347.52V347.45V347.38V347.31V347.24L273.575 347.17V347.11V347.05L273.585 346.98" stroke="black" stroke-width="0.5"/><path d="M274.062 345.61L274.092 345.6L274.112 345.59H274.143H274.172L274.203 345.58L274.222 345.59H274.253H274.282L274.312 345.6H274.332L274.362 345.61L274.383 345.62L274.402 345.63L274.432 345.65L274.453 345.66L274.472 345.67" stroke="black" stroke-width="0.5"/><path d="M275.492 352.69V352.71L275.482 352.72V352.73L275.472 352.75V352.76L275.462 352.78V352.79L275.452 352.81L275.442 352.83L275.432 352.85L275.422 352.87L275.402 352.89L275.382 352.91L275.372 352.93L275.352 352.94L275.332 352.96L275.302 352.98L275.282 352.99L275.252 353L275.232 353.02L275.202 353.03H275.172L275.152 353.04H275.122H275.092H275.062H275.032H275.002L274.982 353.03L274.952 353.02H274.922" stroke="black" stroke-width="0.5"/><path d="M274.383 347.07L274.393 347.03V346.98V346.93V346.88" stroke="black" stroke-width="0.5"/><path d="M274.922 345.54L274.952 345.53H274.972H274.992H275.022H275.042H275.062H275.092L275.112 345.54H275.132L275.152 345.55L275.172 345.56H275.192L275.212 345.57L275.232 345.58L275.252 345.59L275.272 345.6" stroke="black" stroke-width="0.5"/><path d="M275.203 347.09V347V346.92L275.213 346.84V346.77" stroke="black" stroke-width="0.5"/><path d="M276.123 346.12V346.13L276.113 346.14V346.15V346.16V346.17L276.103 346.19V346.2L276.093 346.22V346.24V346.26L276.083 346.28V346.3V346.32L276.073 346.35V346.37L276.063 346.4V346.43V346.46L276.053 346.49V346.52V346.55L276.043 346.58V346.61V346.65L276.033 346.68V346.72V346.75V346.79L276.023 346.83V346.87" stroke="black" stroke-width="0.5"/><path d="M275.19 347.27V347.36L275.18 347.44V347.53V347.63V347.72V347.81V347.91V348.01V348.11V348.21V348.31V348.41V348.52V348.62V348.83L275.19 349.04L275.2 349.26V349.47L275.21 349.68L275.22 349.89L275.23 350.1L275.24 350.21V350.31L275.25 350.41V350.51L275.26 350.61V350.7L275.27 350.8L275.28 350.89V350.99L275.29 351.08L275.3 351.17V351.25L275.31 351.34L275.32 351.42V351.5L275.33 351.58L275.34 351.65V351.72L275.35 351.79L275.36 351.86V351.93L275.37 351.96V351.99V352.02L275.38 352.05V352.07V352.1L275.39 352.13V352.15V352.18L275.4 352.2V352.23V352.25L275.41 352.27V352.29V352.31L275.42 352.33V352.35V352.37V352.38L275.43 352.4V352.41V352.42V352.44L275.44 352.45V352.46V352.47V352.48" stroke="black" stroke-width="0.5"/><path d="M273.727 351.86L273.847 352.65" stroke="black" stroke-width="0.5"/><path d="M284.002 345.46H283.972H283.942L283.912 345.47L283.882 345.48L283.852 345.49L283.822 345.5L283.792 345.52L283.762 345.54L283.742 345.56L283.722 345.58L283.692 345.6L283.682 345.62L283.662 345.65L283.642 345.68L283.632 345.71L283.622 345.74L283.612 345.77L283.602 345.8V345.83V345.86V345.89V345.92L283.612 345.95V345.98L283.622 346.01L283.642 346.04L283.652 346.07L283.672 346.1L283.692 346.12L283.712 346.15L283.732 346.17L283.752 346.19" stroke="black" stroke-width="0.5"/><path d="M284.078 345.47L284.058 345.46H284.048H284.028H284.008" stroke="black" stroke-width="0.5"/><path d="M283.764 346.23H283.754H283.734H283.704H283.684L283.664 346.22H283.644H283.614H283.594H283.564L283.534 346.21H283.504H283.474H283.444H283.414L283.384 346.2H283.344" stroke="black" stroke-width="0.5"/><path d="M283.344 345.39H283.414H283.474L283.534 345.4H283.594L283.644 345.41H283.694H283.744L283.794 345.42H283.834L283.874 345.43H283.914L283.944 345.44H283.984L284.014 345.45H284.044L284.064 345.46H284.084" stroke="black" stroke-width="0.5"/><path d="M285.852 352.09L286.052 352.01L286.142 351.84" stroke="black" stroke-width="0.5"/><path d="M284.648 346.77L284.658 346.84V346.92V347L284.668 347.08" stroke="black" stroke-width="0.5"/><path d="M284.594 345.6L284.604 345.59L284.624 345.58L284.644 345.57L284.664 345.56H284.684L284.704 345.55L284.724 345.54H284.754L284.774 345.53H284.794H284.824H284.844H284.864H284.894H284.914L284.934 345.54" stroke="black" stroke-width="0.5"/><path d="M285.461 346.88V346.93L285.471 346.98V347.03V347.07" stroke="black" stroke-width="0.5"/><path d="M284.935 353.02H284.915L284.885 353.03L284.855 353.04H284.825H284.795H284.775H284.745H284.715L284.685 353.03H284.655L284.635 353.02L284.605 353L284.585 352.99L284.555 352.98L284.535 352.96L284.515 352.94L284.495 352.93L284.475 352.91L284.455 352.89L284.445 352.87L284.435 352.85L284.425 352.83L284.415 352.81L284.405 352.79L284.395 352.78V352.76L284.385 352.75V352.73L284.375 352.72V352.71V352.69" stroke="black" stroke-width="0.5"/><path d="M285.398 345.67L285.418 345.66L285.438 345.65L285.458 345.63L285.478 345.62L285.508 345.61L285.528 345.6H285.558L285.588 345.59H285.608H285.638L285.668 345.58L285.698 345.59H285.718H285.748L285.778 345.6L285.808 345.61" stroke="black" stroke-width="0.5"/><path d="M286.288 346.98V347.05V347.11L286.298 347.17V347.24V347.31L286.308 347.38V347.45V347.52V347.59V347.66V347.74V347.81L286.318 347.89V347.96V348.04V348.12V348.2V348.28V348.36V348.44L286.308 348.6V348.77V348.94L286.298 349.11V349.27L286.288 349.44V349.61L286.278 349.78L286.268 349.95V350.11L286.258 350.28L286.248 350.44L286.238 350.6V350.67L286.228 350.75V350.83L286.218 350.9V350.98L286.208 351.05V351.13L286.198 351.2V351.27L286.188 351.34V351.41L286.178 351.47L286.168 351.54V351.6L286.158 351.66V351.73L286.148 351.79V351.84" stroke="black" stroke-width="0.5"/><path d="M283.834 346.87V346.83V346.79V346.75L283.824 346.72V346.68V346.65L283.814 346.61V346.58V346.55L283.804 346.52V346.49V346.46L283.794 346.43V346.4V346.37L283.784 346.35V346.32V346.3L283.774 346.28V346.26L283.764 346.24V346.22V346.2L283.754 346.19V346.17V346.16L283.744 346.15V346.14V346.13L283.734 346.12" stroke="black" stroke-width="0.5"/><path d="M286.008 352.65L286.138 351.86" stroke="black" stroke-width="0.5"/><path d="M291.375 347.24V351.47" stroke="black" stroke-width="0.5"/><path d="M291.374 347.24L291.294 347.04L291.094 346.96" stroke="black" stroke-width="0.5"/><path d="M291.094 351.74L291.294 351.66L291.374 351.47" stroke="black" stroke-width="0.5"/><path d="M291.088 351.74H289.258" stroke="black" stroke-width="0.5"/><path d="M291.088 346.96H289.258" stroke="black" stroke-width="0.5"/><path d="M267.805 351.37V347.34" stroke="black" stroke-width="0.5"/><path d="M269.671 351.37L269.641 351.39L269.621 351.42L269.591 351.44L269.571 351.46L269.551 351.48L269.541 351.5L269.521 351.52L269.511 351.54L269.491 351.55L269.481 351.57V351.59L269.471 351.61L269.461 351.63V351.65V351.66V351.68V351.7V351.72V351.74L269.471 351.75L269.481 351.77V351.79L269.491 351.81L269.511 351.83L269.521 351.85L269.541 351.87L269.551 351.89L269.571 351.91L269.591 351.93L269.621 351.95L269.641 351.97L269.671 351.99" stroke="black" stroke-width="0.5"/><path d="M269.671 348.73L269.661 348.78L269.641 348.83L269.631 348.87L269.621 348.92L269.601 348.96L269.591 349.01L269.571 349.09L269.551 349.18L269.541 349.26L269.521 349.35L269.511 349.43L269.491 349.51L269.481 349.59V349.67L269.471 349.74L269.461 349.82V349.9V349.98V350.05V350.13V350.21V350.28L269.471 350.36L269.481 350.44V350.52L269.491 350.6L269.511 350.68L269.521 350.76L269.541 350.84L269.551 350.92L269.571 351.01L269.591 351.1L269.601 351.14L269.621 351.19L269.631 351.23L269.641 351.28L269.661 351.32L269.671 351.37" stroke="black" stroke-width="0.5"/><path d="M269.671 346.71L269.661 346.75L269.641 346.78L269.631 346.82L269.621 346.85L269.591 346.92L269.571 346.99L269.551 347.06L269.541 347.12L269.521 347.18L269.511 347.25L269.491 347.31L269.481 347.37V347.43L269.471 347.49L269.461 347.55V347.61V347.66V347.72V347.78V347.84V347.9L269.471 347.96L269.481 348.02V348.08L269.491 348.14L269.511 348.2L269.521 348.26L269.541 348.33L269.551 348.39L269.571 348.46L269.591 348.52L269.621 348.59L269.631 348.63L269.641 348.66L269.661 348.7L269.671 348.73" stroke="black" stroke-width="0.5"/><path d="M269.492 346.9L269.512 346.88L269.522 346.86L269.542 346.83L269.562 346.81L269.582 346.79L269.612 346.76L269.622 346.75L269.642 346.74L269.652 346.73L269.672 346.71" stroke="black" stroke-width="0.5"/><path d="M269.242 351.37V347.34" stroke="black" stroke-width="0.5"/><path d="M270.789 351.37L270.799 351.32L270.819 351.27L270.829 351.22L270.849 351.17L270.859 351.12L270.869 351.07L270.879 351.02L270.889 350.97" stroke="black" stroke-width="0.5"/><path d="M270.889 349.13L270.879 349.08L270.869 349.03L270.859 348.99L270.849 348.94L270.829 348.89L270.819 348.84L270.799 348.78L270.789 348.73" stroke="black" stroke-width="0.5"/><path d="M270.789 351.99L270.809 351.97L270.829 351.95L270.859 351.94L270.869 351.92" stroke="black" stroke-width="0.5"/><path d="M270.889 351.47L270.869 351.44L270.849 351.42L270.819 351.4L270.799 351.38L270.789 351.37" stroke="black" stroke-width="0.5"/><path d="M270.789 346.71L270.799 346.73L270.819 346.74L270.849 346.76L270.869 346.78L270.889 346.81" stroke="black" stroke-width="0.5"/><path d="M270.789 348.73L270.799 348.69L270.819 348.65L270.829 348.61L270.849 348.58L270.859 348.54L270.869 348.5L270.879 348.46L270.889 348.43" stroke="black" stroke-width="0.5"/><path d="M270.889 347.02L270.879 346.98L270.869 346.94L270.859 346.91L270.849 346.87L270.829 346.83L270.819 346.79L270.799 346.75L270.789 346.71" stroke="black" stroke-width="0.5"/><path d="M270.792 346.71H269.672" stroke="black" stroke-width="0.5"/><path d="M270.792 348.73H269.672" stroke="black" stroke-width="0.5"/><path d="M270.792 351.37H269.672" stroke="black" stroke-width="0.5"/><path d="M270.792 351.99H269.672" stroke="black" stroke-width="0.5"/><path d="M269.242 347.34L269.492 346.9" stroke="black" stroke-width="0.5"/><path d="M269.242 351.37L269.492 351.81" stroke="black" stroke-width="0.5"/><path d="M269.245 351.37H267.805" stroke="black" stroke-width="0.5"/><path d="M269.245 347.34H267.805" stroke="black" stroke-width="0.5"/><path d="M271.227 345.6V347.99" stroke="black" stroke-width="0.5"/><path d="M288.648 347.99V345.6" stroke="black" stroke-width="0.5"/><path d="M286.594 345.6V347.99" stroke="black" stroke-width="0.5"/><path d="M273.273 347.99V345.6" stroke="black" stroke-width="0.5"/><path d="M286.594 345.6H288.644" stroke="black" stroke-width="0.5"/><path d="M271.227 345.6H273.277" stroke="black" stroke-width="0.5"/><path d="M271.918 268.18L271.898 268.42" stroke="black" stroke-width="0.5"/><path d="M287.936 268.18L287.836 267.5" stroke="black" stroke-width="0.5"/><path d="M283.128 268.4L282.898 267.72" stroke="black" stroke-width="0.5"/><path d="M276.857 267.96L276.727 268.42" stroke="black" stroke-width="0.5"/><path d="M282.312 268.42L282.323 268.21" stroke="black" stroke-width="0.5"/><path d="M277.539 268.21L277.549 268.42" stroke="black" stroke-width="0.5"/><path d="M277.539 267.93V268.21" stroke="black" stroke-width="0.5"/><path d="M282.32 268.21V267.75" stroke="black" stroke-width="0.5"/><path d="M277.539 254.08V254.76" stroke="black" stroke-width="0.5"/><path d="M282.32 254.76V254.08" stroke="black" stroke-width="0.5"/><path d="M277.539 255.89V254.76" stroke="black" stroke-width="0.5"/><path d="M282.32 255.89V254.76" stroke="black" stroke-width="0.5"/><path d="M265.695 268.42H294.165" stroke="black" stroke-width="0.5"/><path d="M265.688 268.42L264.978 268.51L264.328 268.78L263.758 269.22" stroke="black" stroke-width="0.5"/><path d="M296.104 269.22L295.534 268.78L294.874 268.51L294.164 268.42" stroke="black" stroke-width="0.5"/><path d="M257.167 275.81L256.737 276.38L256.467 277.04L256.367 277.75" stroke="black" stroke-width="0.5"/><path d="M303.495 277.75L303.405 277.04L303.125 276.38L302.695 275.81" stroke="black" stroke-width="0.5"/><path d="M303.492 277.75V295.73" stroke="black" stroke-width="0.5"/><path d="M303.492 295.73V337.06" stroke="black" stroke-width="0.5"/><path d="M256.367 277.75V337.06" stroke="black" stroke-width="0.5"/><path d="M296.102 269.22L302.692 275.81" stroke="black" stroke-width="0.5"/><path d="M263.764 269.22L257.164 275.81" stroke="black" stroke-width="0.5"/><path d="M256.367 337.06L256.497 337.71L256.867 338.27L257.427 338.64L258.077 338.77" stroke="black" stroke-width="0.5"/><path d="M301.789 338.77L302.449 338.64L302.999 338.27L303.369 337.71L303.499 337.06" stroke="black" stroke-width="0.5"/><path d="M258.07 338.77H301.78" stroke="black" stroke-width="0.5"/><path d="M265.695 268.42H294.165" stroke="black" stroke-width="0.5"/><path d="M265.688 268.42L264.978 268.51L264.328 268.78L263.758 269.22" stroke="black" stroke-width="0.5"/><path d="M296.104 269.22L295.534 268.78L294.874 268.51L294.164 268.42" stroke="black" stroke-width="0.5"/><path d="M257.167 275.81L256.737 276.38L256.467 277.04L256.367 277.75" stroke="black" stroke-width="0.5"/><path d="M303.495 277.75L303.405 277.04L303.125 276.38L302.695 275.81" stroke="black" stroke-width="0.5"/><path d="M303.492 277.75V295.73" stroke="black" stroke-width="0.5"/><path d="M303.492 295.73V337.06" stroke="black" stroke-width="0.5"/><path d="M256.367 277.75V337.06" stroke="black" stroke-width="0.5"/><path d="M296.102 269.22L302.692 275.81" stroke="black" stroke-width="0.5"/><path d="M263.764 269.22L257.164 275.81" stroke="black" stroke-width="0.5"/><path d="M256.367 337.06L256.497 337.71L256.867 338.27L257.427 338.64L258.077 338.77" stroke="black" stroke-width="0.5"/><path d="M301.789 338.77L302.449 338.64L302.999 338.27L303.369 337.71L303.499 337.06" stroke="black" stroke-width="0.5"/><path d="M258.07 338.77H301.78" stroke="black" stroke-width="0.5"/><path d="M259.445 255.89H300.425" stroke="black" stroke-width="0.5"/><path d="M259.445 266.13H300.425" stroke="black" stroke-width="0.5"/><path d="M259.445 266.13V255.89" stroke="black" stroke-width="0.5"/><path d="M300.422 266.13V255.89" stroke="black" stroke-width="0.5"/><path d="M296.289 255.49L297.569 254.62L298.619 253.69L299.409 252.71" stroke="black" stroke-width="0.5"/><path d="M260.07 252.71L260.78 253.6L261.7 254.45L262.82 255.26" stroke="black" stroke-width="0.5"/><path d="M292.133 266.56L293.073 266.23" stroke="black" stroke-width="0.5"/><path d="M288.477 267.53L288.897 267.44" stroke="black" stroke-width="0.5"/><path d="M266.414 266.23L267.954 266.75" stroke="black" stroke-width="0.5"/><path d="M259.258 258.17V252.71" stroke="black" stroke-width="0.5"/><path d="M300.234 255.89V252.71" stroke="black" stroke-width="0.5"/><path d="M282.617 268.42L282.817 268.41L283.017 268.4L283.207 268.39H283.407L283.607 268.38L283.797 268.37L283.997 268.36L284.187 268.35H284.377L284.557 268.34L284.747 268.33L284.937 268.32L285.117 268.31H285.297L285.477 268.3L285.657 268.29L285.837 268.28L286.007 268.27H286.177L286.357 268.26L286.517 268.25L286.687 268.24L286.847 268.23H287.007L287.167 268.22L287.327 268.21H287.397L287.477 268.2L287.627 268.19H287.777L287.917 268.18L288.067 268.17L288.207 268.16H288.277H288.337L288.407 268.15H288.477L288.547 268.14H288.607H288.677L288.737 268.13H288.797L288.857 268.12H288.927H288.987L289.047 268.11H289.107L289.157 268.1H289.217H289.277L289.327 268.09H289.387L289.437 268.08H289.497H289.547L289.597 268.07H289.647L289.697 268.06H289.747H289.797L289.837 268.05H289.887L289.937 268.04H289.977H290.017L290.067 268.03H290.107L290.147 268.02H290.187H290.227L290.267 268.01H290.297L290.337 268H290.377H290.407L290.437 267.99H290.467H290.497L290.527 267.98H290.557H290.587L290.607 267.97H290.637H290.657L290.677 267.96H290.697H290.717L290.737 267.95H290.757H290.767H290.777L290.797 267.94H290.807H290.817" stroke="black" stroke-width="0.5"/><path d="M268.183 268.42L268.163 268.41L268.143 268.39L268.113 268.38L268.093 268.36L268.073 268.35L268.053 268.33L268.023 268.31L268.003 268.29L267.983 268.27L267.953 268.25L267.933 268.22L267.903 268.2L267.883 268.17L267.863 268.14L267.843 268.12L267.823 268.09L267.803 268.05L267.783 268.02L267.763 267.99L267.743 267.96L267.723 267.92L267.713 267.88L267.693 267.85L267.683 267.81L267.673 267.77L267.663 267.73L267.653 267.7V267.66L267.643 267.62V267.58L267.633 267.54V267.5V267.46L267.643 267.42V267.38L267.653 267.34V267.3L267.663 267.26L267.673 267.22L267.683 267.19L267.693 267.15L267.713 267.11L267.723 267.08L267.743 267.04L267.763 267.01L267.783 266.97L267.793 266.94L267.813 266.91L267.843 266.88L267.863 266.85L267.883 266.82L267.903 266.8L267.933 266.77L267.953 266.75L267.973 266.73L268.003 266.7L268.023 266.68L268.053 266.67L268.073 266.65L268.093 266.63L268.113 266.62L268.143 266.6L268.163 266.59L268.183 266.58L268.203 266.57L268.223 266.56L268.243 266.55L268.263 266.54L268.273 266.53L268.293 266.52L268.323 266.51L268.353 266.5L268.383 266.48H268.413L268.443 266.47L268.473 266.46L268.493 266.45L268.543 266.44L268.593 266.43L268.633 266.42L268.683 266.41L268.733 266.4L268.783 266.39L268.833 266.38L268.883 266.37H268.933L268.993 266.36L269.043 266.35L269.103 266.34H269.163L269.223 266.33L269.293 266.32L269.353 266.31H269.423L269.493 266.3L269.563 266.29H269.643L269.713 266.28L269.793 266.27H269.873L269.963 266.26L270.043 266.25H270.133L270.223 266.24L270.313 266.23H270.413L270.503 266.22L270.603 266.21H270.703L270.813 266.2L270.913 266.19H271.023L271.133 266.18L271.243 266.17H271.353L271.473 266.16L271.583 266.15H271.703L271.823 266.14L271.953 266.13" stroke="black" stroke-width="0.5"/><path d="M292.22 266.13V266.16V266.19V266.22L292.21 266.25V266.28V266.31L292.2 266.34L292.19 266.37V266.4L292.18 266.43L292.17 266.46L292.16 266.49L292.15 266.52L292.14 266.54L292.12 266.57L292.11 266.6L292.1 266.62L292.08 266.65L292.07 266.68L292.05 266.7L292.04 266.72L292.02 266.75L292 266.77L291.99 266.79L291.97 266.81L291.95 266.83L291.93 266.85L291.92 266.87L291.9 266.89L291.88 266.9L291.86 266.92L291.84 266.94L291.82 266.95L291.81 266.97L291.79 266.98L291.77 266.99L291.75 267L291.74 267.02L291.72 267.03L291.7 267.04L291.69 267.05H291.67L291.64 267.07L291.61 267.09L291.58 267.1L291.56 267.11L291.53 267.12L291.51 267.13L291.49 267.14L291.46 267.15H291.44L291.42 267.16L291.4 267.17L291.36 267.18L291.32 267.19L291.25 267.21L291.18 267.22L291.1 267.24L291.03 267.25H290.99L290.95 267.26L290.91 267.27H290.87L290.83 267.28H290.78L290.74 267.29H290.69L290.64 267.3L290.59 267.31H290.54L290.49 267.32H290.44L290.38 267.33H290.33L290.27 267.34H290.22L290.16 267.35H290.1L290.04 267.36H289.97L289.91 267.37H289.84L289.78 267.38H289.71L289.64 267.39H289.57L289.5 267.4L289.43 267.41H289.35L289.28 267.42H289.2L289.12 267.43H289.04L288.96 267.44H288.88L288.8 267.45H288.71L288.63 267.46H288.54L288.45 267.47H288.36L288.27 267.48H288.18L288.09 267.49H288L287.9 267.5H287.81L287.71 267.51H287.61L287.52 267.52H287.42L287.32 267.53H287.22L287.11 267.54H287.01L286.91 267.55H286.8L286.7 267.56H286.59L286.48 267.57H286.37L286.26 267.58L286.15 267.59H286.04L285.93 267.6H285.81L285.7 267.61H285.59L285.47 267.62H285.35L285.24 267.63L285 267.64L284.76 267.65L284.52 267.66L284.27 267.67L284.03 267.68L283.78 267.69L283.53 267.7L283.28 267.71L283.02 267.72L282.77 267.73L282.51 267.74L282.25 267.75L281.99 267.76L281.73 267.77L281.47 267.78L280.94 267.8L280.41 267.82L279.88 267.84L279.35 267.86L278.82 267.88L278.56 267.89L278.29 267.9L278.03 267.91L277.77 267.92L277.51 267.93L277.25 267.94L277 267.95L276.74 267.96L276.49 267.97L276.24 267.98L275.99 267.99L275.74 268L275.5 268.02L275.26 268.03L275.02 268.04H274.9L274.78 268.05H274.66L274.54 268.06H274.43L274.31 268.07H274.2L274.08 268.08H273.97L273.86 268.09H273.75L273.64 268.1H273.53L273.42 268.11H273.32L273.21 268.12H273.11L273 268.13H272.9L272.8 268.14H272.69L272.59 268.15H272.49L272.4 268.16H272.3L272.2 268.17H272.11L272.01 268.18H271.92L271.83 268.19H271.74L271.65 268.2H271.56L271.47 268.21H271.39L271.3 268.22H271.22L271.14 268.23H271.05L270.98 268.24H270.9L270.82 268.25H270.75L270.67 268.26L270.6 268.27H270.53L270.46 268.28H270.39L270.32 268.29H270.25L270.19 268.3H270.13L270.06 268.31H270L269.94 268.32H269.89L269.83 268.33H269.78L269.73 268.34H269.67L269.62 268.35H269.58H269.53L269.49 268.36H269.44L269.4 268.37H269.36L269.33 268.38H269.29L269.26 268.39H269.23L269.2 268.4H269.17H269.14L269.12 268.41H269.1L269.08 268.42H269.07" stroke="black" stroke-width="0.5"/><path d="M287.914 267.5H288.014L288.114 267.51H288.214L288.314 267.52L288.414 267.53H288.504L288.594 267.54H288.694L288.784 267.55H288.874L288.954 267.56H289.044L289.134 267.57L289.214 267.58H289.294L289.374 267.59H289.454L289.534 267.6H289.614L289.684 267.61H289.764L289.834 267.62L289.904 267.63H289.974L290.044 267.64H290.104L290.174 267.65H290.234L290.304 267.66L290.364 267.67H290.414L290.474 267.68H290.534L290.584 267.69L290.644 267.7H290.694L290.744 267.71H290.784L290.834 267.72H290.884L290.924 267.73L290.974 267.74H291.014L291.054 267.75L291.094 267.76L291.134 267.77L291.214 267.78L291.254 267.79L291.294 267.8L291.334 267.81L291.374 267.82L291.414 267.83L291.444 267.84L291.464 267.85H291.484L291.514 267.86L291.534 267.87L291.564 267.89L291.594 267.9L291.624 267.91L291.654 267.93L291.674 267.94L291.684 267.95L291.704 267.96L291.724 267.97L291.744 267.98L291.764 267.99L291.784 268.01L291.794 268.02L291.814 268.04L291.834 268.05L291.854 268.07L291.874 268.09L291.894 268.1L291.914 268.12L291.934 268.14L291.954 268.16L291.974 268.19L291.994 268.21L292.014 268.23L292.034 268.26L292.044 268.28L292.064 268.31L292.084 268.33L292.094 268.36L292.114 268.39L292.124 268.42" stroke="black" stroke-width="0.5"/><path d="M275.761 254.52H273.711" stroke="black" stroke-width="0.5"/><path d="M275.758 254.08V254.52" stroke="black" stroke-width="0.5"/><path d="M273.711 254.08V254.52" stroke="black" stroke-width="0.5"/><path d="M140.43 116.11H141.63" stroke="black" stroke-width="0.5"/><path d="M140.43 115.09H144.44" stroke="black" stroke-width="0.5"/><path d="M8.34189 186.06L7.92188 185.64" stroke="black" stroke-width="0.5"/><path d="M7.53781 185.25L5.50781 183.22" stroke="black" stroke-width="0.5"/><path d="M4.27344 181.99L5.50345 183.22" stroke="black" stroke-width="0.5"/><path d="M4.55658 182.27L4.33658 182.17L4.11658 182.23L3.97656 182.42" stroke="black" stroke-width="0.5"/><path d="M3.49219 184.24L3.97217 182.42" stroke="black" stroke-width="0.5"/><path d="M2.39844 185.33L3.49844 184.24" stroke="black" stroke-width="0.5"/><path d="M2.39844 185.33L2.84845 186.46L3.53845 187.45L4.42844 188.27" stroke="black" stroke-width="0.5"/><path d="M4.53967 188.38L4.50967 188.35L4.48969 188.33L4.45969 188.3L4.42969 188.28" stroke="black" stroke-width="0.5"/><path d="M6.08908 186.83L4.53906 188.38" stroke="black" stroke-width="0.5"/><path d="M8.08594 186.23L8.13593 186.15" stroke="black" stroke-width="0.5"/><path d="M6.26343 187.14L6.18344 187.21L6.11343 187.29L6.03345 187.36L5.96344 187.43L5.88342 187.5L5.81345 187.57L5.74344 187.64L5.68344 187.7L5.61343 187.77L5.55344 187.83L5.48343 187.89L5.45343 187.92L5.42343 187.95L5.39343 187.97L5.36343 188L5.34344 188.03L5.31345 188.05L5.28345 188.08L5.25345 188.1L5.23343 188.13L5.20343 188.15L5.18344 188.17L5.16342 188.19L5.13342 188.22L5.11343 188.24L5.09344 188.26L5.07343 188.28L5.05344 188.29L5.03345 188.31L5.01343 188.33L4.99344 188.34L4.97342 188.36L4.95343 188.37L4.94342 188.39L4.92343 188.4L4.91342 188.41L4.89343 188.43L4.88342 188.44L4.87344 188.45L4.86343 188.46L4.85342 188.47H4.84344L4.83344 188.48L4.82343 188.49H4.81345L4.80344 188.5L4.79343 188.51H4.78345H4.77344" stroke="black" stroke-width="0.5"/><path d="M6.24344 189.15L6.14343 189.12L6.05344 189.09L5.95343 189.06L5.86343 189.03L5.76343 189L5.67343 188.96L5.58344 188.92L5.48343 188.88L5.39343 188.84L5.30344 188.8L5.21344 188.76L5.12344 188.71L5.03345 188.66L4.95343 188.61L4.86343 188.56L4.77344 188.51" stroke="black" stroke-width="0.5"/><path d="M6.24438 189.15V189.14H6.23438V189.13V189.12V189.11V189.1L6.24438 189.09V189.08V189.07V189.06V189.04V189.03L6.25439 189.01V188.99V188.97L6.26437 188.95V188.93V188.91L6.27438 188.89V188.86L6.28439 188.84V188.81L6.29437 188.78V188.75L6.30438 188.72L6.31439 188.69V188.66L6.32437 188.62L6.33438 188.59L6.34439 188.55L6.35437 188.52V188.48L6.36438 188.44L6.37439 188.4L6.38437 188.36L6.39438 188.32L6.40439 188.27L6.41437 188.23L6.42438 188.18L6.43439 188.14L6.44437 188.09L6.46439 188.04L6.47437 187.99L6.48438 187.95L6.49438 187.9L6.50439 187.84L6.52438 187.79L6.54437 187.69L6.57437 187.58L6.59439 187.47L6.62439 187.36L6.65439 187.25L6.68439 187.14L6.71439 187.02" stroke="black" stroke-width="0.5"/><path d="M2.19531 183.87V183.94V184.01V184.08L2.20532 184.16V184.23L2.21533 184.3V184.37L2.22531 184.44L2.23532 184.51L2.24533 184.58L2.25534 184.65L2.26532 184.73L2.27533 184.8L2.28534 184.87L2.30533 184.94L2.31534 185.01L2.32532 185.08L2.34534 185.15L2.36533 185.22L2.38531 185.29L2.40533 185.36L2.42532 185.42L2.44531 185.49L2.46533 185.56L2.48532 185.63L2.50534 185.7L2.53534 185.76L2.55533 185.83L2.58533 185.9L2.61533 185.96L2.63531 186.03L2.66531 186.1" stroke="black" stroke-width="0.5"/><path d="M3.125 186.91L3.16498 186.98L3.215 187.06L3.27499 187.13L3.32498 187.2L3.375 187.27L3.435 187.33L3.48499 187.4L3.54498 187.47" stroke="black" stroke-width="0.5"/><path d="M4.21094 188.11L4.27094 188.16L4.32092 188.2L4.37094 188.24L4.43094 188.28" stroke="black" stroke-width="0.5"/><path d="M4.55469 188.37L4.65469 188.43L4.7547 188.5L4.85468 188.56L4.95468 188.62L5.05469 188.67L5.15469 188.73L5.26468 188.78L5.36469 188.83L5.47467 188.88L5.58469 188.92L5.68469 188.97L5.79468 189.01L5.90469 189.05L6.02469 189.08L6.13467 189.12L6.24469 189.15" stroke="black" stroke-width="0.5"/><path d="M2.19531 154.28V154.17V154.06L2.20532 153.95L2.21533 153.84L2.22531 153.73L2.23532 153.62L2.25534 153.51L2.26532 153.39L2.28534 153.28L2.30533 153.17L2.33533 153.07L2.35532 152.96L2.38531 152.85L2.41531 152.74L2.44531 152.63L2.48532 152.53L2.52533 152.42L2.56534 152.32L2.60532 152.21L2.64532 152.11L2.69531 152.01L2.73532 151.91L2.78534 151.81L2.84534 151.71L2.89532 151.61L2.94531 151.51L3.00534 151.42L3.06534 151.32L3.12534 151.23L3.19531 151.14L3.25534 151.05L3.32532 150.96L3.39532 150.87L3.46533 150.78L3.53534 150.7L3.61533 150.62L3.68533 150.53L3.76532 150.45L3.84534 150.37L3.92532 150.3L4.00534 150.22L4.08533 150.15L4.17532 150.07L4.26532 150L4.35532 149.94L4.43533 149.87L4.53534 149.8L4.62534 149.74L4.71533 149.68L4.81534 149.62L4.90533 149.56L5.00534 149.51L5.10532 149.46L5.20532 149.4L5.30533 149.35L5.40533 149.31L5.50534 149.26L5.60532 149.22L5.71533 149.18L5.81534 149.14L5.92532 149.1L6.02533 149.07L6.13531 149.04L6.24533 149.01" stroke="black" stroke-width="0.5"/><path d="M2.19531 160.36V160.41V160.47V160.52V160.58L2.20532 160.69L2.21533 160.81L2.22531 160.92L2.24533 161.04L2.25534 161.15L2.27533 161.27L2.29532 161.39L2.31534 161.51L2.34534 161.63L2.37534 161.75L2.39532 161.87L2.42532 162L2.46533 162.12L2.49533 162.25L2.53534 162.38L2.57532 162.51L2.61533 162.65L2.65533 162.78L2.70532 162.92L2.74533 163.06L2.79532 163.2L2.84534 163.34L2.89532 163.48L2.95532 163.62L3.00534 163.77L3.06534 163.92L3.12534 164.06L3.18533 164.22L3.24533 164.37L3.30533 164.52L3.36533 164.68L3.43533 164.83L3.50534 164.99L3.57532 165.15L3.63531 165.3L3.70532 165.46L3.84534 165.78L3.99533 166.1L4.13531 166.41L4.27533 166.73L4.31534 166.81L4.34534 166.89L4.38531 166.97L4.41531 167.05L4.45532 167.12L4.48532 167.2L4.51532 167.27L4.55533 167.35L4.58533 167.42L4.61533 167.49L4.64532 167.56L4.67532 167.63L4.70532 167.7L4.73532 167.77L4.75534 167.84L4.78534 167.91L4.81534 167.97L4.83533 168.04L4.85532 168.1L4.88531 168.17L4.90533 168.23L4.92532 168.29L4.94531 168.35L4.96533 168.41L4.97531 168.47L4.99533 168.53L5.00534 168.58L5.01532 168.64L5.02533 168.69L5.03534 168.75L5.04532 168.8L5.05533 168.86L5.06534 168.91V168.97V169.02V169.08" stroke="black" stroke-width="0.5"/><path d="M2.19531 169.08V160.36" stroke="black" stroke-width="0.5"/><path d="M5.06534 169.08V169.13V169.18V169.23L5.05533 169.28V169.33L5.04532 169.38L5.03534 169.43L5.02533 169.48L5.01532 169.53L5.00534 169.58L4.98532 169.64L4.97531 169.69L4.96533 169.74L4.94531 169.8L4.92532 169.85L4.90533 169.91L4.88531 169.97L4.86533 170.02L4.84534 170.08L4.82532 170.14L4.80533 170.2L4.78534 170.26L4.75534 170.32L4.73532 170.38L4.70532 170.44L4.68533 170.5L4.65533 170.56L4.62534 170.63L4.59534 170.69L4.57532 170.76L4.54532 170.83L4.51532 170.89L4.48532 170.96L4.45532 171.03L4.41531 171.1L4.38531 171.18L4.35532 171.25L4.32532 171.32L4.28534 171.4L4.25534 171.47L4.21533 171.55L4.18533 171.63L4.14532 171.71L4.11533 171.79L3.96533 172.11L3.82532 172.44L3.67532 172.76L3.60532 172.92L3.53534 173.08L3.46533 173.24L3.40533 173.4L3.33533 173.56L3.26532 173.72L3.20532 173.88L3.14532 174.04L3.07532 174.2L3.01532 174.35L2.95532 174.51L2.92532 174.59L2.90533 174.67L2.87534 174.74L2.84534 174.82L2.81534 174.89L2.79532 174.97L2.76532 175.04L2.74533 175.12L2.71533 175.19L2.69531 175.27L2.66531 175.34L2.64532 175.41L2.62534 175.48L2.59534 175.55L2.57532 175.62L2.55533 175.69L2.53534 175.76L2.51532 175.83L2.49533 175.9L2.47531 175.97L2.46533 176.04L2.44531 176.11L2.42532 176.17L2.40533 176.24L2.39532 176.31L2.37534 176.37L2.36533 176.44L2.34534 176.5L2.33533 176.56L2.32532 176.63L2.31534 176.69L2.29532 176.75L2.28534 176.82L2.27533 176.88L2.26532 176.94L2.25534 177L2.24533 177.06V177.12L2.23532 177.18L2.22531 177.24V177.29L2.21533 177.35V177.41L2.20532 177.47V177.52L2.19531 177.58V177.69V177.74V177.8" stroke="black" stroke-width="0.5"/><path d="M2.19531 177.8V169.08" stroke="black" stroke-width="0.5"/><path d="M2.19531 160.36V154.28" stroke="black" stroke-width="0.5"/><path d="M2.19531 183.87V177.8" stroke="black" stroke-width="0.5"/><path d="M3.20312 184.07L3.49313 184.24" stroke="black" stroke-width="0.5"/><path d="M2.32031 185.04V185.03V185.02H2.33032L2.34033 185L2.35031 184.99L2.36032 184.97L2.38031 184.96L2.39032 184.94L2.41031 184.92L2.43033 184.9L2.45032 184.87L2.47031 184.85L2.50034 184.82L2.52032 184.79L2.55032 184.76L2.58032 184.73L2.61032 184.69L2.64032 184.66L2.68033 184.62L2.71033 184.58L2.75034 184.54L2.79031 184.5L2.83032 184.46L2.87033 184.41L2.91031 184.37L2.96033 184.32L3.00034 184.27L3.05032 184.22L3.10031 184.17L3.15033 184.12L3.20032 184.07" stroke="black" stroke-width="0.5"/><path d="M3.20312 184.07L3.25314 183.87" stroke="black" stroke-width="0.5"/><path d="M2.32532 185.04L2.30533 184.97L2.29532 184.9L2.27533 184.82L2.26532 184.75L2.25534 184.68L2.24533 184.61L2.23532 184.53L2.22531 184.46L2.21533 184.39V184.31L2.20532 184.24V184.16L2.19531 184.09V184.02V183.94V183.87" stroke="black" stroke-width="0.5"/><path d="M3.70779 182.15L3.25781 183.87" stroke="black" stroke-width="0.5"/><path d="M3.70312 182.15L3.71313 182.12L3.72311 182.1L3.73312 182.08L3.74313 182.06L3.75314 182.04L3.77313 182.02L3.78314 182.01L3.79312 181.99L3.81314 181.98L3.83313 181.96L3.84314 181.95L3.86313 181.94L3.88312 181.93L3.90314 181.92L3.92313 181.91L3.94312 181.9H3.96313L3.99313 181.89H4.01312H4.03314H4.05313H4.07312L4.09314 181.9H4.11313L4.13312 181.91H4.16312L4.18314 181.92L4.20312 181.93L4.22311 181.95L4.23312 181.96L4.25314 181.97L4.27313 181.99" stroke="black" stroke-width="0.5"/><path d="M8.43533 186.23L8.44531 186.24V186.26V186.28V186.29V186.31V186.33V186.34V186.36L8.43533 186.38V186.39V186.41L8.42532 186.42L8.41531 186.44V186.45L8.40533 186.47L8.39532 186.48L8.38531 186.49L8.37534 186.51L8.36533 186.52L8.35532 186.53L8.34534 186.54L8.33533 186.56L8.32532 186.57L8.30533 186.58L8.29532 186.59H8.28534L8.26532 186.6L8.25534 186.61L8.23532 186.62H8.22531L8.20532 186.63H8.19531" stroke="black" stroke-width="0.5"/><path d="M8.43375 186.23L8.34375 186.06" stroke="black" stroke-width="0.5"/><path d="M13.3897 187.56L8.42969 186.23" stroke="black" stroke-width="0.5"/><path d="M11.8984 190.66L12.2784 190.76L12.6484 190.86L13.0184 190.96L13.3984 191.06" stroke="black" stroke-width="0.5"/><path d="M11.8922 190.66L6.24219 189.15" stroke="black" stroke-width="0.5"/><path d="M4.60156 188.4L4.63156 188.42L4.66156 188.44L4.69156 188.46L4.72156 188.48L4.75159 188.5L4.78159 188.52L4.82156 188.54L4.85156 188.56L4.89157 188.58L4.93158 188.61L4.97156 188.63L5.02158 188.66L5.06158 188.68L5.11157 188.7L5.16156 188.73L5.21158 188.76L5.26157 188.78L5.31158 188.81L5.37158 188.83L5.42157 188.86L5.48157 188.88L5.54156 188.91L5.61157 188.93L5.67157 188.96L5.73157 188.99L5.80157 189.01L5.87158 189.03L5.94156 189.06L6.01157 189.08L6.09158 189.1L6.16156 189.13L6.24158 189.15" stroke="black" stroke-width="0.5"/><path d="M4.59906 188.4H4.58908L4.56906 188.39H4.55908L4.54907 188.38H4.53906" stroke="black" stroke-width="0.5"/><path d="M4.77533 188.51L4.75534 188.5L4.73532 188.49L4.71533 188.47L4.69531 188.46" stroke="black" stroke-width="0.5"/><path d="M13.3928 199.19L3.13281 196.44" stroke="black" stroke-width="0.5"/><path d="M4.93283 189.72L3.13281 196.44" stroke="black" stroke-width="0.5"/><path d="M4.92908 189.72L4.93906 189.68L4.94907 189.64V189.59L4.95908 189.54L4.96906 189.5V189.45V189.41V189.36V189.31V189.27L4.95908 189.22V189.18L4.94907 189.13L4.93906 189.09L4.92908 189.04L4.91907 189L4.90906 188.95L4.88907 188.91L4.87906 188.87L4.85907 188.82L4.83908 188.78L4.81906 188.74L4.79907 188.7L4.76907 188.66L4.74908 188.62L4.71906 188.58L4.69907 188.55L4.66907 188.51L4.63907 188.48L4.60907 188.44L4.57907 188.41L4.53906 188.38" stroke="black" stroke-width="0.5"/><path d="M7.53906 185.25L7.92905 185.64" stroke="black" stroke-width="0.5"/><path d="M6.09439 186.83L4.98438 182.7" stroke="black" stroke-width="0.5"/><path d="M8.19186 186.63L7.92188 185.64" stroke="black" stroke-width="0.5"/><path d="M6.71094 187.02L8.19092 186.63" stroke="black" stroke-width="0.5"/><path d="M6.26718 187.14L5.11719 182.83" stroke="black" stroke-width="0.5"/><path d="M6.70782 187.02L6.47781 187.08L6.36783 187.11L6.25781 187.14" stroke="black" stroke-width="0.5"/><path d="M6.09375 186.83L6.26373 187.14" stroke="black" stroke-width="0.5"/><path d="M8.13467 186.15L8.05469 186.13" stroke="black" stroke-width="0.5"/><path d="M8.42282 186.22L8.13281 186.15" stroke="black" stroke-width="0.5"/><path d="M8.42593 186.22L8.33594 186.05" stroke="black" stroke-width="0.5"/><path d="M4.00781 209L13.2378 211.47" stroke="black" stroke-width="0.5"/><path d="M6.76779 198.13L2.00781 196.85" stroke="black" stroke-width="0.5"/><path d="M13.3878 199.9L6.75781 198.13" stroke="black" stroke-width="0.5"/><path d="M4.92969 197.63L5.09967 196.97" stroke="black" stroke-width="0.5"/><path d="M5.00781 204.72L6.76779 198.13" stroke="black" stroke-width="0.5"/><path d="M0.242188 203.45L2.0022 196.85" stroke="black" stroke-width="0.5"/><path d="M5.00781 204.72L9.76779 206" stroke="black" stroke-width="0.5"/><path d="M9.75781 206L13.3878 206.97" stroke="black" stroke-width="0.5"/><path d="M0.242188 203.45L2.62219 204.09" stroke="black" stroke-width="0.5"/><path d="M2.625 204.09L5.005 204.72" stroke="black" stroke-width="0.5"/><path d="M1.51718 203.79L1.36719 205.03L1.5672 206.27L2.11719 207.4L2.94717 208.34L4.01718 209" stroke="black" stroke-width="0.5"/><path d="M13.2422 211.47L13.3922 211.49" stroke="black" stroke-width="0.5"/><path d="M1.85156 185.02V182.97" stroke="black" stroke-width="0.5"/><path d="M1.85156 156.33V182.97" stroke="black" stroke-width="0.5"/><path d="M1.85156 156.33V154.28" stroke="black" stroke-width="0.5"/><path d="M2.19156 154.28H1.85156" stroke="black" stroke-width="0.5"/><path d="M2.19531 182.97V177.8" stroke="black" stroke-width="0.5"/><path d="M2.19531 160.36V156.33" stroke="black" stroke-width="0.5"/><path d="M2.19156 185.02H1.85156" stroke="black" stroke-width="0.5"/><path d="M2.19531 183.87V185.02" stroke="black" stroke-width="0.5"/><path d="M460.82 166.31V229.83" stroke="black" stroke-width="0.5"/><path d="M460.823 229.83H459.453" stroke="black" stroke-width="0.5"/><path d="M460.823 166.31H459.453" stroke="black" stroke-width="0.5"/><path d="M232.492 126.36V116.79" stroke="black" stroke-width="0.5"/><path d="M232.492 126.36L232.592 126.7L232.842 126.95L233.182 127.04" stroke="black" stroke-width="0.5"/><path d="M233.182 116.11L232.842 116.2L232.592 116.45L232.492 116.79" stroke="black" stroke-width="0.5"/><path d="M240.836 118.16H241.516" stroke="black" stroke-width="0.5"/><path d="M240.836 124.99H241.516" stroke="black" stroke-width="0.5"/><path d="M233.18 116.11H239.32" stroke="black" stroke-width="0.5"/><path d="M233.18 127.04H239.32" stroke="black" stroke-width="0.5"/><path d="M232.492 250.66V241.1" stroke="black" stroke-width="0.5"/><path d="M232.492 250.66L232.592 251L232.842 251.25L233.182 251.34" stroke="black" stroke-width="0.5"/><path d="M233.182 240.42L232.842 240.51L232.592 240.76L232.492 241.1" stroke="black" stroke-width="0.5"/><path d="M240.836 242.46H241.516" stroke="black" stroke-width="0.5"/><path d="M240.836 249.29H241.516" stroke="black" stroke-width="0.5"/><path d="M233.18 240.42H239.32" stroke="black" stroke-width="0.5"/><path d="M233.18 251.34H239.32" stroke="black" stroke-width="0.5"/><path d="M239.32 127.76V115.39" stroke="black" stroke-width="0.5"/><path d="M240.836 127.76V115.39" stroke="black" stroke-width="0.5"/><path d="M240.83 127.76H239.32" stroke="black" stroke-width="0.5"/><path d="M240.83 115.39H239.32" stroke="black" stroke-width="0.5"/><path d="M239.32 252.06V239.7" stroke="black" stroke-width="0.5"/><path d="M240.836 252.06V239.7" stroke="black" stroke-width="0.5"/><path d="M240.83 252.06H239.32" stroke="black" stroke-width="0.5"/><path d="M240.83 239.7H239.32" stroke="black" stroke-width="0.5"/><path d="M459.867 157.43V154.7" stroke="black" stroke-width="0.5"/><path d="M459.867 147.19V146.68" stroke="black" stroke-width="0.5"/><path d="M459.789 150.6H459.859" stroke="black" stroke-width="0.5"/><path d="M459.867 150.6V147.87" stroke="black" stroke-width="0.5"/><path d="M459.789 147.87H459.859" stroke="black" stroke-width="0.5"/><path d="M459.789 157.43H459.859" stroke="black" stroke-width="0.5"/><path d="M459.789 154.7H459.859" stroke="black" stroke-width="0.5"/><path d="M459.789 154.02H459.859" stroke="black" stroke-width="0.5"/><path d="M459.867 154.02V151.29" stroke="black" stroke-width="0.5"/><path d="M459.789 151.29H459.859" stroke="black" stroke-width="0.5"/><path d="M459.789 147.19H459.859" stroke="black" stroke-width="0.5"/><path d="M459.789 157.77V160.51" stroke="black" stroke-width="0.5"/><path d="M459.789 129.77V132.5" stroke="black" stroke-width="0.5"/><path d="M459.453 160.51H459.793" stroke="black" stroke-width="0.5"/><path d="M459.793 129.77H459.453" stroke="black" stroke-width="0.5"/><path d="M459.789 157.77V132.5" stroke="black" stroke-width="0.5"/><path d="M459.867 143.59V141.04" stroke="black" stroke-width="0.5"/><path d="M459.789 141.04H459.859" stroke="black" stroke-width="0.5"/><path d="M459.789 140.36H459.859" stroke="black" stroke-width="0.5"/><path d="M459.867 140.36V137.63" stroke="black" stroke-width="0.5"/><path d="M459.789 137.63H459.859" stroke="black" stroke-width="0.5"/><path d="M459.867 130.8V137.63" stroke="black" stroke-width="0.5"/><path d="M459.789 130.8H459.859" stroke="black" stroke-width="0.5"/><path d="M459.789 146.71L460.459 146.25L460.839 145.54V144.73L460.459 144.02L459.789 143.57" stroke="black" stroke-width="0.5"/><path d="M277.711 126.36V116.11" stroke="black" stroke-width="0.5"/><path d="M277.711 242.46V126.36" stroke="black" stroke-width="0.5"/><path d="M277.711 252.71V242.46" stroke="black" stroke-width="0.5"/><path d="M277.708 252.71H241.508" stroke="black" stroke-width="0.5"/><path d="M265.888 116.11H241.508" stroke="black" stroke-width="0.5"/><path d="M277.708 242.46H241.508" stroke="black" stroke-width="0.5"/><path d="M241.508 242.46V252.71" stroke="black" stroke-width="0.5"/><path d="M265.888 126.36H241.508" stroke="black" stroke-width="0.5"/><path d="M241.508 116.11V126.36" stroke="black" stroke-width="0.5"/><path d="M241.508 126.36V242.46" stroke="black" stroke-width="0.5"/><path d="M274.094 116.11H277.714" stroke="black" stroke-width="0.5"/><path d="M274.094 126.36H277.714" stroke="black" stroke-width="0.5"/><path d="M274.094 126.36V88.79" stroke="black" stroke-width="0.5"/><path d="M265.898 88.79H274.098" stroke="black" stroke-width="0.5"/><path d="M265.898 88.79V126.36" stroke="black" stroke-width="0.5"/><path d="M265.898 126.36H274.098" stroke="black" stroke-width="0.5"/><path d="M241.508 114.06V116.11" stroke="black" stroke-width="0.5"/><path d="M147.258 234.27V114.06" stroke="black" stroke-width="0.5"/><path d="M140.43 116.55L147.26 114.06" stroke="black" stroke-width="0.5"/><path d="M140.43 231.78L147.26 234.27" stroke="black" stroke-width="0.5"/><path d="M147.258 114.06H241.508" stroke="black" stroke-width="0.5"/><path d="M147.258 234.27H241.508" stroke="black" stroke-width="0.5"/><path d="M140.43 114.06V234.27" stroke="black" stroke-width="0.5"/><path d="M16.8125 119.53V228.8" stroke="black" stroke-width="0.5"/><path d="M13.3984 119.53V228.8" stroke="black" stroke-width="0.5"/><path d="M140.436 234.27H35.3359" stroke="black" stroke-width="0.5"/><path d="M140.436 114.06H35.3359" stroke="black" stroke-width="0.5"/><path d="M35.3325 114.06L32.0825 114.22L28.8525 114.68L25.6825 115.46L22.5925 116.53L19.6325 117.89L16.8125 119.53" stroke="black" stroke-width="0.5"/><path d="M16.8125 228.8L19.6325 230.44L22.5925 231.8L25.6825 232.87L28.8525 233.65L32.0825 234.11L35.3325 234.27" stroke="black" stroke-width="0.5"/><path d="M16.8185 228.8H13.3984" stroke="black" stroke-width="0.5"/><path d="M16.8185 119.53H13.3984" stroke="black" stroke-width="0.5"/><path d="M234.172 258.17V292.32" stroke="black" stroke-width="0.5"/><path d="M234.174 292.32H217.094" stroke="black" stroke-width="0.5"/><path d="M218.461 275.25V292.32" stroke="black" stroke-width="0.5"/><path d="M217.094 292.32V275.25" stroke="black" stroke-width="0.5"/><path d="M342.765 292.32H325.695" stroke="black" stroke-width="0.5"/><path d="M341.398 292.32V258.17" stroke="black" stroke-width="0.5"/><path d="M342.758 258.17V292.32" stroke="black" stroke-width="0.5"/><path d="M341.398 258.17H342.758" stroke="black" stroke-width="0.5"/><path d="M325.695 292.32V258.17" stroke="black" stroke-width="0.5"/><path d="M217.094 406.38V292.32" stroke="black" stroke-width="0.5"/><path d="M342.758 406.38V292.32" stroke="black" stroke-width="0.5"/><path d="M325.692 258.17H300.422" stroke="black" stroke-width="0.5"/><path d="M259.442 258.17H234.172" stroke="black" stroke-width="0.5"/><path d="M339.352 409.8L340.402 409.63L341.362 409.14L342.112 408.39L342.602 407.44L342.762 406.38" stroke="black" stroke-width="0.5"/><path d="M217.094 406.38L217.264 407.44L217.744 408.39L218.504 409.14L219.454 409.63L220.514 409.8" stroke="black" stroke-width="0.5"/><path d="M220.508 409.8H272.408" stroke="black" stroke-width="0.5"/><path d="M287.445 409.8H339.355" stroke="black" stroke-width="0.5"/><path d="M247.943 275.25H222.562" stroke="black" stroke-width="0.5"/><path d="M222.562 258.17H247.943" stroke="black" stroke-width="0.5"/><path d="M222.564 275.25H217.094" stroke="black" stroke-width="0.5"/><path d="M222.564 258.17H217.094" stroke="black" stroke-width="0.5"/><path d="M217.094 275.25V258.17" stroke="black" stroke-width="0.5"/><path d="M334.57 275.25H340.03" stroke="black" stroke-width="0.5"/><path d="M334.57 258.17H340.03" stroke="black" stroke-width="0.5"/><path d="M340.039 258.17V275.25" stroke="black" stroke-width="0.5"/><path d="M334.57 275.25H309.18" stroke="black" stroke-width="0.5"/><path d="M309.18 258.17H334.57" stroke="black" stroke-width="0.5"/><path d="M308.508 258.17V252.71" stroke="black" stroke-width="0.5"/><path d="M306.453 258.17V252.71" stroke="black" stroke-width="0.5"/><path d="M250.68 258.17V252.71" stroke="black" stroke-width="0.5"/><path d="M248.633 258.17V252.71" stroke="black" stroke-width="0.5"/><path d="M279.93 0V4.16M279.93 4.64V5.61M279.93 6.09001V9.96001M279.93 10.45V11.41M279.93 11.9V15.77M279.93 16.25V17.22M279.93 17.7V21.57M279.93 22.06V23.03M279.93 23.51V27.38M279.93 27.86V28.83M279.93 29.31V33.18M279.93 33.67V34.64M279.93 35.12V38.99M279.93 39.47V40.44M279.93 40.93V44.8M279.93 45.28V46.25M279.93 46.73V50.6M279.93 51.08V52.05M279.93 52.54V56.41M279.93 56.89V57.86M279.93 58.34V62.21M279.93 62.7V63.66M279.93 64.15V68.02M279.93 68.5V69.47M279.93 69.95V73.82M279.93 74.31V75.27M279.93 75.76V79.63M279.93 80.11V81.08M279.93 81.56V85.43M279.93 85.92V86.89M279.93 87.37V91.24M279.93 91.72V92.69M279.93 93.17V97.04M279.93 97.53V98.5M279.93 98.98V102.85M279.93 103.33V104.3M279.93 104.78V108.66M279.93 109.14V110.11M279.93 110.59V114.46M279.93 114.94V115.91M279.93 116.4V120.27M279.93 120.75V121.72M279.93 122.2V126.07M279.93 126.55V127.52M279.93 128.01V131.88M279.93 132.36V133.33M279.93 133.81V137.68M279.93 138.17V139.13M279.93 139.62V143.49M279.93 143.97V144.94M279.93 145.42V149.29M279.93 149.78V150.74M279.93 151.23V155.1M279.93 155.58V156.55M279.93 157.03V160.9M279.93 161.39V162.36M279.93 162.84V166.71M279.93 167.19V168.16M279.93 168.64V172.51M279.93 173V173.97M279.93 174.45V178.32M279.93 178.8V179.77M279.93 180.26V184.13M279.93 184.61V185.58M279.93 186.06V189.93M279.93 190.41V191.38M279.93 191.87V195.74M279.93 196.22V197.19M279.93 197.67V201.54M279.93 202.03V202.99M279.93 203.48V207.35M279.93 207.83V208.8M279.93 209.28V213.15M279.93 213.64V214.6M279.93 215.09V218.96M279.93 219.44V220.41M279.93 220.89V224.76M279.93 225.25V226.22M279.93 226.7V230.57M279.93 231.05V232.02M279.93 232.5V236.37M279.93 236.86V237.83M279.93 238.31V242.18M279.93 242.66V243.63M279.93 244.11V247.99M279.93 248.47V249.44M279.93 249.92V253.79M279.93 254.27V255.24M279.93 255.73V259.6M279.93 260.08V261.05M279.93 261.53V265.4M279.93 265.88V266.85M279.93 267.34V271.21M279.93 271.69V272.66M279.93 273.14V277.01M279.93 277.5V278.46M279.93 278.95V282.82M279.93 283.3V284.27M279.93 284.75V288.62M279.93 289.11V290.07M279.93 290.56V294.43M279.93 294.91V295.88M279.93 296.36V300.23M279.93 300.72V301.69M279.93 302.17V306.04M279.93 306.52V307.49M279.93 307.97V311.84M279.93 312.33V313.3M279.93 313.78V317.65M279.93 318.13V319.1M279.93 319.59V323.46M279.93 323.94V324.91M279.93 325.39V329.26M279.93 329.74V330.71M279.93 331.2V335.07M279.93 335.55V336.52M279.93 337V340.87M279.93 341.36V342.32M279.93 342.81V346.68M279.93 347.16V348.13M279.93 348.61V352.48M279.93 352.97V353.93M279.93 354.42V358.29M279.93 358.77V359.74M279.93 360.22V364.09M279.93 364.58V365.55M279.93 366.03V369.9M279.93 370.38V371.35M279.93 371.83V375.7M279.93 376.19V377.16M279.93 377.64V381.51M279.93 381.99V382.96M279.93 383.44V387.32M279.93 387.8V388.77M279.93 389.25V393.12M279.93 393.6V394.57M279.93 395.06V398.93M279.93 399.41V400.38M279.93 400.86V404.73M279.93 405.21V406.18M279.93 406.67V410.54M279.93 411.02V411.99M279.93 412.47V416.34M279.93 416.83V417.79M279.93 418.28V422.43" stroke="black" stroke-width="0.5"/></svg>
