<svg xmlns="http://www.w3.org/2000/svg" width="796" height="544" fill="none"><path stroke="#000" stroke-width=".5" d="M.25 386.62v113.64M.25 500.26h272.74M272.984 500.26h227.28M500.266 250.25V11.6099M500.266.25h136.36M636.625 11.6099V250.25M636.626 250.25h-136.36M636.625.25h159.1M795.727.25v500.01M795.725 500.26h-159.1M636.625 500.26V250.25M.25.25h795.48Zm795.48 0v500.01Zm0 500.01H.25Zm-795.48 0V.25ZM795.727 500.26v-11.37M795.73 488.89H.25M.25 488.89h11.37M11.6172 488.89v11.37M11.6172 500.26V.25M.25 11.6099h795.48M795.729 11.6099h-11.37M784.359 11.61V.25M784.359.25v500.01M636.625.25h11.37M648 11.6099V500.26M500.266 11.6099h11.36M511.625 11.6099V250.25M500.266 250.25v-11.36M500.266 238.89h136.36M625.172 238.89v11.36M625.162 250.25l-111.35 28.07M784.358 500.26l-132.28 42.57M636.624 500.26l-132.28 42.57M387.467 500.26l-132.279 42.57M106.648 500.26l132.28 42.57M106.648 500.26v-11.37M534.437 168.04l-1.52.63Zm-1.52.63-1.6.38Zm-1.6.38-1.65.11Zm-1.65.11h-14.19Zm-14.19 0v52.58Zm0 52.58h14.19Zm14.19 0 1.65.11Zm1.65.11 1.6.38Zm1.6.38 1.52.63Zm1.52.63 2.15 1.8Zm2.15 1.8 2.35 1.53Zm2.35 1.53 2.53 1.22Zm2.53 1.22 2.65.9Zm2.65.9 2.75.56Zm2.75.56 2.79.22Zm2.79.22 2.8-.12Zm2.8-.12 2.76-.47Zm2.76-.47 2.69-.8Zm2.69-.8 2.57-1.13Zm2.57-1.13 2.4-1.44Zm2.4-1.44 2.21-1.72Zm2.21-1.72 1.99-1.98Zm1.99-1.98 1.72-2.21Zm1.72-2.21 1.11-2.32Zm1.11-2.32.8-2.44Zm.8-2.44.47-2.53Zm.47-2.53.15-2.56Zm.15-2.56v-27.85Zm0-27.85-.15-2.56Zm-.15-2.56-.47-2.53Zm-.47-2.53-.8-2.44Zm-.8-2.44-1.11-2.31Zm-1.11-2.31-1.72-2.21Zm-1.72-2.21-1.99-1.98Zm-1.99-1.98-2.21-1.73Zm-2.21-1.73-2.4-1.43Zm-2.4-1.43-2.57-1.13Zm-2.57-1.13-2.69-.81Zm-2.69-.81-2.76-.46Zm-2.76-.46-2.8-.13Zm-2.8-.13-2.79.23Zm-2.79.23-2.75.56Zm-2.75.56-2.65.9Zm-2.65.9-2.53 1.22Zm-2.53 1.22-2.35 1.53Zm-2.35 1.53-2.15 1.8Z"/><path stroke="#0ff" stroke-width=".5" d="M527.479 195.44h-7.87"/><path stroke="#000" stroke-width=".5" d="M569 209.03v-27.17M541.109 195.44l.19-1.15Zm.19-1.15.52-1.04Zm.52-1.04.83-.82Zm.83-.82 1.04-.53Zm1.04-.53 1.15-.18Zm1.15-.18 1.15.18Zm1.15.18 1.03.53Zm1.03.53.83.82Zm.83.82.53 1.04Zm.53 1.04.18 1.15Zm.18 1.15-.18 1.15Zm-.18 1.15-.53 1.04Zm-.53 1.04-.83.82Zm-.83.82-1.03.53Zm-1.03.53-1.15.19Zm-1.15.19-1.15-.19Zm-1.15-.19-1.04-.53Zm-1.04-.53-.83-.82Zm-.83-.82-.52-1.04Zm-.52-1.04-.19-1.15ZM539.469 195.44l.18-1.39Zm.18-1.39.54-1.29Zm.54-1.29.85-1.11Zm.85-1.11 1.11-.86Zm1.11-.86 1.3-.53Zm1.3-.53 1.39-.19Zm1.39-.19 1.39.19Zm1.39.19 1.29.53Zm1.29.53 1.11.86Zm1.11.86.86 1.11Zm.86 1.11.53 1.29Zm.53 1.29.19 1.39Zm.19 1.39-.19 1.39Zm-.19 1.39-.53 1.3Zm-.53 1.3-.86 1.11Zm-.86 1.11-1.11.85Zm-1.11.85-1.29.54Zm-1.29.54-1.39.18Zm-1.39.18-1.39-.18Zm-1.39-.18-1.3-.54Zm-1.3-.54-1.11-.85Zm-1.11-.85-.85-1.11Zm-.85-1.11-.54-1.3Zm-.54-1.3-.18-1.39Z"/><path stroke="#0ff" stroke-width=".5" d="M544.844 188.66v13.58"/><path stroke="#000" stroke-width=".5" d="M532.648 209.03v-27.17"/><path stroke="#0ff" stroke-width=".5" d="M551.641 195.44h-13.61"/><path stroke="#000" stroke-width=".5" d="m521.039 195.45.19-.96Zm.19-.96.54-.82Zm.54-.82.82-.54Zm.82-.54.95-.19Zm.95-.19.96.19Zm.96.19.82.54Zm.82.54.54.82Zm.54.82.19.96Zm.19.96-.19.95Zm-.19.95-.54.82Zm-.54.82-.82.54Zm-.82.54-.96.19Zm-.96.19-.95-.19Zm-.95-.19-.82-.54Zm-.82-.54-.54-.82Zm-.54-.82-.19-.95Z"/><path stroke="#0ff" stroke-width=".5" d="M523.539 191.51v7.87M517.505 182.56h-4.13M517.505 208.33h-4.13"/><path stroke="#000" stroke-width=".5" d="m532.648 209.03.29 2.63.68 2.57 1.04 2.44 1.38 2.27 1.7 2.04 1.98 1.77 2.21 1.46 2.4 1.13 2.54.76 2.63.39h2.65l2.63-.39 2.54-.76 2.4-1.13 2.22-1.46 1.97-1.77 1.7-2.04 1.39-2.27 1.04-2.44.67-2.57.29-2.63M568.998 181.86l-.29-2.64-.67-2.57-1.04-2.44-1.39-2.26-1.7-2.04-1.97-1.77-2.22-1.46-2.4-1.13-2.54-.76-2.63-.39h-2.65l-2.63.39-2.54.76-2.4 1.13-2.21 1.46-1.98 1.77-1.7 2.04-1.38 2.26-1.04 2.44-.68 2.57-.29 2.64"/><path stroke="#0ff" stroke-width=".5" d="M592.039 28.4302h8.52M589.172 52.77h14.66M596.531 60.0702v-14.6M596.531 32.7499v-7.87"/><path stroke="#000" stroke-width=".5" d="m593.812 28.4302.191-.98Zm.191-.98.52-.85Zm.52-.85.8-.6Zm.8-.6.959-.28Zm.959-.28 1 .09Zm1 .09.89.45Zm.89.45.68.74Zm.68.74.36.93Zm.36.93v1Zm0 1-.36.93Zm-.36.93-.68.74Zm-.68.74-.89.45Zm-.89.45-1 .09Zm-1 .09-.959-.27Zm-.959-.27-.8-.61Zm-.8-.61-.52-.85Zm-.52-.85-.191-.98ZM592.812 52.7698l.18-1.15Zm.18-1.15.531-1.04Zm.531-1.04.829-.82Zm.829-.82 1.031-.53Zm1.031-.53 1.149-.18Zm1.149-.18 1.15.18Zm1.15.18 1.04.53Zm1.04.53.83.82Zm.83.82.521 1.04Zm.521 1.04.19 1.15Zm.19 1.15-.19 1.15Zm-.19 1.15-.521 1.04Zm-.521 1.04-.83.82Zm-.83.82-1.04.53Zm-1.04.53-1.15.18Zm-1.15.18-1.149-.18Zm-1.149-.18-1.031-.53Zm-1.031-.53-.829-.82Zm-.829-.82-.531-1.04Zm-.531-1.04-.18-1.15ZM575.594 79.8901v-23.83M617.469 79.8901v-23.83M575.594 79.8901l.43 2.81.81 2.71 1.16 2.59 1.5 2.4 1.81 2.18 2.09 1.92 2.33 1.61 2.53 1.29 2.67.94 2.78.57 2.82.19 2.83-.19 2.78-.57 2.67-.94 2.53-1.29 2.32-1.61 2.09-1.92 1.82-2.18 1.5-2.4 1.16-2.59.81-2.71.43-2.81M617.464 56.0601l-.43-2.81-.81-2.71-1.16-2.59-1.5-2.4-1.82-2.18-2.09-1.92-2.32-1.61-2.53-1.29-2.67-.94-2.78-.57-2.83-.19-2.82.19-2.78.57-2.67.94-2.53 1.29-2.33 1.61-2.09 1.92-1.81 2.18-1.5 2.4-1.16 2.59-.81 2.71-.43 2.81M579.048 19.1201l-.36.1Zm-.36.1-.26.26Zm-.26.26-.1.36Zm-.1.36v18.28Zm0 18.28-.3 1.67Zm-.3 1.67-.56 1.6Zm-.56 1.6-.8 1.49Zm-.8 1.49-1.03 1.35Zm-1.03 1.35-1.22 1.17Zm-1.22 1.17-1.39 1.72Zm-1.39 1.72-1.08 1.92Zm-1.08 1.92-.75 2.08Zm-.75 2.08-.4 2.17Zm-.4 2.17-.04 2.21Zm-.04 2.21v23.75Zm0 23.75.16 1.35Zm.16 1.35.94 3.05Zm.94 3.05 1.3 2.92Zm1.3 2.92 1.65 2.73Zm1.65 2.73 1.96 2.52Zm1.96 2.52 2.25 2.26Zm2.25 2.26 2.51 1.97Zm2.51 1.97 2.73 1.65Zm2.73 1.65 2.91 1.32Zm2.91 1.32 3.04.95Zm3.04.95 3.14.5799Zm3.14.5799 3.18.19Zm3.18.19 3.19-.19Zm3.19-.19 3.14-.5799Zm3.14-.5799 3.04-.95Zm3.04-.95 2.91-1.32Zm2.91-1.32 2.73-1.65Zm2.73-1.65 2.51-1.97Zm2.51-1.97 2.25-2.26Zm2.25-2.26 1.96-2.52Zm1.96-2.52 1.65-2.73Zm1.65-2.73 1.3-2.92Zm1.3-2.92.94-3.05Zm.94-3.05.16-1.35Zm.16-1.35v-23.75Zm0-23.75-.04-2.21Zm-.04-2.21-.4-2.17Zm-.4-2.17-.75-2.08Zm-.75-2.08-1.08-1.92Zm-1.08-1.92-1.39-1.72Zm-1.39-1.72-1.23-1.17Zm-1.23-1.17-1.02-1.35Zm-1.02-1.35-.8-1.49Zm-.8-1.49-.56-1.6Zm-.56-1.6-.31-1.67Zm-.31-1.67v-18.28Zm0-18.28-.09-.36Zm-.09-.36-.26-.26Zm-.26-.26-.36-.1Zm-.36-.1h-34.97ZM591.125 52.7699l.18-1.39Zm.18-1.39.54-1.29Zm.54-1.29.85-1.11Zm.85-1.11 1.12-.86Zm1.12-.86 1.29-.53Zm1.29-.53 1.39-.19Zm1.39-.19 1.39.19Zm1.39.19 1.3.53Zm1.3.53 1.11.86Zm1.11.86.85 1.11Zm.85 1.11.54 1.29Zm.54 1.29.18 1.39Zm.18 1.39-.18 1.39Zm-.18 1.39-.54 1.3Zm-.54 1.3-.85 1.11Zm-.85 1.11-1.11.85Zm-1.11.85-1.3.54Zm-1.3.54-1.39.18Zm-1.39.18-1.39-.18Zm-1.39-.18-1.29-.54Zm-1.29-.54-1.12-.85Zm-1.12-.85-.85-1.11Zm-.85-1.11-.54-1.3Zm-.54-1.3-.18-1.39ZM579.047 19.8398h34.25Zm34.25 0v15.77Zm0 15.77h-34.25Zm-34.25 0v-15.77ZM669.062 21.7998h101.02Zm101.02 0v37.3Zm0 37.3h-101.02Zm-101.02 0v-37.3ZM669.062 21.7998l101.02 37.3"/></svg>