<svg width="185" height="585" viewBox="0 0 185 585" fill="none" xmlns="http://www.w3.org/2000/svg"><path d="M46.2812 583.82V378.93" stroke="black" stroke-width="0.5"/><path d="M46.2812 378.93V174.03" stroke="black" stroke-width="0.5"/><path d="M78.8125 583.82V378.93" stroke="black" stroke-width="0.5"/><path d="M78.8125 378.93V174.03" stroke="black" stroke-width="0.5"/><path d="M111.344 583.82V378.93" stroke="black" stroke-width="0.5"/><path d="M111.344 378.93V174.03" stroke="black" stroke-width="0.5"/><path d="M143.859 583.82V378.93" stroke="black" stroke-width="0.5"/><path d="M143.859 378.93V174.03" stroke="black" stroke-width="0.5"/><path d="M34.1562 583.82V378.93" stroke="black" stroke-width="0.5"/><path d="M34.1562 174.03H170.756" stroke="black" stroke-width="0.5"/><path d="M170.75 174.03V583.82" stroke="black" stroke-width="0.5"/><path d="M170.756 583.82H34.1562" stroke="black" stroke-width="0.5"/><path d="M34.1562 378.93H170.756" stroke="black" stroke-width="0.5"/><path d="M34.1562 378.93V208.18" stroke="black" stroke-width="0.5"/><path d="M184.41 583.82H0" stroke="black" stroke-width="0.5"/><path d="M102.453 174.03V107.5M102.453 93.84V80.18M102.453 66.52V0" stroke="#FF0000" stroke-width="0.5"/><path d="M113.719 174.03V22.9199" stroke="black" stroke-width="0.5"/><path d="M91.1797 18.6997V174.03" stroke="black" stroke-width="0.5"/><path d="M79.5469 23.4696L80.2369 23.1096L80.9169 22.7496L81.2569 22.5696L81.5969 22.3996L81.9369 22.2196L82.2769 22.0496L82.6169 21.8796L82.9569 21.7096L83.2969 21.5396L83.6369 21.3696L83.9869 21.2096L84.3269 21.0496L84.6669 20.8896L85.0069 20.7296L85.1769 20.6596L85.3469 20.5796L85.5169 20.5096L85.6869 20.4396L85.8569 20.3596L86.0169 20.2896L86.1869 20.2196L86.3569 20.1496L86.5269 20.0796L86.6969 20.0196L86.8669 19.9496L87.0369 19.8796L87.2069 19.8196L87.3769 19.7596L87.5469 19.6896L87.7169 19.6296L87.8869 19.5696L88.0569 19.5196L88.2269 19.4596L88.3969 19.3996L88.5669 19.3496L88.7269 19.2996L88.8969 19.2496L89.0669 19.1996L89.2369 19.1496L89.4069 19.0996L89.5769 19.0596L89.7469 19.0096L89.9169 18.9696L90.0769 18.9296L90.2469 18.8896L90.4169 18.8496L90.5869 18.8196L90.7569 18.7796L90.9269 18.7496L91.0869 18.7196L91.2569 18.6896L91.4269 18.6596L91.5969 18.6396L91.7569 18.6096L91.9269 18.5896L92.0969 18.5696L92.2669 18.5496L92.4269 18.5396L92.5969 18.5196L92.7669 18.5096L92.9369 18.4996L93.0969 18.4896H93.2669L93.4369 18.4796H93.5969H93.7669H93.9369L94.0969 18.4896L94.2669 18.4996L94.4369 18.5096L94.5969 18.5196L94.7669 18.5296L94.9269 18.5496L95.0969 18.5696L95.2669 18.5896L95.4269 18.6096L95.5969 18.6396L95.7569 18.6596L95.9269 18.6996L96.0869 18.7296L96.2569 18.7596L96.4169 18.7996L96.5869 18.8396L96.7469 18.8896L96.9169 18.9296L97.0769 18.9796L97.2469 19.0296L97.4069 19.0796L97.5769 19.1396L97.7369 19.1996L97.8969 19.2596L98.0669 19.3196L98.2269 19.3796L98.3969 19.4396L98.5569 19.5096L98.7169 19.5796L98.8869 19.6496L99.0469 19.7196L99.2069 19.7896L99.3769 19.8596L99.5369 19.9296L99.6969 20.0096L99.8669 20.0896L100.027 20.1596L100.357 20.3196L100.677 20.4796L101.007 20.6496L101.327 20.8096L101.657 20.9796L102.307 21.3096L102.627 21.4696L102.947 21.6396L103.277 21.7996L103.597 21.9596L103.757 22.0396L103.927 22.1196L104.087 22.1996L104.247 22.2696L104.407 22.3496L104.567 22.4196L104.727 22.4896L104.897 22.5696L105.057 22.6396L105.217 22.6996L105.377 22.7696L105.537 22.8396L105.697 22.8996L105.867 22.9596L106.027 23.0196L106.187 23.0796L106.347 23.1396L106.507 23.1896L106.667 23.2396L106.837 23.2896L106.997 23.3396L107.157 23.3896L107.317 23.4296L107.477 23.4696L107.637 23.5096L107.807 23.5396L107.967 23.5696L108.127 23.5996L108.287 23.6296L108.447 23.6496L108.607 23.6696L108.777 23.6896L108.937 23.6996L109.097 23.7196H109.257L109.417 23.7296H109.587H109.747H109.907L110.067 23.7196L110.227 23.7096L110.397 23.6996L110.557 23.6896L110.717 23.6696L110.877 23.6496L111.047 23.6296L111.207 23.5996L111.367 23.5696L111.527 23.5496L111.687 23.5096L111.857 23.4796L112.017 23.4396L112.177 23.3996L112.337 23.3596L112.507 23.3196L112.667 23.2696L112.827 23.2196L112.987 23.1696L113.157 23.1196L113.317 23.0696L113.477 23.0096L113.637 22.9496L113.807 22.8896L113.967 22.8296L114.127 22.7696L114.287 22.6996L114.457 22.6296L114.617 22.5596L114.777 22.4896L114.937 22.4196L115.107 22.3496L115.267 22.2696L115.427 22.1896L115.587 22.1096L115.757 22.0296L115.917 21.9496L116.077 21.8696L116.237 21.7896L116.407 21.6996L116.567 21.6096L116.727 21.5196L116.897 21.4396L117.057 21.3496L117.217 21.2496L117.377 21.1596L117.547 21.0696L117.707 20.9696L117.867 20.8796L118.037 20.7796L118.197 20.6796L118.517 20.4896L118.847 20.2796L119.177 20.0796L119.497 19.8796L119.827 19.6696L120.147 19.4596L120.477 19.2496L120.797 19.0296L121.127 18.8196L121.777 18.3896" stroke="black" stroke-width="0.5"/></svg>
