<svg width="28" height="334" viewBox="0 0 28 334" fill="none" xmlns="http://www.w3.org/2000/svg">
<path d="M13.875 300.161V6.27539" stroke="black" stroke-linecap="round" stroke-linejoin="round"/>
<path d="M14.4422 295.551C16.8362 300.466 28.1341 323.697 28 324.144C26.5 329.144 20.3817 333.789 16 333.796C6.83257 334.937 0.852934 329.545 0.0148205 323.751C0.0046598 323.68 0.00659201 323.623 0.0350538 323.558C0.731952 321.966 11.2606 300.283 13.559 295.552C13.7412 295.177 14.2596 295.176 14.4422 295.551Z" fill="#F26722"/>
<path d="M13.9225 11.595C16.9863 11.595 19.47 9.1113 19.47 6.0475C19.47 2.9837 16.9863 0.5 13.9225 0.5C10.8587 0.5 8.375 2.9837 8.375 6.0475C8.375 9.1113 10.8587 11.595 13.9225 11.595Z" stroke="black" stroke-linecap="round" stroke-linejoin="round"/>
</svg>
