<svg width="28" height="747" viewBox="0 0 28 747" fill="none" xmlns="http://www.w3.org/2000/svg">
<path d="M14.0859 714.718V6.04736" stroke="black" stroke-linecap="round" stroke-linejoin="round"/>
<path d="M14.0866 11.595C17.1504 11.595 19.6341 9.1113 19.6341 6.0475C19.6341 2.9837 17.1504 0.5 14.0866 0.5C11.0228 0.5 8.53906 2.9837 8.53906 6.0475C8.53906 9.1113 11.0228 11.595 14.0866 11.595Z" stroke="black" stroke-linecap="round" stroke-linejoin="round"/>
<path d="M14.4422 707.878C16.8362 712.793 28.1341 736.024 28 736.471C26.5 741.471 20.3817 746.115 16 746.123C6.83257 747.264 0.852934 741.872 0.0148205 736.077C0.0046598 736.007 0.00659201 735.95 0.0350538 735.885C0.731952 734.293 11.2606 712.61 13.559 707.878C13.7412 707.503 14.2596 707.503 14.4422 707.878Z" fill="#F26722"/>
</svg>
