<svg width="698" height="698" viewBox="0 0 698 698" fill="none" xmlns="http://www.w3.org/2000/svg">
<path d="M348.669 647.102C513.488 647.102 647.1 513.49 647.1 348.671C647.1 183.852 513.488 50.2402 348.669 50.2402C183.85 50.2402 50.2383 183.852 50.2383 348.671C50.2383 513.49 183.85 647.102 348.669 647.102Z" stroke="black" stroke-linecap="round" stroke-linejoin="round"/>
<path d="M348.668 647.102V50.2402" stroke="black" stroke-linecap="round" stroke-linejoin="round" stroke-dasharray="0.03 0.01 0.01 0.01"/>
<path d="M50.2383 348.671H647.1" stroke="black" stroke-linecap="round" stroke-linejoin="round" stroke-dasharray="0.03 0.01 0.01 0.01"/>
<path d="M2.78125 388.462C11.9287 467.975 48.1916 541.909 105.465 597.816C162.739 653.724 237.526 688.192 317.237 695.418C396.947 702.644 476.713 682.187 543.107 637.489C609.501 592.792 658.467 526.585 681.764 450.013" stroke="black" stroke-linecap="round" stroke-linejoin="round"/>
<path d="M681.668 247.015C658.307 170.493 609.304 104.351 542.902 59.7164C476.5 15.0821 396.752 -5.32079 317.073 1.94011C237.394 9.20101 162.647 43.6826 105.407 99.5841C48.1664 155.486 11.9256 229.396 2.78125 308.88" stroke="black" stroke-linecap="round" stroke-linejoin="round"/>
<path d="M681.764 450.013C696.823 400.519 700.662 348.291 693.004 297.127C685.345 245.963 666.381 197.148 637.489 154.233C608.598 111.318 570.506 75.3801 525.984 49.0332C481.461 22.6864 431.626 6.59252 380.103 1.92188C328.58 -2.74877 276.664 4.12118 228.129 22.0322C179.594 39.9432 135.661 68.4451 99.5237 105.466C63.3862 142.486 35.9528 187.094 19.2183 236.047C2.48377 285 -3.13125 337.067 2.78145 388.462" stroke="black" stroke-linecap="round" stroke-linejoin="round"/>
<path d="M2.78125 388.462C11.9287 467.975 48.1916 541.909 105.465 597.816C162.739 653.724 237.526 688.192 317.237 695.418C396.947 702.644 476.713 682.187 543.107 637.489C609.501 592.792 658.467 526.585 681.764 450.013" stroke="black" stroke-linecap="round" stroke-linejoin="round"/>
</svg>
