<svg width="797" height="544" viewBox="0 0 797 544" fill="none" xmlns="http://www.w3.org/2000/svg">
<path d="M0.5 386.87V500.51" stroke="black"/>
<path d="M0.5 500.51H273.24" stroke="black"/>
<path d="M273.238 500.51H500.518" stroke="black"/>
<path d="M500.52 250.5V11.8599" stroke="black"/>
<path d="M500.52 0.5H636.88" stroke="black"/>
<path d="M636.879 11.8599V250.5" stroke="black"/>
<path d="M636.88 250.5H500.52" stroke="black"/>
<path d="M636.879 0.5H795.979" stroke="black"/>
<path d="M795.977 0.5V500.51" stroke="black"/>
<path d="M795.979 500.51H636.879" stroke="black"/>
<path d="M636.879 500.51V250.5" stroke="black"/>
<path d="M0.5 0.5H795.98ZM795.98 0.5V500.51ZM795.98 500.51H0.5ZM0.5 500.51V0.5Z" stroke="black"/>
<path d="M795.977 500.51V489.14" stroke="black"/>
<path d="M795.98 489.14H0.5" stroke="black"/>
<path d="M0.5 489.14H11.87" stroke="black"/>
<path d="M11.8672 489.14V500.51" stroke="black"/>
<path d="M11.8672 500.51V0.5" stroke="black"/>
<path d="M0.5 11.8599H795.98" stroke="black"/>
<path d="M795.979 11.8599H784.609" stroke="black"/>
<path d="M784.609 11.86V0.5" stroke="black"/>
<path d="M784.609 0.5V500.51" stroke="black"/>
<path d="M636.879 0.5H648.249" stroke="black"/>
<path d="M648.25 11.8599V500.51" stroke="black"/>
<path d="M500.52 11.8599H511.88" stroke="black"/>
<path d="M511.879 11.8599V250.5" stroke="black"/>
<path d="M500.52 250.5V239.14" stroke="black"/>
<path d="M500.52 239.14H636.88" stroke="black"/>
<path d="M625.418 239.14V250.5" stroke="black"/>
<path d="M625.416 250.5L514.066 278.57" stroke="black"/>
<path d="M784.608 500.51L652.328 543.08" stroke="black"/>
<path d="M636.878 500.51L504.598 543.08" stroke="black"/>
<path d="M387.717 500.51L255.438 543.08" stroke="black"/>
<path d="M106.898 500.51L239.178 543.08" stroke="black"/>
<path d="M106.898 500.51V489.14" stroke="black"/>
<path d="M534.687 168.29L533.167 168.92ZM533.167 168.92L531.567 169.3ZM531.567 169.3L529.917 169.41ZM529.917 169.41H515.727ZM515.727 169.41V221.99ZM515.727 221.99H529.917ZM529.917 221.99L531.567 222.1ZM531.567 222.1L533.167 222.48ZM533.167 222.48L534.687 223.11ZM534.687 223.11L536.837 224.91ZM536.837 224.91L539.187 226.44ZM539.187 226.44L541.717 227.66ZM541.717 227.66L544.367 228.56ZM544.367 228.56L547.117 229.12ZM547.117 229.12L549.907 229.34ZM549.907 229.34L552.707 229.22ZM552.707 229.22L555.467 228.75ZM555.467 228.75L558.157 227.95ZM558.157 227.95L560.727 226.82ZM560.727 226.82L563.127 225.38ZM563.127 225.38L565.337 223.66ZM565.337 223.66L567.327 221.68ZM567.327 221.68L569.047 219.47ZM569.047 219.47L570.157 217.15ZM570.157 217.15L570.957 214.71ZM570.957 214.71L571.427 212.18ZM571.427 212.18L571.577 209.62ZM571.577 209.62V181.77ZM571.577 181.77L571.427 179.21ZM571.427 179.21L570.957 176.68ZM570.957 176.68L570.157 174.24ZM570.157 174.24L569.047 171.93ZM569.047 171.93L567.327 169.72ZM567.327 169.72L565.337 167.74ZM565.337 167.74L563.127 166.01ZM563.127 166.01L560.727 164.58ZM560.727 164.58L558.157 163.45ZM558.157 163.45L555.467 162.64ZM555.467 162.64L552.707 162.18ZM552.707 162.18L549.907 162.05ZM549.907 162.05L547.117 162.28ZM547.117 162.28L544.367 162.84ZM544.367 162.84L541.717 163.74ZM541.717 163.74L539.187 164.96ZM539.187 164.96L536.837 166.49ZM536.837 166.49L534.687 168.29Z" stroke="black"/>
<path d="M527.729 195.69H519.859" stroke="#00FFFF"/>
<path d="M569.25 209.28V182.11" stroke="black"/>
<path d="M541.359 195.69L541.549 194.54ZM541.549 194.54L542.069 193.5ZM542.069 193.5L542.899 192.68ZM542.899 192.68L543.939 192.15ZM543.939 192.15L545.089 191.97ZM545.089 191.97L546.239 192.15ZM546.239 192.15L547.269 192.68ZM547.269 192.68L548.099 193.5ZM548.099 193.5L548.629 194.54ZM548.629 194.54L548.809 195.69ZM548.809 195.69L548.629 196.84ZM548.629 196.84L548.099 197.88ZM548.099 197.88L547.269 198.7ZM547.269 198.7L546.239 199.23ZM546.239 199.23L545.089 199.42ZM545.089 199.42L543.939 199.23ZM543.939 199.23L542.899 198.7ZM542.899 198.7L542.069 197.88ZM542.069 197.88L541.549 196.84ZM541.549 196.84L541.359 195.69Z" stroke="black"/>
<path d="M539.719 195.69L539.899 194.3ZM539.899 194.3L540.439 193.01ZM540.439 193.01L541.289 191.9ZM541.289 191.9L542.399 191.04ZM542.399 191.04L543.699 190.51ZM543.699 190.51L545.089 190.32ZM545.089 190.32L546.479 190.51ZM546.479 190.51L547.769 191.04ZM547.769 191.04L548.879 191.9ZM548.879 191.9L549.739 193.01ZM549.739 193.01L550.269 194.3ZM550.269 194.3L550.459 195.69ZM550.459 195.69L550.269 197.08ZM550.269 197.08L549.739 198.38ZM549.739 198.38L548.879 199.49ZM548.879 199.49L547.769 200.34ZM547.769 200.34L546.479 200.88ZM546.479 200.88L545.089 201.06ZM545.089 201.06L543.699 200.88ZM543.699 200.88L542.399 200.34ZM542.399 200.34L541.289 199.49ZM541.289 199.49L540.439 198.38ZM540.439 198.38L539.899 197.08ZM539.899 197.08L539.719 195.69Z" stroke="black"/>
<path d="M545.09 188.91V202.49" stroke="#00FFFF"/>
<path d="M532.898 209.28V182.11" stroke="black"/>
<path d="M551.887 195.69H538.277" stroke="#00FFFF"/>
<path d="M521.289 195.7L521.479 194.74ZM521.479 194.74L522.019 193.92ZM522.019 193.92L522.839 193.38ZM522.839 193.38L523.789 193.19ZM523.789 193.19L524.749 193.38ZM524.749 193.38L525.569 193.92ZM525.569 193.92L526.109 194.74ZM526.109 194.74L526.299 195.7ZM526.299 195.7L526.109 196.65ZM526.109 196.65L525.569 197.47ZM525.569 197.47L524.749 198.01ZM524.749 198.01L523.789 198.2ZM523.789 198.2L522.839 198.01ZM522.839 198.01L522.019 197.47ZM522.019 197.47L521.479 196.65ZM521.479 196.65L521.289 195.7Z" stroke="black"/>
<path d="M523.789 191.76V199.63" stroke="#00FFFF"/>
<path d="M517.759 182.81H513.629" stroke="#00FFFF"/>
<path d="M517.759 208.58H513.629" stroke="#00FFFF"/>
<path d="M532.898 209.28L533.188 211.91L533.868 214.48L534.908 216.92L536.288 219.19L537.988 221.23L539.968 223L542.178 224.46L544.578 225.59L547.118 226.35L549.748 226.74H552.398L555.028 226.35L557.568 225.59L559.968 224.46L562.188 223L564.158 221.23L565.858 219.19L567.248 216.92L568.288 214.48L568.958 211.91L569.248 209.28" stroke="black"/>
<path d="M569.248 182.11L568.958 179.47L568.288 176.9L567.248 174.46L565.858 172.2L564.158 170.16L562.188 168.39L559.968 166.93L557.568 165.8L555.028 165.04L552.398 164.65H549.748L547.118 165.04L544.578 165.8L542.178 166.93L539.968 168.39L537.988 170.16L536.288 172.2L534.908 174.46L533.868 176.9L533.188 179.47L532.898 182.11" stroke="black"/>
<path d="M592.289 28.6802H600.809" stroke="#00FFFF"/>
<path d="M589.418 53.02H604.078" stroke="#00FFFF"/>
<path d="M596.777 60.3202V45.7202" stroke="#00FFFF"/>
<path d="M596.777 32.9999V25.1299" stroke="#00FFFF"/>
<path d="M594.059 28.6802L594.249 27.7002ZM594.249 27.7002L594.769 26.8502ZM594.769 26.8502L595.569 26.2502ZM595.569 26.2502L596.529 25.9702ZM596.529 25.9702L597.529 26.0602ZM597.529 26.0602L598.419 26.5102ZM598.419 26.5102L599.099 27.2502ZM599.099 27.2502L599.459 28.1802ZM599.459 28.1802V29.1802ZM599.459 29.1802L599.099 30.1102ZM599.099 30.1102L598.419 30.8502ZM598.419 30.8502L597.529 31.3002ZM597.529 31.3002L596.529 31.3902ZM596.529 31.3902L595.569 31.1202ZM595.569 31.1202L594.769 30.5102ZM594.769 30.5102L594.249 29.6602ZM594.249 29.6602L594.059 28.6802Z" stroke="black"/>
<path d="M593.059 53.0198L593.239 51.8698ZM593.239 51.8698L593.769 50.8298ZM593.769 50.8298L594.599 50.0098ZM594.599 50.0098L595.629 49.4798ZM595.629 49.4798L596.779 49.2998ZM596.779 49.2998L597.929 49.4798ZM597.929 49.4798L598.969 50.0098ZM598.969 50.0098L599.799 50.8298ZM599.799 50.8298L600.319 51.8698ZM600.319 51.8698L600.509 53.0198ZM600.509 53.0198L600.319 54.1698ZM600.319 54.1698L599.799 55.2098ZM599.799 55.2098L598.969 56.0298ZM598.969 56.0298L597.929 56.5598ZM597.929 56.5598L596.779 56.7398ZM596.779 56.7398L595.629 56.5598ZM595.629 56.5598L594.599 56.0298ZM594.599 56.0298L593.769 55.2098ZM593.769 55.2098L593.239 54.1698ZM593.239 54.1698L593.059 53.0198Z" stroke="black"/>
<path d="M575.848 80.1401V56.3101" stroke="black"/>
<path d="M617.719 80.1401V56.3101" stroke="black"/>
<path d="M575.848 80.1401L576.278 82.9501L577.088 85.6601L578.248 88.2501L579.748 90.6501L581.558 92.8301L583.648 94.7501L585.978 96.3601L588.508 97.6501L591.178 98.5901L593.958 99.1601L596.778 99.3501L599.608 99.1601L602.388 98.5901L605.058 97.6501L607.588 96.3601L609.908 94.7501L611.998 92.8301L613.818 90.6501L615.318 88.2501L616.478 85.6601L617.288 82.9501L617.718 80.1401" stroke="black"/>
<path d="M617.718 56.3101L617.288 53.5001L616.478 50.7901L615.318 48.2001L613.818 45.8001L611.998 43.6201L609.908 41.7001L607.588 40.0901L605.058 38.8001L602.388 37.8601L599.608 37.2901L596.778 37.1001L593.958 37.2901L591.178 37.8601L588.508 38.8001L585.978 40.0901L583.648 41.7001L581.558 43.6201L579.748 45.8001L578.248 48.2001L577.088 50.7901L576.278 53.5001L575.848 56.3101" stroke="black"/>
<path d="M579.298 19.3701L578.938 19.4701ZM578.938 19.4701L578.678 19.7301ZM578.678 19.7301L578.578 20.0901ZM578.578 20.0901V38.3701ZM578.578 38.3701L578.278 40.0401ZM578.278 40.0401L577.718 41.6401ZM577.718 41.6401L576.918 43.1301ZM576.918 43.1301L575.888 44.4801ZM575.888 44.4801L574.668 45.6501ZM574.668 45.6501L573.278 47.3701ZM573.278 47.3701L572.198 49.2901ZM572.198 49.2901L571.448 51.3701ZM571.448 51.3701L571.048 53.5401ZM571.048 53.5401L571.008 55.7501ZM571.008 55.7501V79.5001ZM571.008 79.5001L571.168 80.8501ZM571.168 80.8501L572.108 83.9001ZM572.108 83.9001L573.408 86.8201ZM573.408 86.8201L575.058 89.5501ZM575.058 89.5501L577.018 92.0701ZM577.018 92.0701L579.268 94.3301ZM579.268 94.3301L581.778 96.3001ZM581.778 96.3001L584.508 97.9501ZM584.508 97.9501L587.418 99.2701ZM587.418 99.2701L590.458 100.22ZM590.458 100.22L593.598 100.8ZM593.598 100.8L596.778 100.99ZM596.778 100.99L599.968 100.8ZM599.968 100.8L603.108 100.22ZM603.108 100.22L606.148 99.2701ZM606.148 99.2701L609.058 97.9501ZM609.058 97.9501L611.788 96.3001ZM611.788 96.3001L614.298 94.3301ZM614.298 94.3301L616.548 92.0701ZM616.548 92.0701L618.508 89.5501ZM618.508 89.5501L620.158 86.8201ZM620.158 86.8201L621.458 83.9001ZM621.458 83.9001L622.398 80.8501ZM622.398 80.8501L622.558 79.5001ZM622.558 79.5001V55.7501ZM622.558 55.7501L622.518 53.5401ZM622.518 53.5401L622.118 51.3701ZM622.118 51.3701L621.368 49.2901ZM621.368 49.2901L620.288 47.3701ZM620.288 47.3701L618.898 45.6501ZM618.898 45.6501L617.668 44.4801ZM617.668 44.4801L616.648 43.1301ZM616.648 43.1301L615.848 41.6401ZM615.848 41.6401L615.288 40.0401ZM615.288 40.0401L614.978 38.3701ZM614.978 38.3701V20.0901ZM614.978 20.0901L614.888 19.7301ZM614.888 19.7301L614.628 19.4701ZM614.628 19.4701L614.268 19.3701ZM614.268 19.3701H579.298Z" stroke="black"/>
<path d="M591.379 53.0199L591.559 51.6299ZM591.559 51.6299L592.099 50.3399ZM592.099 50.3399L592.949 49.2299ZM592.949 49.2299L594.069 48.3699ZM594.069 48.3699L595.359 47.8399ZM595.359 47.8399L596.749 47.6499ZM596.749 47.6499L598.139 47.8399ZM598.139 47.8399L599.439 48.3699ZM599.439 48.3699L600.549 49.2299ZM600.549 49.2299L601.399 50.3399ZM601.399 50.3399L601.939 51.6299ZM601.939 51.6299L602.119 53.0199ZM602.119 53.0199L601.939 54.4099ZM601.939 54.4099L601.399 55.7099ZM601.399 55.7099L600.549 56.8199ZM600.549 56.8199L599.439 57.6699ZM599.439 57.6699L598.139 58.2099ZM598.139 58.2099L596.749 58.3899ZM596.749 58.3899L595.359 58.2099ZM595.359 58.2099L594.069 57.6699ZM594.069 57.6699L592.949 56.8199ZM592.949 56.8199L592.099 55.7099ZM592.099 55.7099L591.559 54.4099ZM591.559 54.4099L591.379 53.0199Z" stroke="black"/>
<path d="M579.297 20.0898H613.547ZM613.547 20.0898V35.8598ZM613.547 35.8598H579.297ZM579.297 35.8598V20.0898Z" stroke="black"/>
<path d="M669.316 22.0498H770.336ZM770.336 22.0498V59.3498ZM770.336 59.3498H669.316ZM669.316 59.3498V22.0498Z" stroke="black"/>
<path d="M669.316 22.0498L770.336 59.3498" stroke="black"/>
</svg>
