<svg xmlns="http://www.w3.org/2000/svg" width="93" height="123" viewBox="0 0 93 123"><defs><mask id="vwk5b" width="2" height="2" x="-1" y="-1"><path fill="#fff" d="M4 4h85v115H4z"/><path d="M4 4h85v102h-8l-35.051 13L12 106H4z"/></mask><filter id="vwk5a" width="117" height="147" x="-12" y="-12" filterUnits="userSpaceOnUse"><feOffset in="SourceGraphic" result="FeOffset1093Out"/><feGaussianBlur in="FeOffset1093Out" result="FeGaussianBlur1094Out" stdDeviation="2.4 2.4"/></filter><linearGradient id="vwk5c" x1="20.02" x2="75.02" y1="60" y2="18.98" gradientUnits="userSpaceOnUse"><stop offset="0" stop-color="#27313d"/><stop offset="1" stop-color="#fff" stop-opacity="0"/></linearGradient></defs><g><g><g filter="url(#vwk5a)"><path fill="none" d="M4 4h85v102h-8l-35.051 13L12 106H4z" mask="url(&quot;#vwk5b&quot;)"/><path fill="#3c3c3c" fill-opacity=".09" d="M4 4h85v102h-8l-35.051 13L12 106H4z"/></g><path fill="#fff" d="M4 4h85v102h-8l-35.051 13L12 106H4z"/></g><g><g><path fill="#27313d" d="M26.303 78.418h-3.78v13.66h-3.126v-13.66h-3.68v-2.445h10.586zm12.629 7.864c0 1.895-.534 3.374-1.602 4.436-1.068 1.062-2.49 1.592-4.265 1.592-1.775 0-3.193-.53-4.254-1.592-1.06-1.062-1.591-2.54-1.591-4.436v-4.49c0-1.889.528-3.369 1.585-4.442s2.473-1.61 4.249-1.61c1.775 0 3.199.537 4.27 1.61 1.072 1.073 1.608 2.553 1.608 4.441zm-3.105-4.524c0-1.172-.237-2.057-.712-2.655-.476-.597-1.163-.896-2.061-.896-.906 0-1.588.297-2.044.89-.457.594-.685 1.481-.685 2.661v4.524c0 1.195.23 2.09.69 2.688.46.597 1.144.896 2.05.896.906 0 1.593-.299 2.06-.896.468-.597.702-1.493.702-2.688zm8.398 4.491v5.83h-3.116V75.972h5.38c1.614 0 2.892.474 3.835 1.421.942.948 1.414 2.189 1.414 3.722 0 1.542-.472 2.782-1.414 3.723-.943.94-2.221 1.41-3.834 1.41zm0-2.445h2.265c.7 0 1.232-.25 1.596-.752.365-.501.547-1.14.547-1.913 0-.79-.182-1.44-.547-1.953-.364-.512-.897-.768-1.596-.768h-2.265zm20.916 2.478c0 1.895-.535 3.374-1.602 4.436-1.069 1.062-2.49 1.592-4.265 1.592-1.776 0-3.194-.53-4.254-1.592-1.061-1.062-1.592-2.54-1.592-4.436v-4.49c0-1.889.529-3.369 1.586-4.442s2.473-1.61 4.249-1.61c1.775 0 3.198.537 4.27 1.61 1.072 1.073 1.608 2.553 1.608 4.441zm-3.105-4.524c0-1.172-.238-2.057-.713-2.655-.475-.597-1.162-.896-2.06-.896-.906 0-1.588.297-2.045.89-.456.594-.685 1.481-.685 2.661v4.524c0 1.195.23 2.09.69 2.688.461.597 1.145.896 2.05.896.907 0 1.593-.299 2.061-.896.468-.597.702-1.493.702-2.688zm15.822 5.32l.022.067c.03 1.725-.41 3.018-1.32 3.877-.91.859-2.208 1.289-3.895 1.289-1.73 0-3.105-.511-4.121-1.532-1.017-1.022-1.525-2.473-1.525-4.353v-4.779c0-1.873.492-3.325 1.475-4.358.984-1.032 2.311-1.549 3.983-1.549 1.76 0 3.113.428 4.055 1.284.943.855 1.4 2.15 1.37 3.882l-.021.067h-3.028c0-1.033-.182-1.755-.547-2.168-.365-.413-.974-.62-1.829-.62-.78 0-1.366.282-1.756.846-.391.564-.586 1.43-.586 2.594v4.8c0 1.174.21 2.042.63 2.606.42.564 1.053.846 1.9.846.774 0 1.33-.205 1.669-.614.338-.409.508-1.137.508-2.184z"/></g><g><path fill="url(#vwk5c)" d="M66.017 55.452l-.209.268c-.005.026-.01.052-.017.078l-.015.065 9.223 9.136H44.866v-.078c-2.872-.142-5.267-.564-7.388-1.343-9.866-3.63-15.643-10.528-17.169-20.505-1.993-13.034 6.426-25.232 19.582-28.375 6.464-1.545 13.209-.562 18.993 2.765 5.797 3.334 9.986 8.658 11.793 14.991 2.33 8.162.836 15.803-4.438 22.713-.073.096-.148.19-.222.285zM52.5 42.712c1.264-2.1 1.57-4.282.912-6.66-.725-2.622-2.318-4.156-4.87-4.689-.967-.202-2.064-.295-3.258-.272-5.967.106-10.904 4.812-11.24 10.714-.275 4.804.858 8.995 3.463 12.815 1.955 2.866 4.567 5.027 7.36 7.243V35.04l6.911 6.958z"/></g><g><path fill="#27313d" d="M66.017 55.452l-.209.268c-.005.026-.01.052-.017.078l-.015.065 9.223 9.136H44.866v-.078c-2.872-.142-5.267-.564-7.388-1.343-9.866-3.63-15.643-10.528-17.169-20.505-1.993-13.034 6.426-25.232 19.582-28.375 6.464-1.545 13.209-.562 18.993 2.765 5.797 3.334 9.986 8.658 11.793 14.991 2.33 8.162.836 15.803-4.438 22.713-.073.096-.148.19-.222.285zM52.5 42.712c1.264-2.1 1.57-4.282.912-6.66-.725-2.622-2.318-4.156-4.87-4.689-.967-.202-2.064-.295-3.258-.272-5.967.106-10.904 4.812-11.24 10.714-.275 4.804.858 8.995 3.463 12.815 1.955 2.866 4.567 5.027 7.36 7.243V35.04l6.911 6.958zm17.066-9.945c-3.007-10.54-13.019-17.62-23.755-17.62a24.32 24.32 0 0 0-5.65.666C27.592 18.815 19.548 30.46 21.451 42.9c1.458 9.534 6.985 16.129 16.427 19.602 2.028.745 4.237 1.144 6.988 1.28v-.45l-.08-.064c-3.102-2.455-6.032-4.774-8.235-8.004-2.752-4.036-3.949-8.46-3.66-13.523.37-6.499 5.805-11.68 12.372-11.797 1.28-.02 2.464.077 3.517.297 2.974.62 4.907 2.474 5.745 5.507.743 2.685.416 5.15-1 7.52l11.588 11.47c.07-.087.139-.175.206-.264 5.043-6.607 6.472-13.91 4.247-21.707z"/></g></g></g></svg>