<svg width="367" height="536" viewBox="0 0 367 536" fill="none" xmlns="http://www.w3.org/2000/svg">
<g clip-path="url(#clip0_4759_14033)">
<mask id="mask0_4759_14033" style="mask-type:luminance" maskUnits="userSpaceOnUse" x="0" y="0" width="367" height="536">
<path d="M367 0H0V536H367V0Z" fill="white"/>
</mask>
<g mask="url(#mask0_4759_14033)">
<path d="M130.74 304.43C148.612 304.43 163.1 289.942 163.1 272.07C163.1 254.198 148.612 239.71 130.74 239.71C112.868 239.71 98.3799 254.198 98.3799 272.07C98.3799 289.942 112.868 304.43 130.74 304.43Z" fill="#0DB683"/>
<path d="M12.2698 0.800099C7.65983 2.1001 4.45983 4.9001 2.45983 9.1001C0.459829 13.2001 0.459829 15.8001 0.159829 154.8C-0.0401711 232.6 -0.0401711 339.3 0.0698289 391.9L0.369829 487.5L2.56983 490.8C3.86983 492.6 6.06983 495 7.56983 496.1C11.2698 498.9 18.8698 499.3 23.5698 497.1C25.6698 496.1 36.8698 486.9 48.5698 476.7C60.2698 466.4 75.5698 453.2 82.4698 447.2C89.3698 441.2 101.47 430.7 109.27 423.8C126.47 408.8 129.07 406.8 132.17 406.8C136.07 406.8 140.17 409.6 142.77 414.1C144.87 417.8 163.97 459.5 186.77 510.3C195.67 529.9 196.37 531.2 200.67 533.8C205.57 536.9 209.47 536.3 222.67 530.4C229.37 527.4 241.67 522 249.87 518.4C273.17 508.1 273.27 508 275.37 504.6C279.27 498.2 280.27 501.7 252.17 428.3C247.77 416.7 241.47 400.5 238.27 392.3C235.07 384 232.37 376.2 232.37 374.9C232.37 373.6 233.67 371.3 235.37 369.8C238.27 367.1 238.47 367 255.57 366.4C280.97 365.5 318.87 363.8 334.87 362.9C345.97 362.3 349.67 361.7 352.87 360C358.07 357.4 361.77 353.4 364.27 347.8C366.77 342.3 366.87 337.9 364.77 330.7C363.37 326 361.77 324 352.97 315.3C339.47 301.9 257.07 223.2 204.37 173.3C189.27 159 171.97 142.6 165.87 136.8C159.87 131 150.57 122.2 145.37 117.3C140.17 112.3 130.47 103.1 123.87 96.7001C117.27 90.4001 103.07 76.9001 92.3698 66.7001C81.6698 56.6001 62.0698 37.9001 48.8698 25.3001C29.6598 6.9001 24.0698 2.0001 20.7698 1.0001C16.1698 -0.299901 15.9698 -0.299901 12.2698 0.800099ZM146.07 179.3C147.27 180.2 149.27 183.5 150.47 186.8C152.97 193.8 157.37 198.2 163.47 199.8C168.37 201.2 172.47 200.4 178.17 197.1C180.87 195.6 183.37 194.8 184.77 195.2C185.97 195.5 190.87 199.7 195.67 204.6C205.57 214.8 205.97 216.1 201.87 225C198.97 231.2 198.77 234.4 200.97 239.6C203.37 245.3 208.07 249.6 213.97 251.3C221.67 253.5 222.37 255 222.37 269.3C222.37 283.6 221.67 285 215.17 286.6C206.17 289 201.27 294.4 199.77 303.6C199.27 306.7 199.67 308.9 201.77 313.3C205.87 322.3 205.57 323 195.17 333.5C185.17 343.7 183.97 344.2 177.47 340.8C171.07 337.6 166.47 337.3 160.47 339.8C154.67 342.4 152.07 345.4 149.47 353C147.07 360 145.37 360.8 132.07 360.8C118.77 360.8 116.37 359.9 114.07 352.5C111.87 345.6 109.47 342.5 104.07 339.9C98.3698 337.2 94.0698 337.3 87.5698 340.3C81.5698 343.1 78.6698 343.4 76.3698 341.5C75.5698 340.8 71.3698 336.6 67.1698 332.1C58.4698 323.1 58.0698 321.8 61.5698 314.7C64.7698 308.5 64.6698 300.3 61.4698 295.6C58.4698 291.2 53.9698 288.1 48.2698 286.5C42.1698 284.7 41.3698 282.7 41.3698 268.8C41.3698 254.9 42.0698 253.5 49.3698 251.4C56.3698 249.3 58.9698 247.3 61.8698 241.5C64.9698 235.1 64.9698 231.7 61.8698 225C57.7698 216.2 58.1698 214.8 67.6698 205.1C72.1698 200.4 76.9698 196.2 78.1698 195.7C79.9698 195 81.9698 195.4 86.5698 197.5C93.7698 200.7 99.3698 200.9 105.07 198C110.17 195.4 111.97 192.9 113.97 186.1C116.17 178.4 117.57 177.8 131.87 177.8C141.07 177.8 144.47 178.2 146.07 179.3Z" fill="#4177DD"/>
</g>
<path d="M121.87 219C105.67 222 89.6698 235.9 84.4698 251.6C79.8698 265.1 80.7698 279 86.8698 291.4C93.2698 304.4 104.17 313.9 117.57 317.9C123.17 319.6 126.37 320 134.77 319.6C144.47 319.3 145.57 319 153.47 315.1C171.77 306 182.37 289.3 182.37 269.3C182.37 237 153.47 213 121.87 219ZM140.87 244.9C146.17 246.3 154.47 254.8 156.17 260.4C162.57 281.9 144.07 300.4 123.17 293.3C117.97 291.5 111.37 285.3 108.77 280C101.17 263.9 113.67 243.8 131.27 243.8C134.37 243.8 138.67 244.3 140.87 244.9Z" fill="#4177DD"/>
</g>
<defs>
<clipPath id="clip0_4759_14033">
<rect width="367" height="536" fill="white"/>
</clipPath>
</defs>
</svg>
