<svg xmlns="http://www.w3.org/2000/svg" xmlns:xlink="http://www.w3.org/1999/xlink" viewBox="0 0 1024 768" version="1.1" stroke-linecap="round" stroke-linejoin="round" fill-rule="evenodd" xml:space="preserve" style="background-color:rgb(0,0,0);">
<defs>
<style>g[clip-path] &gt; * {vector-effect: non-scaling-stroke;}</style>
<clipPath id="clipId0">
<path d="M0,768 1024,768 1024,0 0,0 z"/>
</clipPath>
</defs>
<g clip-path="url(#clipId0)" fill="none" stroke="rgb(255,255,255)" stroke-width="1px"/>
<g clip-path="url(#clipId0)" fill="none" stroke="rgb(255,255,255)" stroke-width="1px">
<polyline points="635.09,721.748 635.09,13.0769 "/>
<polyline points="501.017,403.978 501.017,33.8721 "/>
<polyline points="388.877,333.517 388.877,39.6314 "/>
<circle cx="388.925" cy="39.4039" r="5.5475"/>
<circle cx="501.017" cy="33.8721" r="5.5475"/>
<polyline points="559.3,555.533 559.3,31.3092 "/>
<circle cx="559.3" cy="31.3092" r="5.5475"/>
</g>
<g clip-path="url(#clipId0)" fill="rgb(242,103,34)" stroke="rgb(242,103,34)" stroke-width="1px">
<path d="M375.717,360.066 375.552,358.473 375.717,358.121 z"/>
<path d="M375.717,360.066 375.717,358.121 376.206,361.62 z"/>
<path d="M376.206,361.62 375.717,358.121 376.206,357.076 z"/>
<path d="M376.206,361.62 376.206,357.076 377.008,363.097 z"/>
<path d="M377.008,363.097 376.206,357.076 377.008,355.362 z"/>
<path d="M377.008,363.097 377.008,355.362 378.103,364.459 z"/>
<path d="M378.103,364.459 377.008,355.362 378.103,353.022 z"/>
<path d="M378.103,364.459 378.103,353.022 379.465,365.674 z"/>
<path d="M379.465,365.674 378.103,353.022 379.465,350.114 z"/>
<path d="M379.465,365.674 379.465,350.114 381.058,366.712 z"/>
<path d="M381.058,366.712 379.465,350.114 381.058,346.709 z"/>
<path d="M381.058,366.712 381.058,346.709 382.846,367.547 z"/>
<path d="M382.846,367.547 381.058,346.709 382.846,342.891 z"/>
<path d="M382.846,367.547 382.846,342.891 384.782,368.159 z"/>
<path d="M384.782,368.159 382.846,342.891 384.782,338.753 z"/>
<path d="M384.782,368.159 384.782,338.753 386.82,368.532 z"/>
<path d="M386.82,368.532 384.782,338.753 386.82,334.399 z"/>
<path d="M386.82,368.532 386.82,334.399 388.91,368.657 z"/>
<path d="M388.91,368.657 386.82,334.399 388.91,329.934 z"/>
<path d="M388.91,368.657 388.91,329.934 391,368.532 z"/>
<path d="M391,368.532 388.91,329.934 391,334.399 z"/>
<path d="M391,368.532 391,334.399 393.038,368.159 z"/>
<path d="M393.038,368.159 391,334.399 393.038,338.753 z"/>
<path d="M393.038,368.159 393.038,338.753 394.974,367.547 z"/>
<path d="M394.974,367.547 393.038,338.753 394.974,342.891 z"/>
<path d="M394.974,367.547 394.974,342.891 396.761,366.712 z"/>
<path d="M396.761,366.712 394.974,342.891 396.761,346.709 z"/>
<path d="M396.761,366.712 396.761,346.709 398.355,365.674 z"/>
<path d="M398.355,365.674 396.761,346.709 398.355,350.114 z"/>
<path d="M398.355,365.674 398.355,350.114 399.717,364.459 z"/>
<path d="M399.717,364.459 398.355,350.114 399.717,353.022 z"/>
<path d="M399.717,364.459 399.717,353.022 400.812,363.097 z"/>
<path d="M400.812,363.097 399.717,353.022 400.812,355.362 z"/>
<path d="M400.812,363.097 400.812,355.362 401.614,361.62 z"/>
<path d="M401.614,361.62 400.812,355.362 401.614,357.076 z"/>
<path d="M401.614,361.62 401.614,357.076 402.103,360.066 z"/>
<path d="M402.103,360.066 401.614,357.076 402.103,358.121 z"/>
<path d="M402.103,360.066 402.103,358.121 402.268,358.473 z"/>
<path d="M487.823,434.109 487.659,432.516 487.823,432.165 z"/>
<path d="M487.823,434.109 487.823,432.165 488.313,435.663 z"/>
<path d="M488.313,435.663 487.823,432.165 488.313,431.119 z"/>
<path d="M488.313,435.663 488.313,431.119 489.115,437.14 z"/>
<path d="M489.115,437.14 488.313,431.119 489.115,429.406 z"/>
<path d="M489.115,437.14 489.115,429.406 490.21,438.503 z"/>
<path d="M490.21,438.503 489.115,429.406 490.21,427.066 z"/>
<path d="M490.21,438.503 490.21,427.066 491.571,439.718 z"/>
<path d="M491.571,439.718 490.21,427.066 491.571,424.157 z"/>
<path d="M491.571,439.718 491.571,424.157 493.165,440.756 z"/>
<path d="M493.165,440.756 491.571,424.157 493.165,420.752 z"/>
<path d="M493.165,440.756 493.165,420.752 494.952,441.591 z"/>
<path d="M494.952,441.591 493.165,420.752 494.952,416.934 z"/>
<path d="M494.952,441.591 494.952,416.934 496.889,442.202 z"/>
<path d="M496.889,442.202 494.952,416.934 496.889,412.797 z"/>
<path d="M496.889,442.202 496.889,412.797 498.927,442.575 z"/>
<path d="M498.927,442.575 496.889,412.797 498.927,408.442 z"/>
<path d="M498.927,442.575 498.927,408.442 501.017,442.701 z"/>
<path d="M501.017,442.701 498.927,408.442 501.017,403.978 z"/>
<path d="M501.017,442.701 501.017,403.978 503.106,442.575 z"/>
<path d="M503.106,442.575 501.017,403.978 503.106,408.442 z"/>
<path d="M503.106,442.575 503.106,408.442 505.144,442.202 z"/>
<path d="M505.144,442.202 503.106,408.442 505.144,412.797 z"/>
<path d="M505.144,442.202 505.144,412.797 507.081,441.591 z"/>
<path d="M507.081,441.591 505.144,412.797 507.081,416.934 z"/>
<path d="M507.081,441.591 507.081,416.934 508.868,440.756 z"/>
<path d="M508.868,440.756 507.081,416.934 508.868,420.752 z"/>
<path d="M508.868,440.756 508.868,420.752 510.462,439.718 z"/>
<path d="M510.462,439.718 508.868,420.752 510.462,424.157 z"/>
<path d="M510.462,439.718 510.462,424.157 511.823,438.503 z"/>
<path d="M511.823,438.503 510.462,424.157 511.823,427.066 z"/>
<path d="M511.823,438.503 511.823,427.066 512.918,437.14 z"/>
<path d="M512.918,437.14 511.823,427.066 512.918,429.406 z"/>
<path d="M512.918,437.14 512.918,429.406 513.72,435.663 z"/>
<path d="M513.72,435.663 512.918,429.406 513.72,431.119 z"/>
<path d="M513.72,435.663 513.72,431.119 514.21,434.109 z"/>
<path d="M514.21,434.109 513.72,431.119 514.21,432.165 z"/>
<path d="M514.21,434.109 514.21,432.165 514.374,432.516 z"/>
<path d="M546.125,581.245 545.961,579.652 546.125,579.3 z"/>
<path d="M546.125,581.245 546.125,579.3 546.615,582.799 z"/>
<path d="M546.615,582.799 546.125,579.3 546.615,578.255 z"/>
<path d="M546.615,582.799 546.615,578.255 547.417,584.275 z"/>
<path d="M547.417,584.275 546.615,578.255 547.417,576.541 z"/>
<path d="M547.417,584.275 547.417,576.541 548.512,585.638 z"/>
<path d="M548.512,585.638 547.417,576.541 548.512,574.201 z"/>
<path d="M548.512,585.638 548.512,574.201 549.873,586.853 z"/>
<path d="M549.873,586.853 548.512,574.201 549.873,571.293 z"/>
<path d="M549.873,586.853 549.873,571.293 551.467,587.891 z"/>
<path d="M551.467,587.891 549.873,571.293 551.467,567.888 z"/>
<path d="M551.467,587.891 551.467,567.888 553.254,588.726 z"/>
<path d="M553.254,588.726 551.467,567.888 553.254,564.069 z"/>
<path d="M553.254,588.726 553.254,564.069 555.191,589.338 z"/>
<path d="M555.191,589.338 553.254,564.069 555.191,559.932 z"/>
<path d="M555.191,589.338 555.191,559.932 557.229,589.711 z"/>
<path d="M557.229,589.711 555.191,559.932 557.229,555.578 z"/>
<path d="M557.229,589.711 557.229,555.578 559.319,589.836 z"/>
<path d="M559.319,589.836 557.229,555.578 559.319,551.113 z"/>
<path d="M559.319,589.836 559.319,551.113 561.408,589.711 z"/>
<path d="M561.408,589.711 559.319,551.113 561.408,555.578 z"/>
<path d="M561.408,589.711 561.408,555.578 563.446,589.338 z"/>
<path d="M563.446,589.338 561.408,555.578 563.446,559.932 z"/>
<path d="M563.446,589.338 563.446,559.932 565.383,588.726 z"/>
<path d="M565.383,588.726 563.446,559.932 565.383,564.069 z"/>
<path d="M565.383,588.726 565.383,564.069 567.17,587.891 z"/>
<path d="M567.17,587.891 565.383,564.069 567.17,567.888 z"/>
<path d="M567.17,587.891 567.17,567.888 568.764,586.853 z"/>
<path d="M568.764,586.853 567.17,567.888 568.764,571.293 z"/>
<path d="M568.764,586.853 568.764,571.293 570.125,585.638 z"/>
<path d="M570.125,585.638 568.764,571.293 570.125,574.201 z"/>
<path d="M570.125,585.638 570.125,574.201 571.22,584.275 z"/>
<path d="M571.22,584.275 570.125,574.201 571.22,576.541 z"/>
<path d="M571.22,584.275 571.22,576.541 572.023,582.799 z"/>
<path d="M572.023,582.799 571.22,576.541 572.023,578.255 z"/>
<path d="M572.023,582.799 572.023,578.255 572.512,581.245 z"/>
<path d="M572.512,581.245 572.023,578.255 572.512,579.3 z"/>
<path d="M572.512,581.245 572.512,579.3 572.676,579.652 z"/>
<path d="M621.897,751.879 621.732,750.286 621.897,749.935 z"/>
<path d="M621.897,751.879 621.897,749.935 622.386,753.433 z"/>
<path d="M622.386,753.433 621.897,749.935 622.386,748.889 z"/>
<path d="M622.386,753.433 622.386,748.889 623.188,754.91 z"/>
<path d="M623.188,754.91 622.386,748.889 623.188,747.176 z"/>
<path d="M623.188,754.91 623.188,747.176 624.283,756.272 z"/>
<path d="M624.283,756.272 623.188,747.176 624.283,744.836 z"/>
<path d="M624.283,756.272 624.283,744.836 625.645,757.488 z"/>
<path d="M625.645,757.488 624.283,744.836 625.645,741.927 z"/>
<path d="M625.645,757.488 625.645,741.927 627.239,758.526 z"/>
<path d="M627.239,758.526 625.645,741.927 627.239,738.522 z"/>
<path d="M627.239,758.526 627.239,738.522 629.026,759.361 z"/>
<path d="M629.026,759.361 627.239,738.522 629.026,734.704 z"/>
<path d="M629.026,759.361 629.026,734.704 630.962,759.972 z"/>
<path d="M630.962,759.972 629.026,734.704 630.962,730.567 z"/>
<path d="M630.962,759.972 630.962,730.567 633,760.345 z"/>
<path d="M633,760.345 630.962,730.567 633,726.212 z"/>
<path d="M633,760.345 633,726.212 635.09,760.471 z"/>
<path d="M635.09,760.471 633,726.212 635.09,721.748 z"/>
<path d="M635.09,760.471 635.09,721.748 637.18,760.345 z"/>
<path d="M637.18,760.345 635.09,721.748 637.18,726.212 z"/>
<path d="M637.18,760.345 637.18,726.212 639.218,759.972 z"/>
<path d="M639.218,759.972 637.18,726.212 639.218,730.567 z"/>
<path d="M639.218,759.972 639.218,730.567 641.154,759.361 z"/>
<path d="M641.154,759.361 639.218,730.567 641.154,734.704 z"/>
<path d="M641.154,759.361 641.154,734.704 642.942,758.526 z"/>
<path d="M642.942,758.526 641.154,734.704 642.942,738.522 z"/>
<path d="M642.942,758.526 642.942,738.522 644.535,757.488 z"/>
<path d="M644.535,757.488 642.942,738.522 644.535,741.927 z"/>
<path d="M644.535,757.488 644.535,741.927 645.897,756.272 z"/>
<path d="M645.897,756.272 644.535,741.927 645.897,744.836 z"/>
<path d="M645.897,756.272 645.897,744.836 646.992,754.91 z"/>
<path d="M646.992,754.91 645.897,744.836 646.992,747.176 z"/>
<path d="M646.992,754.91 646.992,747.176 647.794,753.433 z"/>
<path d="M647.794,753.433 646.992,747.176 647.794,748.889 z"/>
<path d="M647.794,753.433 647.794,748.889 648.283,751.879 z"/>
<path d="M648.283,751.879 647.794,748.889 648.283,749.935 z"/>
<path d="M648.283,751.879 648.283,749.935 648.448,750.286 z"/>
</g>
<g clip-path="url(#clipId0)" fill="none" stroke="rgb(255,255,255)" stroke-width="1px">
<circle cx="635.09" cy="13.0769" r="5.5475"/>
</g>
</svg>